<?xml version="1.0" encoding="utf-8"?>
<!-- Generator: Adobe Illustrator 25.2.1, SVG Export Plug-In . SVG Version: 6.00 Build 0)  -->
<svg version="1.1" xmlns="http://www.w3.org/2000/svg" xmlns:xlink="http://www.w3.org/1999/xlink" x="0px" y="0px"
	 viewBox="0 0 680 560.94" style="enable-background:new 0 0 680 560.94;" xml:space="preserve">
<style type="text/css">
	.st0{display:none;}
	.st1{display:inline;}
	.st2{fill:#FFFFFF;}
</style>
<g id="Capa_1" class="st0">
	<path class="st1" d="M26.85,482.17c70.03,6.94,132.93-10.41,189.66-53.08c-58.97-5.08-98.66-34.69-120.37-90.31
		c19.61,3.08,37.9,3.05,56.18-2.07c-29.29-7.47-53.75-22.44-72.59-46.02c-18.92-23.67-28.15-50.77-28.31-81.42
		c9.56,3.6,18.48,7.65,27.79,10.28c9.23,2.61,18.87,3.79,28.73,4.91c-26.89-20.4-45.11-46.19-52.28-79.12
		c-7.12-32.72-2.39-63.71,14.14-93.03c69.81,82.23,157.88,127.4,265.33,134.99c-0.91-10.6-2.59-20.46-2.48-30.31
		c0.78-65.51,48.21-118.57,111.22-127.13c42.47-5.77,79.41,7.14,110.33,37.03c1.2,1.16,3.73,1.85,5.39,1.51
		c26.26-5.34,50.96-14.87,74.28-28.04c1.12-0.63,2.25-1.24,4.37-2.41c-10.22,30.65-28.62,53.61-54.63,70.85
		c24.58-2.88,47.98-9.36,71.19-18.27c-4.42,5.93-8.66,12-13.32,17.73c-4.66,5.72-9.37,11.51-14.74,16.54
		c-10.67,9.98-21.73,19.55-32.82,29.06c-2.3,1.97-2.64,3.67-2.6,6.63c0.19,11.64,0.25,23.33-0.56,34.94
		c-3.81,54.3-18.7,105.53-44.39,153.47C515.3,406.9,472.37,454,415.99,488.4c-37.84,23.09-78.77,37.95-122.4,45.78
		c-29.27,5.25-58.77,6.95-88.32,5.49c-48.9-2.41-95.69-14.09-139.75-35.7c-12.51-6.13-24.48-13.38-36.68-20.15
		C28.16,483.44,27.62,482.81,26.85,482.17z"/>
</g>
<g id="Capa_2" class="st0">
	<path class="st1" d="M322.45,23.24C464.02,21,587.01,136.22,587.11,285.87c0.11,145.8-117.66,263.05-264.26,262.7
		C172.69,548.22,57.37,422.64,61.37,279.21C65.25,140.17,180.1,23.99,322.45,23.24z M351.8,459.05c0-57.28,0-113.97,0-171.17
		c16.06,0,31.62,0,47.67,0c1.74-19.27,3.44-38.07,5.19-57.53c-17.89,0-35.12,0-52.47,0c0-13.53-0.35-26.48,0.13-39.4
		c0.31-8.37,4.4-11.72,12.91-11.99c6.15-0.19,12.31-0.1,18.47-0.11c6.78-0.01,13.56,0,20.48,0c0-20.19,0-39.7,0-60.51
		c-23.7,0.93-46.97,1.21-70.13,2.99c-12.55,0.96-24.17,6.13-33.57,15.09c-13.57,12.93-16.94,29.65-17.15,47.4
		c-0.17,14.14-0.03,28.29-0.06,42.44c0,1.27-0.18,2.54-0.32,4.33c-11.92,0-23.5,0-35.08,0c0,19.47,0,38.38,0,57.97
		c11.85,0,23.41,0,35.44,0c0,57.18,0,113.69,0,170.49C306.19,459.05,328.59,459.05,351.8,459.05z"/>
</g>
<g id="Capa_3">
	<path d="M338.8,24.45c44.64,0.01,89.28-0.15,133.92,0.07c27.58,0.14,52.44,9.15,74.35,25.6c27.34,20.52,44.33,47.88,50.24,81.6
		c1.68,9.59,1.58,19.54,1.77,29.33c0.31,15.58,0.22,31.18,0.22,46.77c0,18.33-0.15,36.66-0.14,54.99
		c0.02,33.61,0.2,67.23,0.15,100.84c-0.03,20.53,0.31,41.09-0.73,61.58c-1.5,29.6-13.36,55.21-33.21,77.03
		c-21.27,23.4-47.93,36.91-79.11,41.47c-6.35,0.93-12.84,1.16-19.27,1.17c-85.04,0.07-170.08,0.12-255.12,0.02
		c-37.77-0.05-70.4-12.95-96.78-40.32c-19.96-20.72-32.31-45.44-34.83-74.15c-1.56-17.85-1.06-35.91-1.09-53.87
		c-0.1-75.01-0.19-150.01,0.01-225.02c0.08-29.39,9.97-55.57,28.32-78.43c20.84-25.96,47.96-41.55,80.67-47.26
		c6.8-1.19,13.83-1.34,20.76-1.36C252.23,24.39,295.52,24.44,338.8,24.45z M454.35,246.78c28.18,66.61-2.3,123.85-39.03,151.07
		c-40.18,29.77-97.36,31.91-139.65,4.79c-22.49-14.43-38.98-33.89-48.72-58.73c-12.74-32.49-11.36-64.88,2.53-97
		c-34.3,0-68.12,0-102.14,0c-0.08,1.14-0.19,1.97-0.19,2.79c-0.01,50.89-0.05,101.78,0.03,152.67c0.01,8.3-0.11,16.69,1.06,24.87
		c5.6,39.3,40.43,69.13,80.28,69.14c86.91,0.02,173.82,0.03,260.73-0.05c4.88,0,9.8-0.49,14.63-1.25
		c37.16-5.88,66.84-40.52,66.87-78.02c0.04-54.98,0.01-109.97,0.01-164.95c0-1.78,0-3.56,0-5.32
		C518.13,246.78,486.29,246.78,454.35,246.78z M127.73,198.09c1.52,0.11,3,0.31,4.48,0.31c44.8,0.02,89.61,0.05,134.41-0.08
		c2.34-0.01,4.93-1.01,6.97-2.26c45.32-27.81,90.64-27.54,136.14-0.42c2.59,1.54,5.89,2.65,8.86,2.66
		c42.09,0.17,84.18,0.12,126.26,0.12c1.82,0,3.63,0,5.84,0c0-17.88,1.17-35.24-0.23-52.39c-3.4-41.57-39.49-73.61-81.39-73.6
		c-86.55,0.02-173.1-0.06-259.65,0.16c-7.51,0.02-15.24,1.09-22.48,3.08c-33.74,9.26-57.72,39.28-59.1,72.93
		C127.17,164.82,127.73,181.11,127.73,198.09z M291.02,298.12c-1.4,28.1,23.41,50.95,49.69,51.46c28.45,0.56,52.21-23.39,52.18-50.1
		c-0.03-28.85-22.61-51.94-51.1-51.86C311.96,247.72,289.99,273.15,291.02,298.12z"/>
	<path class="st2" d="M291.02,298.12c-1.03-24.97,20.94-50.41,50.77-50.49c28.48-0.08,51.06,23.01,51.1,51.86
		c0.03,26.71-23.74,50.66-52.18,50.1C314.43,349.07,289.62,326.23,291.02,298.12z"/>
	<path d="M439.71,138.11c0-7.13-0.03-14.25,0.01-21.38c0.04-9.17,6.3-15.64,15.53-15.72c14.16-0.11,28.32-0.07,42.48,0.07
		c9.47,0.09,15.52,6.12,15.6,15.56c0.12,14.08,0.13,28.16,0,42.25c-0.09,10.27-4.83,15.35-15.09,15.61
		c-14.6,0.37-29.21,0.47-43.81,0.26c-9.25-0.13-14.65-6.3-14.72-15.78c-0.02-3.56,0-7.13,0-10.69
		C439.71,144.9,439.71,141.51,439.71,138.11z"/>
</g>
</svg>
