<svg id="Capa_1" data-name="Capa 1" xmlns="http://www.w3.org/2000/svg" xmlns:xlink="http://www.w3.org/1999/xlink" viewBox="0 0 365.97 370.75"><defs><style>.cls-1,.cls-2,.cls-3{stroke:#1d1d1b;fill-rule:evenodd;}.cls-1,.cls-2,.cls-3,.cls-4{stroke-miterlimit:10;}.cls-1{fill:url(#Degradado_sin_nombre_188);}.cls-2{fill:url(#Degradado_sin_nombre_195);}.cls-3{fill:url(#Nueva_muestra_de_degradado_1);}.cls-4{fill:#1d1d1b;stroke:#fff;}</style><linearGradient id="Degradado_sin_nombre_188" x1="110.73" y1="201.66" x2="310.62" y2="201.66" gradientUnits="userSpaceOnUse"><stop offset="0" stop-color="#1d1d1b"/><stop offset="0.31" stop-color="#009640"/><stop offset="0.5" stop-color="#ff0"/><stop offset="0.76" stop-color="#009640"/><stop offset="1" stop-color="#1d1d1b"/></linearGradient><linearGradient id="Degradado_sin_nombre_195" x1="28.41" y1="163.83" x2="392.94" y2="163.83" gradientUnits="userSpaceOnUse"><stop offset="0" stop-color="#1d1d1b"/><stop offset="0.25" stop-color="#009640"/><stop offset="0.5" stop-color="#ff0"/><stop offset="0.75" stop-color="#009640"/><stop offset="1" stop-color="#1d1d1b"/></linearGradient><radialGradient id="Nueva_muestra_de_degradado_1" cx="203.96" cy="48.94" r="68.49" gradientUnits="userSpaceOnUse"><stop offset="0" stop-color="#ff0"/><stop offset="0.5" stop-color="#009640"/><stop offset="1" stop-color="#1d1d1b"/></radialGradient></defs><path class="cls-1" d="M118.84,292.74H302.51c10.73,0,10.87-24.55.07-24.55H246.06V135.06h56.52c10.52-.07,10.52-24.62,0-24.48H118.77c-10.59-.14-10.59,24.41,0,24.48h56.52V268.19H118.77c-10.8,0-10.66,24.55.07,24.55Z" transform="translate(-27.69 -15.84)"/><path class="cls-2" d="M28.41,98.27S40.72,65.08,65.85,65.08H161V104.9H129.78V98.27ZM161,140.75V262.58H129.78V140.75ZM392.94,98.27S380.63,65.08,355.5,65.08H260.32V104.9h31.25V98.27ZM260.32,140.75h31.25V262.58H260.32Z" transform="translate(-27.69 -15.84)"/><path class="cls-3" d="M210.71,99.42a41.54,41.54,0,1,0-41.54-41.54A41.58,41.58,0,0,0,210.71,99.42Z" transform="translate(-27.69 -15.84)"/><path class="cls-4" d="M28.41,384.65c1-14,1.79-28.39,2.39-43.12s.84-25.86.84-33.77V301.3l10.18.12c.6,0,3.71,0,9.34-.12q-2.5,32.15-3.11,83.35l-9-.12C37.51,384.53,34,384.53,28.41,384.65Z" transform="translate(-27.69 -15.84)"/><path class="cls-4" d="M63.86,384.65l1.79-29,.48-16.89c.12-3.47.12-6.95.12-10.42,0-.6,0-2.63-.12-5.87,3.83.12,6.59.12,8.38.12,2,0,4.79,0,8.27-.12l-.36,8.63a41,41,0,0,1,4-4.91,16.81,16.81,0,0,1,3.71-2.76,26,26,0,0,1,4.55-1.8,24.93,24.93,0,0,1,5.15-.59,24.58,24.58,0,0,1,5,.59c0,3.84.12,8.63.48,14.37a27.64,27.64,0,0,0-6.47-.95,17.56,17.56,0,0,0-6.34,1.08,13.85,13.85,0,0,0-4.79,3.23,17.65,17.65,0,0,0-3.6,5.39,22.07,22.07,0,0,0-1.67,6.7,106.11,106.11,0,0,0-.84,10.78c-.24,5.15-.36,10.18-.36,15.21,0,1.92,0,4.31.24,7.19-3.11-.12-6-.12-8.5-.12S67.33,384.53,63.86,384.65Z" transform="translate(-27.69 -15.84)"/><path class="cls-4" d="M115.83,312c.12-4.19.24-7.42.24-9.7v-1.91c3.71,0,6.71.12,9,.12,3.23,0,6.23-.12,8.86-.12-.12,1-.12,2.15-.24,3.47l-.24,8.14c-3.11-.12-6-.12-8.62-.12s-5.63,0-9,.12Zm-3.35,72.7c.6-6.11,1.07-11.26,1.31-15.33.36-6.47.72-14,1.08-22.52s.48-16.64.6-24.31c4.07.12,7,.12,9,.12,1.8,0,4.79,0,8.86-.12-.48,7.07-.95,13.89-1.31,20.36s-.6,13.77-.72,22-.24,15-.24,19.76c-3.71-.12-6.71-.12-9-.12C120,384.53,116.79,384.53,112.48,384.65Z" transform="translate(-27.69 -15.84)"/><path class="cls-4" d="M145.41,384.65c1-9.23,1.68-19.64,2.27-31.14s1.08-21.8,1.08-31c3.83.12,6.83.12,9,.12,2.64,0,5.51,0,8.51-.12l-.72,10.42c1.32-1.79,2.39-3.23,3.35-4.31a26.39,26.39,0,0,1,3.71-3.11,21.69,21.69,0,0,1,4.67-2.4,33.73,33.73,0,0,1,5.75-1.44,39.48,39.48,0,0,1,6.59-.59A37.72,37.72,0,0,1,200,322.49a17.37,17.37,0,0,1,8,4.31,14.15,14.15,0,0,1,4,6.59,24.71,24.71,0,0,1,1.08,7.43c0,1.19-.12,2.87-.24,5.27l-1.32,26.7c-.12,3.71-.24,7.66-.24,11.86-3.23-.12-6-.12-8.26-.12-3.11,0-6.23,0-9.34.12.36-3.6.72-9.7,1.2-18.57s.72-14.61.72-17.48a16.32,16.32,0,0,0-1.56-7.78,9.9,9.9,0,0,0-4.67-4.44,17,17,0,0,0-7-1.55,16.31,16.31,0,0,0-6.82,1.43,15.37,15.37,0,0,0-5.51,4.08,19.64,19.64,0,0,0-3.83,6.82c-1,2.88-1.56,7.55-2,14.13-.36,5.75-.72,13.54-1,23.36-3.11-.12-6-.12-8.5-.12S149.12,384.53,145.41,384.65Z" transform="translate(-27.69 -15.84)"/><path class="cls-4" d="M263.85,371.83c-.48,2.28-1.2,6.47-2.28,12.46a76.78,76.78,0,0,1-8,1.55c-2,.12-3.83.24-5.51.24a33.94,33.94,0,0,1-8.14-.84,12.9,12.9,0,0,1-5.87-3,10.19,10.19,0,0,1-3.12-5,21.21,21.21,0,0,1-.83-6.11V369c.12-.84.24-3.71.48-8.62L232,335h-8.74c.12-2.4.36-6.35.48-11.74H233c.24-2.39.48-6.47.72-12.09l7.18-1.44c1.56-.24,4.44-1,8.75-1.92-.24,5.51-.36,10.66-.48,15.45h15.57c-.36,5.39-.48,9.34-.48,11.74H248.64c-.84,16.52-1.2,26.1-1.2,28.74a15.23,15.23,0,0,0,.84,5.87,5.09,5.09,0,0,0,2.63,3,8.66,8.66,0,0,0,3.84,1,29.42,29.42,0,0,0,3.23-.24C259.06,373,261.09,372.67,263.85,371.83Z" transform="translate(-27.69 -15.84)"/><path class="cls-4" d="M327.68,370.75c-.48,2.4-1.32,6.71-2.28,12.94a108.4,108.4,0,0,1-11.14,1.91,75.62,75.62,0,0,1-9.1.48,58.09,58.09,0,0,1-14.25-1.55,26.37,26.37,0,0,1-11.13-5.87,24.27,24.27,0,0,1-6.95-10.42,35.78,35.78,0,0,1-2.28-12.93,39.74,39.74,0,0,1,2.64-14.49,29.13,29.13,0,0,1,7.3-11.62,28.4,28.4,0,0,1,10.78-6.35,44.45,44.45,0,0,1,12.7-1.79,43.41,43.41,0,0,1,11.85,1.55,22,22,0,0,1,9.46,5,24.28,24.28,0,0,1,5.75,8.51,27.87,27.87,0,0,1,2,11.13,25,25,0,0,1-.6,5.87l-44.67.12c-.12,1.44-.12,2.75-.12,3.59a21.66,21.66,0,0,0,1.32,7.55,15.19,15.19,0,0,0,4.07,5.75,16.91,16.91,0,0,0,6.46,3.47,22.73,22.73,0,0,0,7.31,1.2,50,50,0,0,0,9.1-1,97.06,97.06,0,0,0,11.74-3.12Zm-39.4-24.66,28.5.11a42.55,42.55,0,0,0-.12-4.43,25.36,25.36,0,0,0-.84-3.11,13.81,13.81,0,0,0-1.8-3.23,11.15,11.15,0,0,0-2.51-2.28,14.29,14.29,0,0,0-3.35-1.44,22.43,22.43,0,0,0-4.19-.48,16.8,16.8,0,0,0-4.91.84,14.15,14.15,0,0,0-4.44,2.28,13.21,13.21,0,0,0-3.35,3.47,12.42,12.42,0,0,0-1.79,3.59A26.14,26.14,0,0,0,288.28,346.09Z" transform="translate(-27.69 -15.84)"/><path class="cls-4" d="M391,370.52c-.24,1.67-.48,3.59-1,5.74s-.84,4.67-1.2,7.79a72.39,72.39,0,0,1-17.24,2,49.86,49.86,0,0,1-9.58-.84,30.39,30.39,0,0,1-8.51-3.35,24.28,24.28,0,0,1-11.37-15.45,39.79,39.79,0,0,1-1.56-11.25,44.38,44.38,0,0,1,2.52-14.85,29.38,29.38,0,0,1,7.18-11.5A25.34,25.34,0,0,1,361,322.73a47.57,47.57,0,0,1,12.93-1.67,64.91,64.91,0,0,1,8.15.47q4.31.54,10.06,1.8l.83,13.41a51,51,0,0,0-15.8-3.11,21.54,21.54,0,0,0-7.91,1.44,15.61,15.61,0,0,0-6.35,4.43,18.88,18.88,0,0,0-3.83,6.94,31,31,0,0,0-1.07,8.15,26,26,0,0,0,1.79,10.06,12.81,12.81,0,0,0,6.23,6.58,20.59,20.59,0,0,0,9.94,2.28,37.8,37.8,0,0,0,6.71-.72A53.13,53.13,0,0,0,391,370.52Z" transform="translate(-27.69 -15.84)"/></svg>