<svg id="Capa_1" data-name="Capa 1" xmlns="http://www.w3.org/2000/svg" xmlns:xlink="http://www.w3.org/1999/xlink" viewBox="0 0 365.97 277.41"><defs><style>.cls-1{fill:#0c6b38;}.cls-1,.cls-2{stroke:#1d1d1b;stroke-miterlimit:10;fill-rule:evenodd;}.cls-2{fill:url(#GradientFill_1);}</style><radialGradient id="GradientFill_1" cx="203.96" cy="48.94" r="68.49" gradientUnits="userSpaceOnUse"><stop offset="0" stop-color="#fff"/><stop offset="0.46" stop-color="#009640"/><stop offset="1" stop-color="#1d1d1b"/></radialGradient></defs><path class="cls-1" d="M28.41,98.27S40.72,65.08,65.85,65.08H161V104.9H129.78V98.27ZM161,140.75V262.58H129.78V140.75Zm-42.19,152H302.51c10.73,0,10.87-24.55.07-24.55H246.06V135.06h56.52c10.52-.07,10.52-24.62,0-24.48H118.77c-10.59-.14-10.59,24.41,0,24.48h56.52V268.19H118.77c-10.8,0-10.66,24.55.07,24.55ZM392.94,98.27S380.63,65.08,355.5,65.08H260.32V104.9h31.25V98.27ZM260.32,140.75h31.25V262.58H260.32Z" transform="translate(-27.69 -15.84)"/><path class="cls-2" d="M210.71,99.42a41.54,41.54,0,1,0-41.54-41.54A41.58,41.58,0,0,0,210.71,99.42Z" transform="translate(-27.69 -15.84)"/></svg>