<?xml version="1.0" encoding="utf-8"?>
<!-- Generator: Adobe Illustrator 25.2.1, SVG Export Plug-In . SVG Version: 6.00 Build 0)  -->
<svg version="1.1" id="Capa_1" xmlns="http://www.w3.org/2000/svg" xmlns:xlink="http://www.w3.org/1999/xlink" x="0px" y="0px"
	 viewBox="0 0 1303 841.89" style="enable-background:new 0 0 1303 841.89;" xml:space="preserve">
<style type="text/css">
	.st0{fill:#FFFFFF;stroke:#1D1D1B;stroke-width:0.5;stroke-miterlimit:10;}
	.st1{fill:#CC0000;stroke:#1D1D1B;stroke-width:0.5;stroke-miterlimit:10;}
</style>
<g>
	<path class="st0" d="M424.24,226.55l28.05-12.23l0.23,114.36l-50.81-43.24l-49.44,2.91l-37.08,15.27l-34.9,25.06l-13.81,35.28
		v39.26l-2.91,33.44l7.27,28.35l5.82,15.99l39.26,29.81c0,0,34.82,18.18,42.13,17.45c7.31-0.73,57.48,0.02,57.48,0.02
		s59.62,4.34,64.71,3.61s19.63-37.81,19.63-37.81v-93.06l7.27-139.59l36.35-16.72l36.35,35.62l149.04,240.64l10.18-265.36
		l23.99-9.45l29.81,11.63l173.03,274.17l-39.86-317.41l104.56-0.03l-3.64,272.28l-5.82,79.97l-37.08,31.99l-47.26-23.99l-50.16-72.7
		l-48.71-83.69l-37.08-71.89l-18.18-32.72l-2.91,49.44l12.36,118.5l-17.45,84.33l-42.17,26.9l-47.26-51.62L558.01,342.87l-8,49.44
		l3.64,122.14l-10.91,61.8l-64.71,14.54l-78.52-7.27c0,0-122.87-31.19-118.5-29.41c4.36,1.78-54.53-53.47-55.25-52.02
		c-0.73,1.45-10.18-50.16-10.18-50.16l-5.82-68.44l22.54-63.88l63.98-55.25c0,0,55.25-22.54,63.25-22.54
		S424.24,226.55,424.24,226.55z"/>
	<path class="st1" d="M582.81,436c0,0.86,0,1.73,0,2.59c-0.01,34.29,0.11,68.57-0.1,102.86c-0.09,14.68-3.13,28.82-10.44,41.75
		c-9.99,17.67-25.48,27.82-44.98,32.35c-7.42,1.72-14.95,2.38-22.56,2.37c-38.85-0.01-77.71,0.18-116.56-0.11
		c-32.08-0.24-63.15-6.09-92.6-19.15c-41.62-18.46-73.07-47.89-94.04-88.33c-12.05-23.24-19.29-47.97-21.79-74.02
		c-4.72-49.29,5.47-95.11,33.14-136.48c21.22-31.73,50.06-54.33,85.35-68.75c17.98-7.35,36.64-12.25,55.95-14.32
		c11.25-1.21,22.58-1.98,33.88-2.19c20.93-0.4,41.87-0.25,62.81-0.33c0.42,0,0.84,0.05,1.41,0.09c0,16.95,0,33.79,0,50.87
		c-0.96,0-1.8,0-2.65,0c-24.48,0-48.97-0.29-73.45,0.08c-28.02,0.43-54.52,7.03-78.58,21.84c-31.31,19.28-51.2,47.28-61.89,82.1
		c-3.27,10.65-5.59,21.54-6.1,32.7c-0.39,8.62-1.01,17.33-0.33,25.9c2.96,37.19,16.49,69.84,43.27,96.37
		c17.28,17.12,37.95,28.52,61.29,35.23c12.26,3.53,24.72,5.79,37.46,6.43c4.75,0.24,9.51,0.49,14.27,0.5
		c39.29,0.04,78.58-0.16,117.86,0.12c13.69,0.1,25.19-10,27.53-21.7c0.46-2.31,0.68-4.7,0.68-7.06
		c0.03-81.49,0.02-162.99,0.06-244.48c0-2.05,0.22-4.19,0.81-6.15c2.21-7.35,10.26-9.52,15.92-4.33c1.1,1.01,2.03,2.26,2.82,3.53
		c31.89,51.3,63.72,102.63,95.63,153.91c23.77,38.2,47.62,76.35,71.47,114.51c3.05,4.88,7.1,8.7,12.51,10.89
		c9.27,3.76,18.87,0.89,24.57-7.35c3.5-5.06,5.06-10.72,5.06-16.85c-0.01-82.5-0.01-165.01,0.02-247.51c0-1.86,0.16-3.76,0.57-5.57
		c0.89-3.94,3.16-6.89,7.22-7.77c4.32-0.94,8.07,0.51,10.68,4.09c2.2,3.02,4.11,6.25,6.09,9.43
		c40.18,64.54,80.34,129.09,120.52,193.63c14.15,22.73,28.21,45.52,42.55,68.14c4.69,7.39,11.86,11.58,20.73,11.1
		c10.41-0.56,16.76-6.89,19.82-16.53c0.94-2.96,1.38-6.21,1.39-9.33c0.07-101.92,0.06-203.84,0.06-305.76c0-6.85,0-13.69,0-20.76
		c16.91,0,33.67,0,50.64,0c0,0.82,0,1.59,0,2.37c0,110.22,0,220.44,0,330.67c0,14.12-2.27,27.75-9.06,40.31
		c-10.25,18.99-26.23,30.49-47.44,33.61c-31.71,4.66-57.36-7.19-77.44-31.35c-6.13-7.38-10.92-15.93-15.92-24.18
		c-25.84-42.62-51.55-85.32-77.31-127.99c-0.4-0.66-0.84-1.31-1.8-1.92c0,0.87,0,1.74,0,2.61c0,35.66-0.03,71.32,0.02,106.97
		c0.02,12.59-1.31,24.94-6.37,36.6c-9.64,22.18-26.49,35.6-50.33,39.31c-27.27,4.24-50.41-4.94-70.14-23.63
		c-8.11-7.68-13.88-17.09-19.6-26.56c-26.96-44.64-54-89.23-81.01-133.83c-0.36-0.59-0.78-1.14-1.17-1.71
		C583.09,435.88,582.95,435.94,582.81,436z"/>
	<path class="st1" d="M452.51,278.25c0,16.86,0,33.49,0,50.42c-1.04,0-1.96,0-2.87,0c-22.68,0.02-45.36-0.1-68.03,0.09
		c-20.96,0.17-40.18,5.96-56.67,19.25c-17.31,13.95-27.45,32.21-31.18,54.02c-3.05,17.83-0.95,35.07,6.77,51.48
		c8.9,18.93,23.4,32.09,42.44,40.39c11.95,5.21,24.52,8.32,37.52,8.58c24.76,0.49,49.53,0.38,74.3,0.49c0.85,0,1.72-0.17,2.56-0.37
		c5.89-1.39,10-6.41,10.19-12.42c0.03-1.01,0.02-2.02,0.02-3.03c0-66.19-0.02-132.38,0.01-198.58c0.01-16.72,4.17-32.25,13.98-45.99
		c20.12-28.19,56.3-37.55,87.63-22.8c16.54,7.79,29.48,19.78,39.36,34.89c7.93,12.12,15.04,24.78,22.32,37.31
		c21.32,36.65,42.56,73.36,63.83,110.05c0.41,0.71,0.87,1.4,1.81,2c0-0.89,0-1.79,0-2.68c0-37.39,0.02-74.78-0.01-112.17
		c-0.01-17.92,4.47-34.46,15.63-48.71c14.4-18.38,33.46-27.8,56.85-27.51c17.18,0.21,32.34,6.56,45.8,17.07
		c12.07,9.42,21.33,21.22,29,34.37c26.73,45.84,53.49,91.67,80.24,137.5c0.49,0.84,1.04,1.64,1.99,2.32c0-63.17,0-126.35,0-189.65
		c16.96,0,33.67,0,50.67,0c0,0.88,0,1.65,0,2.42c0,108.13,0,216.26-0.07,324.39c0,2.46-0.45,5.05-1.33,7.34
		c-2.11,5.51-8.4,7.06-12.94,3.31c-1.47-1.22-2.8-2.75-3.81-4.37c-24.58-39.39-49.15-78.79-73.65-118.23
		c-30.96-49.84-61.82-99.75-92.81-149.57c-3.86-6.21-9.2-10.94-16.65-12.45c-11.07-2.24-20.74,2.88-25.34,13.25
		c-1.89,4.27-2.65,8.76-2.65,13.42c0.01,82,0.02,164-0.04,246c0,2.82-0.34,5.79-1.25,8.44c-1.95,5.7-7.76,7.31-12.52,3.62
		c-1.56-1.21-2.94-2.8-3.99-4.48c-20.98-33.58-41.93-67.18-62.82-100.82c-34.68-55.84-69.28-111.73-104-167.54
		c-5.41-8.7-13.36-13.3-23.78-12.29c-8.59,0.83-14.25,6.02-17.82,13.62c-1.96,4.16-2.63,8.59-2.62,13.2
		c0.03,81.49,0.02,162.98,0.02,244.48c0,7.19-4.21,12.78-11.07,14.61c-1.09,0.29-2.27,0.33-3.41,0.33
		c-42.54,0-85.09,0.63-127.61-0.25c-32.98-0.69-63.22-10.67-88.73-32.48c-19.91-17.02-32.76-38.57-39.91-63.62
		c-2.52-8.84-4.02-17.86-4.88-27.03c-1.09-11.75-0.74-23.42,0.89-35.09c3.3-23.63,11.53-45.31,25.82-64.47
		c17.73-23.79,41.22-39.21,69.85-46.83c8.61-2.29,17.36-3.9,26.27-4.38c6.26-0.34,12.53-0.76,18.79-0.79
		c21.74-0.1,43.48-0.04,65.22-0.04C450.7,278.25,451.55,278.25,452.51,278.25z"/>
</g>
</svg>
