<svg id="Capa_1" data-name="Capa 1" xmlns="http://www.w3.org/2000/svg" viewBox="0 0 130.09 148.68"><defs><style>.cls-1{fill:#fff;}</style></defs><path d="M113.25,55.2h-4.61V27.47H29.72v102h78.85V97.18h4.61c0,.47.07,1,.07,1.49q0,22.22,0,44.43a9.27,9.27,0,0,1-9.65,9.72q-34.48,0-69,0A9.27,9.27,0,0,1,25,143.11q0-64.68,0-129.35a9.27,9.27,0,0,1,9.63-9.6q34.47,0,69,0a9.28,9.28,0,0,1,9.68,9.69q0,19.89,0,39.78ZM29.64,22.61h79V14.67c0-4.22-1.66-5.87-5.89-5.87H35.52c-.53,0-1.06,0-1.59,0a4.58,4.58,0,0,0-4.26,4.23C29.56,16.2,29.64,19.34,29.64,22.61Zm0,111.68v8.52c0,3.52,1.84,5.37,5.38,5.37h68.93a4.68,4.68,0,0,0,4.66-4.76c0-2,0-4.06,0-6.09v-3Z" transform="translate(-24.97 -4.15)"/><path d="M87.64,107c-2,.11-3.45-1.11-4.93-2.19a2.62,2.62,0,0,0-4.34,1.86c-.09.62-.18,1.24-.28,1.86a5.49,5.49,0,0,1-5.49,4.82c-2.32,0-4.65,0-7,0a5.45,5.45,0,0,1-5.49-4.81c-.11-.62-.19-1.24-.28-1.86-.33-2.35-2-3-3.9-1.56-.58.44-1.14.9-1.75,1.29a5.44,5.44,0,0,1-6.84-.46q-2.74-2.49-5.28-5.19a5.28,5.28,0,0,1-.51-6.92,12.13,12.13,0,0,1,1.1-1.53,2.43,2.43,0,0,0,.4-3.11c-.45-.9-.89-1.4-1.9-1.42a17.55,17.55,0,0,1-1.87-.27,5.44,5.44,0,0,1-5-5.71c0-2.23,0-4.45,0-6.68a5.42,5.42,0,0,1,4.84-5.59L41,69.23c2.28-.32,3-2,1.56-3.83-.46-.62-1-1.22-1.38-1.86a5.24,5.24,0,0,1,.42-6.7c1.72-1.9,3.51-3.74,5.39-5.48,2.35-2.16,4.35-2.19,6.9-.34l1.3.93c1.65,1.21,2.23,1.25,4,.13a1.64,1.64,0,0,0,.57-.91c.16-.66.21-1.34.31-2,.57-3.83,2.49-5.51,6.32-5.52,2,0,4.07,0,6.1,0a5.42,5.42,0,0,1,5.63,5c.09.57.19,1.14.27,1.72.31,2.26,2,3,3.8,1.62.58-.44,1.14-.9,1.74-1.31a5.53,5.53,0,0,1,7.08.5c1.74,1.6,3.43,3.27,5.07,5a5.34,5.34,0,0,1,.58,7,7.62,7.62,0,0,1-.94,1.29A2.47,2.47,0,0,0,95.32,68a3,3,0,0,0,1.46,1.1c1.06.31,2.2.32,3.26.62a5.1,5.1,0,0,1,3.84,4.89c.08,2.47.11,4.94.07,7.41a5.46,5.46,0,0,1-4.75,5.4c-.67.11-1.34.19-2,.29-2.19.32-2.91,2-1.59,3.74,3.46,4.58,3.34,6.39-.69,10.47a36,36,0,0,1-3.4,3.37,25.37,25.37,0,0,1-3.7,2Zm5.43-47a6.65,6.65,0,0,0-.68-.92C91,57.68,89.61,56.36,88.27,55a1.44,1.44,0,0,0-2.26-.1c-1.2,1-2.48,1.86-3.67,2.84a1.59,1.59,0,0,1-2,.17c-1.62-.75-3.33-1.3-4.94-2.07a2.3,2.3,0,0,1-1.14-1.35c-.36-1.6-.56-3.24-.77-4.87-.11-.86-.46-1.31-1.38-1.3-2,0-4.06,0-6.09,0a1.18,1.18,0,0,0-1.35,1.17c-.21,1.63-.53,3.25-.7,4.88a1.67,1.67,0,0,1-1.35,1.59,40.68,40.68,0,0,0-5.19,2.18,1.7,1.7,0,0,1-2.09-.19c-1.25-1-2.58-1.87-3.85-2.85a1.25,1.25,0,0,0-1.9.16c-1.37,1.43-2.75,2.86-4.16,4.25a1.22,1.22,0,0,0-.14,1.89c1,1.33,2.11,2.65,3,4.06a2.11,2.11,0,0,1,.14,1.64c-.61,1.72-1.42,3.38-2,5.11a1.47,1.47,0,0,1-1.39,1.19c-1.63.18-3.25.51-4.88.7a1.27,1.27,0,0,0-1.31,1.51c0,1.93,0,3.87,0,5.8,0,1.06.43,1.45,1.43,1.57a44.06,44.06,0,0,1,4.87.77,2.09,2.09,0,0,1,1.23,1.09c.83,1.79,1.48,3.66,2.34,5.43a1.48,1.48,0,0,1-.12,1.82c-1,1.31-1.93,2.67-2.93,4a1.28,1.28,0,0,0,.17,2Q48,100,50,102.09a1.31,1.31,0,0,0,2,.13c1.29-1,2.58-2,3.95-3a2.14,2.14,0,0,1,1.65-.17c1.77.62,3.52,1.33,5.23,2.11a1.92,1.92,0,0,1,1,1.14,40.39,40.39,0,0,1,.76,4.87c.11,1.21.69,1.53,1.8,1.5,1.79-.07,3.58-.06,5.37,0,1,0,1.61-.27,1.73-1.42a42,42,0,0,1,.76-4.86,2.14,2.14,0,0,1,1.09-1.24c1.79-.84,3.61-1.61,5.47-2.29a2.33,2.33,0,0,1,1.78.11c1.39.87,2.69,1.89,4,2.89a1.25,1.25,0,0,0,1.91-.1c1.41-1.46,2.82-2.92,4.26-4.35a1.17,1.17,0,0,0,.1-1.78c-1-1.34-2.12-2.65-3-4.07a2.27,2.27,0,0,1-.12-1.76c.61-1.77,1.32-3.51,2.09-5.22a1.75,1.75,0,0,1,1.07-.89c1.66-.33,3.33-.6,5-.79,1-.11,1.43-.5,1.39-1.56-.07-1.93,0-3.87,0-5.8A1.28,1.28,0,0,0,98,74.06c-1.63-.2-3.25-.52-4.88-.71a1.47,1.47,0,0,1-1.39-1.18c-.67-1.85-1.56-3.63-2.23-5.49a2.29,2.29,0,0,1,.15-1.76c.84-1.35,1.85-2.59,2.78-3.89C92.65,60.73,92.83,60.38,93.07,60Z" transform="translate(-24.97 -4.15)"/><path d="M134.19,78.49H116.65a11.41,11.41,0,0,1-1.31,0,2.31,2.31,0,0,1,0-4.59,9.33,9.33,0,0,1,1.3,0h35.1a11.27,11.27,0,0,1,1.16,0,2.3,2.3,0,0,1,0,4.6,16.79,16.79,0,0,1-1.74,0Z" transform="translate(-24.97 -4.15)"/><path d="M125,59.91h13.19c1.87,0,2.89.82,2.91,2.28s-1,2.35-2.85,2.35H111.45c-1.83,0-2.86-.88-2.84-2.35s1-2.28,2.92-2.28Z" transform="translate(-24.97 -4.15)"/><path d="M124.94,87.78c4.49,0,9,0,13.48,0,1.71,0,2.72.91,2.7,2.34s-1,2.29-2.76,2.29q-13.5,0-27,0c-1.74,0-2.74-.85-2.77-2.28s1-2.32,2.71-2.33c4.54,0,9.08,0,13.62,0Z" transform="translate(-24.97 -4.15)"/><path class="cls-1" d="M29.64,22.61c0-3.27-.08-6.41,0-9.55a4.58,4.58,0,0,1,4.26-4.23c.53-.05,1.06,0,1.59,0h67.2c4.23,0,5.88,1.65,5.89,5.87v7.94ZM69.1,13.44c-2.9,0-5.8,0-8.69,0-1.86,0-2.89.83-2.9,2.29s1,2.34,2.85,2.35q8.76,0,17.53,0c1.83,0,2.86-.89,2.83-2.36s-1-2.26-2.78-2.27C75,13.43,72.05,13.44,69.1,13.44Z" transform="translate(-24.97 -4.15)"/><path class="cls-1" d="M29.62,134.29h79v3c0,2,0,4.06,0,6.09a4.68,4.68,0,0,1-4.66,4.76H35c-3.54,0-5.36-1.85-5.38-5.37v-8.52Zm39.54,9.25c3.72,0,7.44,0,11.16,0,1.73,0,2.73-.89,2.72-2.33s-1-2.3-2.74-2.31H58c-1.76,0-2.75.84-2.79,2.26s1,2.37,2.81,2.38C61.72,143.55,65.44,143.54,69.16,143.54Z" transform="translate(-24.97 -4.15)"/><path class="cls-1" d="M93.07,60c-.24.41-.42.76-.64,1.06-.93,1.3-1.94,2.54-2.78,3.89a2.29,2.29,0,0,0-.15,1.76c.67,1.86,1.56,3.64,2.23,5.49a1.47,1.47,0,0,0,1.39,1.18c1.63.19,3.25.51,4.88.71a1.28,1.28,0,0,1,1.32,1.51c0,1.93-.07,3.87,0,5.8,0,1.06-.38,1.45-1.39,1.56-1.68.19-3.35.46-5,.79a1.75,1.75,0,0,0-1.07.89c-.77,1.71-1.48,3.45-2.09,5.22a2.27,2.27,0,0,0,.12,1.76c.92,1.42,2,2.73,3,4.07a1.17,1.17,0,0,1-.1,1.78c-1.44,1.43-2.85,2.89-4.26,4.35a1.25,1.25,0,0,1-1.91.1c-1.3-1-2.6-2-4-2.89a2.33,2.33,0,0,0-1.78-.11c-1.86.68-3.68,1.45-5.47,2.29a2.14,2.14,0,0,0-1.09,1.24,42,42,0,0,0-.76,4.86c-.12,1.15-.68,1.45-1.73,1.42-1.79,0-3.58-.06-5.37,0-1.11,0-1.69-.29-1.8-1.5a40.39,40.39,0,0,0-.76-4.87,1.92,1.92,0,0,0-1-1.14c-1.71-.78-3.46-1.49-5.23-2.11a2.14,2.14,0,0,0-1.65.17c-1.37.91-2.66,1.94-3.95,3a1.31,1.31,0,0,1-2-.13Q48,100,45.89,98a1.28,1.28,0,0,1-.17-2c1-1.3,1.92-2.66,2.93-4a1.48,1.48,0,0,0,.12-1.82c-.86-1.77-1.51-3.64-2.34-5.43a2.09,2.09,0,0,0-1.23-1.09,44.06,44.06,0,0,0-4.87-.77c-1-.12-1.45-.51-1.43-1.57.05-1.93.05-3.87,0-5.8a1.27,1.27,0,0,1,1.31-1.51c1.63-.19,3.25-.52,4.88-.7a1.47,1.47,0,0,0,1.39-1.19c.6-1.73,1.41-3.39,2-5.11a2.11,2.11,0,0,0-.14-1.64c-.93-1.41-2-2.73-3-4.06a1.22,1.22,0,0,1,.14-1.89c1.41-1.39,2.79-2.82,4.16-4.25a1.25,1.25,0,0,1,1.9-.16c1.27,1,2.6,1.87,3.85,2.85a1.7,1.7,0,0,0,2.09.19,40.68,40.68,0,0,1,5.19-2.18A1.67,1.67,0,0,0,64,54.33c.17-1.63.49-3.25.7-4.88a1.18,1.18,0,0,1,1.35-1.17c2,0,4.06,0,6.09,0,.92,0,1.27.44,1.38,1.3.21,1.63.41,3.27.77,4.87a2.3,2.3,0,0,0,1.14,1.35c1.61.77,3.32,1.32,4.94,2.07a1.59,1.59,0,0,0,2-.17c1.19-1,2.47-1.87,3.67-2.84a1.44,1.44,0,0,1,2.26.1c1.34,1.4,2.76,2.72,4.12,4.09A6.65,6.65,0,0,1,93.07,60ZM83.55,78.62A14.45,14.45,0,1,0,69,92.94,14.48,14.48,0,0,0,83.55,78.62Z" transform="translate(-24.97 -4.15)"/><path d="M69.1,13.44c3,0,5.89,0,8.84,0,1.75,0,2.75.84,2.78,2.27s-1,2.36-2.83,2.36q-8.76,0-17.53,0c-1.84,0-2.87-.87-2.85-2.35s1-2.29,2.9-2.29C63.3,13.43,66.2,13.44,69.1,13.44Z" transform="translate(-24.97 -4.15)"/><path d="M69.16,143.54c-3.72,0-7.44,0-11.16,0-1.82,0-2.86-.9-2.81-2.38s1-2.25,2.79-2.26H80.3c1.74,0,2.73.88,2.74,2.31s-1,2.32-2.72,2.33C76.6,143.55,72.88,143.54,69.16,143.54Z" transform="translate(-24.97 -4.15)"/><path d="M83.55,78.62A14.45,14.45,0,1,1,69.28,64,14.5,14.5,0,0,1,83.55,78.62Zm-4.66-.15a9.78,9.78,0,1,0-9.48,9.81A9.87,9.87,0,0,0,78.89,78.47Z" transform="translate(-24.97 -4.15)"/><path class="cls-1" d="M78.89,78.47A9.78,9.78,0,1,1,69,68.71,9.88,9.88,0,0,1,78.89,78.47Z" transform="translate(-24.97 -4.15)"/></svg>