<svg id="Capa_1" data-name="Capa 1" xmlns="http://www.w3.org/2000/svg" viewBox="0 0 160.76 133.34"><path d="M113.59,12.82c1.7.36,3.42.65,5.1,1.09,10.9,2.89,17.4,10.4,18.62,21.57.27,2.47.32,5,.5,8-.89-.44-1.34-.63-1.75-.88-6.95-4.35-13.82-8.81-20.86-13-4.21-2.5-10.62-1.54-14.45,1.71-4.52,3.84-6.13,9.19-4.37,14.49a13.52,13.52,0,0,0,11.71,9.15,7.2,7.2,0,0,0,2.62,0c4.05-1.45,6.94.6,9.63,3.11,3.19,3,6.22,6.16,9.39,9.17,1.76,1.67,2,3.39,1,5.58-3.36,7.15-6.92,14.14-12.63,19.81-16,15.91-31.9,32-48,47.74a21.3,21.3,0,0,1-29.45-.11Q25.09,125,10,109.46a21,21,0,0,1,0-28.89C26.49,63.67,43,46.7,60.2,30.42c9.22-8.74,21.24-12.86,33.57-15.66,3.29-.74,6.63-1.29,10-1.94ZM75,94.46c-8-4.4-15.87-8.6-23.58-13.16-3.07-1.81-5-1.46-6.66,1.85,4.88,8.74,9.85,17.66,14.85,26.63,3.62-2.47,3.62-2.47,1.92-5.61-3-5.64-3-5.64,1.79-10a4.05,4.05,0,0,1,.71-.45,50.45,50.45,0,0,1,5.39,2.82C71.93,98.24,73.43,97.28,75,94.46Zm-.59-34.85,6.82-7.21-2.73-2.57L68.64,59.3,89.49,80.44,100,70l-3.35-2.78-7,6.65L83.12,68l6.2-6.62-3.06-2.85-6.51,6.14Zm-30.08,58c1.25,3.92,2.07,4.29,5.32,2.5,4.74-2.6,6.85-7.23,5.19-11.4-1.9-4.76-6.5-6.93-11.86-5.6-1.59.4-3.24,1.19-4.75,1a5.48,5.48,0,0,1-3.8-2.29c-.47-.92.29-2.88,1.09-3.93s2.4-1.73,3.91-2.74l-1.76-3.32c-5.88,1.51-9,5.95-7.84,10.75s5.63,7.32,11.33,6.09c1.38-.3,2.84-1.29,4.07-1,1.83.38,4,1.16,5.08,2.53,1.48,1.94.16,4-1.73,5.26A39.86,39.86,0,0,1,44.34,117.65Zm32.57-31L59.31,68.27l-3.37,3L57.05,71,77.13,92.29l10.18-10-2.42-3.19Z" transform="translate(-4.18 -12.82)"/><path d="M164.94,110.8a3.35,3.35,0,0,0-.4.89c-1.58,11.55-13.16,15.37-22.93,10.14-7.4-4-16-13.53-20.7-23.22l6.82-8.5,1.86,3.09c3.85,6.4,7.76,12.76,13.86,17.34,2.52,1.89,5.35,4.41,8.56,2.8s2.9-5.4,2.29-8.29c-1.2-5.62-2.47-11.36-4.74-16.6-6-13.85-14.46-26-26.34-35.55-4.33-3.47-9-6.07-14.8-6.5-2.81-.21-4.23-2.16-4.15-5s1.86-5.21,4.64-4.87a42.55,42.55,0,0,1,12.85,3.26c9,4.26,15.83,11.31,21.91,19,9.24,11.7,16.71,24.35,20.25,39,.36,1.47.68,2.94,1,4.41Z" transform="translate(-4.18 -12.82)"/><path d="M52.42,86.91l7.43,4.19-3.47,4.12-4.46-7.94Z" transform="translate(-4.18 -12.82)"/></svg>