<svg id="Capa_1" data-name="Capa 1" xmlns="http://www.w3.org/2000/svg" viewBox="0 0 149.54 151.3"><path d="M107.51,3.85c1.51.18,3,.34,4.52.55a54.3,54.3,0,0,1,37.12,21.9A53.51,53.51,0,0,1,159.8,65.21a54,54,0,0,1-17.4,34.72,53.61,53.61,0,0,1-19.59,11.75,2.31,2.31,0,0,0-1.78,2.17c-.36,2.53-1,5-1.36,7.54-.17,1-.59,1.34-1.64,1.34q-20.7,0-41.4,0c-11.53,0-23.07,0-34.6,0-1.36,0-1.84-.42-2.16-1.7-4.52-17.87-9.11-35.72-13.63-53.59-.28-1.11-.76-1.34-1.8-1.33-4.57,0-9.15,0-13.84,0v-10h6.64c5,0,10.05,0,15.08,0,1,0,1.44.24,1.69,1.29.86,3.68,1.83,7.34,2.82,11,.11.41.6,1,.92,1,4,.07,8.06,0,12.24,0-.24-1.86-.56-3.55-.67-5.25-1.08-16,3.46-30.14,14.24-42.11A54.28,54.28,0,0,1,94,4.91c2.5-.5,5-.72,7.58-1.06Zm9.77,75.7H39.71c.11.47.18.85.28,1.22,2.58,10.14,5.19,20.27,7.73,30.42.29,1.16.72,1.54,2,1.53q29.92-.06,59.85,0h1.52C113.14,101.59,115.19,90.64,117.28,79.55ZM75.92,36c-2.26-.92-4.64-1.83-7-2.87a1.29,1.29,0,0,0-1.91.58,43,43,0,0,0-6,12.6c-.71,2.59-1.21,5.23-1.84,8h14C74.15,48.14,75,42.13,75.92,36Zm73.89,18.29a44.11,44.11,0,0,0-8-21,1.07,1.07,0,0,0-1-.27c-2.55,1-5.08,2.06-7.5,3.07.88,6.1,1.75,12.15,2.64,18.25ZM133.3,82.85c2.26.92,4.63,1.84,7,2.88a1.2,1.2,0,0,0,1.79-.53,42.69,42.69,0,0,0,6.07-12.56c.74-2.65,1.24-5.38,1.87-8.16H136C135.09,70.68,134.2,76.74,133.3,82.85ZM109.7,54.24h16.2c-.78-5.33-1.54-10.49-2.3-15.65l-13.9,1.65Zm-10.17-14L85.67,38.57,83.38,54.23H99.53Zm10.22-24.81V30.16L120.12,29C117.6,23.58,114.84,18.77,109.75,15.42ZM89.16,29l10.36,1.2V15.43C94.4,18.78,91.62,23.6,89.16,29Zm36.46,35.49h-15.9v4.9h15.54ZM84,69.32H99.47V64.49H83.6ZM59.38,64.41l.85,4.93H73.9l-.36-4.93Zm19.9-37.95c1-2.21,2-4.34,3-6.47l-.25-.25L74.9,24.79Zm50.7,0,4.42-1.67-7.19-5L127,20ZM127,99l7.18-5-4.3-1.58c-1,2.08-1.91,4-2.81,5.86A4.17,4.17,0,0,0,127,99Z" transform="translate(-10.6 -3.85)"/><path d="M92.45,135.67H67.15c.19,1.34.43,2.62.54,3.91.86,9.64-9.11,17.66-18.44,15.07s-14.2-13.19-8.88-21.9a13.89,13.89,0,0,1,12.06-7.11c9.9-.17,19.81-.06,29.71-.06q11.82,0,23.65,0c6.39,0,11.29,2.66,14.09,8.44s1.79,11.28-2.31,16.2a14.66,14.66,0,0,1-14.91,4.32c-8-2.43-12.2-9.77-10.31-18A6.55,6.55,0,0,0,92.45,135.67Zm18.9,4.61a4.74,4.74,0,1,0-4.74,4.81A4.71,4.71,0,0,0,111.35,140.28Zm-63.1.08a4.72,4.72,0,0,0,4.8,4.74,4.74,4.74,0,1,0-.15-9.47A4.67,4.67,0,0,0,48.25,140.36Z" transform="translate(-10.6 -3.85)"/></svg>