<svg id="Capa_1" data-name="Capa 1" xmlns="http://www.w3.org/2000/svg" viewBox="0 0 149.23 149.22"><path d="M98.35,52.64v3c1.78,0,3.56,0,5.34,0,2.19,0,3.53,1.19,3.52,3s-1.35,2.95-3.55,3c-4.71,0-9.42,0-14.34,0,0,2.55,0,4.95,0,7.35,0,.37.56.89,1,1.06a10.27,10.27,0,0,1,5.77,5.51,2.34,2.34,0,0,0,1.83,1c6.9.07,13.8,0,20.7,0,5.67,0,9.47,3.81,9.48,9.46,0,3.73,0,7.45,0,11.42h23.34c5.67,0,9.49,3.8,9.49,9.45q0,14.44,0,28.9a9,9,0,0,1-9.37,9.39l-14,0c-.11,0-.22.09-.42.17v2.78c1.74,0,3.52,0,5.3,0,2.2,0,3.54,1.16,3.54,3s-1.33,3-3.51,3q-17.36,0-34.69,0c-2.21,0-3.54-1.15-3.55-3s1.32-3,3.51-3c1.73,0,3.47,0,5.31,0v-3H99.47c-6.6,0-10.16-3.53-10.16-10.1q0-14.07,0-28.15c0-5.68,3.79-9.49,9.45-9.49h23.31c0-4.22.11-8.36,0-12.49a2.61,2.61,0,0,0-2.87-2.4q-10.92-.06-21.82,0a1.61,1.61,0,0,0-1.21.8c-1.92,4.42-5.4,6.38-10,6.31a9.89,9.89,0,0,1-9.73-6.76,3.16,3.16,0,0,0-.28-.38c-7.46,0-15,0-22.5,0a2.86,2.86,0,0,0-3,3.08c-.06,3.85,0,7.69,0,11.81H74a9,9,0,0,1,9.33,9.24q0,14.63,0,29.27a9,9,0,0,1-9.16,9.22c-4.84,0-9.67,0-14.61,0v3c1.72,0,3.49,0,5.27,0,2.21,0,3.54,1.14,3.57,2.94s-1.32,3-3.5,3q-17.34,0-34.69,0c-2.22,0-3.54-1.13-3.57-2.94s1.31-3,3.49-3c1.73,0,3.47,0,5.33,0v-3H21a9,9,0,0,1-9.08-7.29,11,11,0,0,1-.16-2.23q0-14.35,0-28.71c0-5.76,3.79-9.51,9.61-9.51H44.55V95.19c0-3.24,0-6.47,0-9.7a8.94,8.94,0,0,1,9-9c7.52,0,15,0,22.64,0a10.14,10.14,0,0,1,7-6.85V61.6H70.37c-.68,0-1.37,0-2.05,0a3,3,0,0,1-2.87-3.06,2.92,2.92,0,0,1,2.89-2.85c1.92-.08,3.84,0,5.91,0V52.72c-.56,0-1.16-.07-1.76-.07-4.35,0-8.7,0-13.06,0a8.92,8.92,0,0,1-8.9-8.91q-.06-15,0-30a8.87,8.87,0,0,1,8.81-8.8q27,0,53.9,0a8.89,8.89,0,0,1,8.89,8.91q.06,14.91,0,29.84a9,9,0,0,1-9,9c-4.28,0-8.57,0-12.86,0Zm-12-6h25.93c2.92,0,3.91-1,3.91-3.92q0-14,0-28c0-2.92-1-3.91-3.92-3.91H60.4c-2.92,0-3.91,1-3.91,3.92q0,14,0,28c0,2.92,1,3.91,3.91,3.91Zm-39,92.5H73.46c2.92,0,3.91-1,3.91-3.92q0-14,0-28c0-2.92-1-3.91-3.91-3.92H21.6c-2.92,0-3.91,1-3.91,3.92q0,14,0,28c0,2.93,1,3.92,3.91,3.92Zm77.6,0h26.12c2.92,0,3.91-1,3.91-3.92q0-14,0-28c0-2.92-1-3.91-3.92-3.92H99.2c-2.92,0-3.91,1-3.91,3.92q0,14,0,28c0,2.92,1,3.91,3.92,3.91ZM86.25,83.68c2.72,0,4.49-1.55,4.55-4.05s-1.62-4.24-4.3-4.3-4.62,1.54-4.64,4.13S83.55,83.64,86.25,83.68Zm6-28.12V52.75H80.48v2.81Zm-38.74,89.7H41.7V148H53.47ZM119.19,148H131v-2.74H119.19Z" transform="translate(-11.71 -4.89)"/></svg>