<svg id="Capa_1" data-name="Capa 1" xmlns="http://www.w3.org/2000/svg" viewBox="0 0 145.3 145.32"><defs><style>.cls-1{fill:#fff;}</style></defs><path d="M79.73,5.8h9.08a8.61,8.61,0,0,0,1.1.23,66.64,66.64,0,0,1,23.25,5.76c23.4,10.77,37.71,28.8,42.65,54.14.51,2.63.75,5.32,1.11,8V83a8.37,8.37,0,0,0-.24,1.08,66.14,66.14,0,0,1-3.11,16.08c-1,3.17-2.29,6.27-3.48,9.51,1.07.54,2.17,1.17,3.34,1.66a5.68,5.68,0,0,1,3.49,3.45v2a37.38,37.38,0,0,1-2.72,3.16c-1.51,1.42-3.15,2.7-4.83,4.11.39.5.73.94,1.09,1.37,1.69,2,3.41,4,5.08,6.1A4.3,4.3,0,0,1,155,138q-6.94,5.85-13.91,11.67c-2.56,2.14-4.85,1.9-7-.67-2-2.36-3.93-4.71-6-7.16-2,1.7-4,3.35-5.93,4.95a4,4,0,0,1-5.22.32,15.38,15.38,0,0,1-2.2-2.7l-.78.34a72,72,0,0,1-35.1,6.11c-18.18-1.41-33.86-8.5-46.46-21.63-18-18.72-24.21-41.1-19.07-66.47C19.09,34.53,43.22,11.55,71.61,6.92,74.31,6.48,77,6.17,79.73,5.8Zm65.18,110.84-32.15-15.72c3.06,11.9,6,23.42,9,35.11l3.58-3c2.63-2.18,4.89-2,7.09.68,2,2.35,3.92,4.69,5.94,7.11l8.14-6.85c-2.1-2.52-4.11-4.91-6.09-7.31s-1.8-4.77.6-6.79Zm-99.3-42.5,3.17-25.49h-1c-6.33,0-12.66,0-19,0a1.83,1.83,0,0,0-1.91,1.23,63.13,63.13,0,0,0-5.53,16.3c-.49,2.61-.75,5.26-1.13,8Zm3.17,34.11c-1.06-8.55-2.11-17-3.16-25.43H20.4c-.08,6.56,3.35,19.12,6.79,24.74a2,2,0,0,0,1.48.66c5.76,0,11.53,0,17.29,0Zm99.37-34.12c0-.44,0-.77,0-1.1a63.64,63.64,0,0,0-6.65-23.55,1.43,1.43,0,0,0-1.57-.84c-6.47,0-12.94,0-19.41,0a5.25,5.25,0,0,0-.73.07c1,8.51,2.08,16.92,3.13,25.41Zm-93.59,0H79.9V48.74H58A119.79,119.79,0,0,0,54.56,74.09Zm0,8.68A119.71,119.71,0,0,0,58,108.14h22V82.77Zm56-34h-22V74.08H114A119.3,119.3,0,0,0,110.57,48.75Zm-4.73,59.45c-1.21-4.7-2.37-9.22-3.51-13.74a4.2,4.2,0,0,1,1.6-4.89,4.25,4.25,0,0,1,4.56-.22c1.58.77,3.18,1.53,5,2.38l.58-8.94H88.63V108.2Zm42.27-25.43H122.63c-.31,3.83-.52,7.6-1,11.34a2,2,0,0,0,1.41,2.41c3.13,1.44,6.21,3,9.3,4.52l9.76,4.75C145.05,101.16,148.37,88.37,148.11,82.77ZM79.94,15.23c-6.89,1.49-18.07,16-19.14,24.83H79.94Zm8.66,126.5c8.28-2.25,16.43-15.24,19.13-24.9H88.6Zm0-126.61V40h19.51c-1.5-3.29-2.8-6.43-4.34-9.44A38.46,38.46,0,0,0,95,18.89,18,18,0,0,0,88.63,15.12ZM80,116.83H60.4c1.5,3.28,2.78,6.42,4.33,9.42,2.64,5.12,5.92,9.8,10.71,13.19,1.36,1,2.89,1.65,4.54,2.58Zm26.29-98.48A77.49,77.49,0,0,1,117,40H135.6A63.3,63.3,0,0,0,106.27,18.35ZM51.57,40.07A77.25,77.25,0,0,1,62.29,18.34,63.37,63.37,0,0,0,32.92,40.07Zm10.71,98.47a77,77,0,0,1-10.7-21.68H32.94A63.46,63.46,0,0,0,62.28,138.54ZM113,135.9l-1.46-5.6L106,138.86Z" transform="translate(-11.62 -5.8)"/><path class="cls-1" d="M156.92,114.77a5.68,5.68,0,0,0-3.49-3.45c-1.17-.49-2.27-1.12-3.34-1.66,1.19-3.24,2.44-6.34,3.48-9.51a66.14,66.14,0,0,0,3.11-16.08,8.37,8.37,0,0,1,.24-1.08Z" transform="translate(-11.62 -5.8)"/><path class="cls-1" d="M148.15,74.13H122.92c-1-8.49-2.08-16.9-3.13-25.41a5.25,5.25,0,0,1,.73-.07c6.47,0,12.94,0,19.41,0a1.43,1.43,0,0,1,1.57.84A63.64,63.64,0,0,1,148.15,73C148.18,73.36,148.15,73.69,148.15,74.13Z" transform="translate(-11.62 -5.8)"/><path class="cls-1" d="M79.94,15.23V40.06H60.8C61.87,31.25,73.05,16.72,79.94,15.23Z" transform="translate(-11.62 -5.8)"/></svg>