<?xml version="1.0" encoding="utf-8"?>
<!-- Generator: Adobe Illustrator 25.2.1, SVG Export Plug-In . SVG Version: 6.00 Build 0)  -->
<svg version="1.1" xmlns="http://www.w3.org/2000/svg" xmlns:xlink="http://www.w3.org/1999/xlink" x="0px" y="0px"
	 viewBox="0 0 595.28 841.89" style="enable-background:new 0 0 595.28 841.89;" xml:space="preserve">
<style type="text/css">
	.st0{fill:#FAB719;}
	.st1{fill:#FFFFFF;}
	.st2{fill:#078A4B;}
	.st3{fill:#3E281D;}
	.st4{fill:#E95254;}
	.st5{fill:#FCD720;}
	.st6{fill:#F9E552;}
	.st7{fill:#FADA38;}
	.st8{fill:#EA5659;}
	.st9{fill:#EBA525;}
	.st10{fill:#F9F7E2;}
	.st11{fill:#B32128;}
	.st12{fill:#FAF3BD;}
	.st13{fill:#FBFAF8;}
	.st14{fill:#F19D2B;}
	.st15{fill:#BF2327;}
	.st16{fill:#E47C29;}
	.st17{fill:#EEB036;}
	.st18{fill:#DA2028;}
	.st19{fill:#DA2128;}
	.st20{fill:#DA2228;}
	.st21{fill:#FAB619;}
	.st22{fill:#DA232A;}
	.st23{fill:#0B512B;}
</style>
<g id="Capa_1">
	<g>
		<g>
			<circle class="st0" cx="223.59" cy="206.41" r="69.06"/>
			<circle class="st1" cx="223.59" cy="206.41" r="63.64"/>
			<circle class="st2" cx="223.59" cy="206.41" r="60.49"/>
		</g>
		<g>
			<path class="st3" d="M173.91,175.52c0.41-0.32,0.56-0.83,0.94-1.18c1.25-1.17,2.84-1.3,4.41-1.46c0.51-0.05,1.02-0.01,1.52-0.01
				c0.01-0.17,0.03-0.24,0.01-0.26c-1.04-1.01-0.97-1.55,0.37-2.14c1.41-0.63,2.95-0.7,4.44-0.68c3.42,0.05,6.48,1.19,9.13,3.37
				c0.32,0.27,0.61,0.77,0.93,0.78c0.29,0.01,0.58-0.53,0.91-0.77c2.44-1.72,5.08-2.63,8.08-1.79c1.39,0.39,2.07,1.55,1.68,2.66
				c-0.15,0.42-0.45,0.69-0.81,0.92c-0.63,0.4-1.34,0.62-2.04,0.86c-0.52,0.17-1.01,0.38-1.48,0.67c-0.3,0.18-0.4,0.29-0.21,0.72
				c0.62,1.37,0.49,2.79-0.01,4.18c-0.1,0.26-0.15,0.49-0.07,0.77c0.98,3.41,2.78,6.24,5.76,8.25c0.53,0.36,1.1,0.66,1.68,0.93
				c0.74,0.34,1.38,0.58,2.12-0.14c0.61-0.59,1.4-0.42,2.06,0.2c0.8,0.75,0.92,0.77,2.09,0.25c-1.2-0.6-2.34-1.22-3.34-2.07
				c-3.37-2.85-5.4-6.4-5.41-10.89c-0.01-2.28,0.82-4.24,2.75-5.62c0.19-0.14,0.31-0.29,0.35-0.53c0.33-1.71,0.8-3.39,1.66-5.03
				c-1.18,0.01-2.26-0.02-3.31-0.29c-1.38-0.35-2.47-1.11-3.24-2.3c-1.08-1.66-0.54-3.52,1.33-4.65c1.54-0.93,3.18-0.94,4.87-0.53
				c2.09,0.5,4.19,0.82,6.3,0.15c0.3-0.09,0.88-0.02,0.63-0.68c-0.01-0.03,0.12-0.17,0.19-0.18c0.7-0.15,0.88-0.76,1.21-1.27
				c1-1.57,2.58-2.4,4.21-3.14c0.86-0.38,1.76-0.64,2.69-0.8c0.24-0.04,0.55,0.03,0.72-0.26c1.04,0,2.08,0,3.12,0
				c1.03,0.37,2.16,0.39,3.17,0.82c0.22,0.09,0.35-0.13,0.53-0.2c0.9-0.35,1.74-0.23,2.53,0.32c0.32,0.23,0.64,0.6,0.54,0.92
				c-0.25,0.81,0.35,1.01,0.79,1.36c3.36,2.63,5.38,6.06,6.07,10.25c0.17,1,0.11,2.03-0.13,3.02c-0.09,0.36-0.07,0.65,0.07,0.99
				c0.33,0.8,0.08,1.25-0.76,1.5c-0.46,0.14-0.63,0.78-0.29,1.13c2.14,2.19,2.42,3.82,1.21,6.72c-1.64,3.91-4.58,6.61-8.08,8.81
				c-1.26,0.79-2.59,1.44-3.97,1.98c-0.12,0.05-0.3,0.05-0.35,0.3c1.7,0.4,3.39,0.78,5.07,1.19c0.26,0.06,0.42-0.1,0.61-0.19
				c0.63-0.29,1.26-0.58,1.97-0.61c0.88-0.04,1.35,0.34,1.3,1.2c-0.03,0.55,0.22,0.64,0.64,0.74c1.9,0.45,3.77,0.99,5.55,1.79
				c0.36,0.16,1.3,0.16,0.56,1.02c-0.14,0.16,0.16,0.17,0.24,0.27c0.22,0.31,0.88,0.4,0.45,1.02c-0.11,0.16,0.18,0.26,0.25,0.41
				c0.14,0.29,0.5,0.54,0.23,0.93c-0.11,0.17,0.03,0.28,0.12,0.38c1.06,1.25,1.63,2.84,2.76,4.04c0.15,0.16,0.25,0.33,0.48,0.42
				c3.36,1.21,6.82,1.56,10.37,1.32c0.31-0.02,0.64-0.13,0.93,0.1c0.14,0.43-0.02,0.83-0.19,1.21c-0.5,1.13-1.37,1.9-2.41,2.52
				c-0.71,0.42-1.49,0.71-2.27,0.98c0.08,0.2,0.22,0.16,0.33,0.19c1.56,0.35,3.13,0.69,4.69,1.03c0,0.15,0,0.3,0,0.45
				c-0.54,0.48-0.94,1.11-1.55,1.53c-2.13,1.48-4.53,1.72-7.02,1.51c-0.27-0.02-0.54-0.06-0.87-0.1c0.15,0.5,0.58,0.69,0.85,1.01
				c0.47,0.57,1.12,1.15,0.79,1.95c-0.3,0.73-1.11,0.84-1.83,0.92c-2.71,0.3-5.21-0.28-7.43-1.89c-0.31-0.22-0.58-0.29-0.95-0.2
				c-1.16,0.3-2.34,0.16-3.58,0.25c0.39,0.22,0.79,0.44,1.18,0.66c0.21,0.12,0.47,0.24,0.46,0.53c0,0.31-0.29,0.38-0.51,0.48
				c-1.55,0.71-3.07,0.55-4.59-0.1c-1.81-0.77-3.19-2.03-4.33-3.6c-0.14-0.19-0.18-0.66-0.49-0.49c-0.33,0.18-0.8,0.38-0.79,0.87
				c0.01,0.52,0.04,1.03-0.17,1.53c-0.13,0.29,0.19,0.35,0.34,0.48c0.12,0.1,0.37,0.13,0.3,0.35c-0.06,0.17-0.24,0.24-0.43,0.24
				c-0.63-0.02-1,0.1-0.56,0.84c0.14,0.23-0.12,0.34-0.35,0.26c-0.65-0.23-0.68,0.14-0.66,0.62c0.06,1.06,0.05,2.12,0.14,3.18
				c0.09,1.03,0.64,1.61,1.41,2.11c1.46,0.97,3.15,1.23,4.82,1.59c1.3,0.28,2.61,0.54,3.78,1.23c1.55,0.92,1.85,2.62,0.72,4.03
				c-0.3,0.37-0.67,0.72-1.17,0.71c-0.54-0.01-0.79,0.21-1.05,0.66c-0.71,1.2-2.29,2.16-4.15,1.07c-0.67-0.39-1.27-0.87-1.79-1.43
				c-1.42-1.51-3.11-2.67-4.78-3.86c-0.17-0.13-0.32-0.38-0.63-0.12c-1.1,0.93-2.42,0.96-3.73,0.76c-0.68-0.1-1.19,0.01-1.71,0.41
				c-1.59,1.19-3.25,2.28-5.22,2.7c-1.8,0.39-3.5,0.18-4.88-1.2c-0.2-0.2-0.42-0.19-0.67-0.22c-1.32-0.18-2.23-0.94-2.69-2.16
				c-0.41-1.08-0.11-2.07,0.73-2.82c0.9-0.81,2.01-0.98,3.19-0.87c1.28,0.13,2.53,0.44,3.83,0.43c1.5-0.01,2.87-0.41,4.16-1.15
				c0.42-0.24,0.62-0.51,0.57-0.99c-0.14-1.25-0.21-2.51-0.42-3.75c-0.09-0.53-0.44-1.03-0.73-1.51c-0.18-0.3-0.43,0-0.65,0.06
				c-0.21,0.06-0.42,0.29-0.62,0.12c-0.21-0.18-0.03-0.44,0.08-0.59c0.21-0.32,0.08-0.44-0.16-0.65c-0.54-0.47-0.89-1.08-0.9-1.8
				c-0.01-0.37-0.19-0.5-0.46-0.67c-2.18-1.4-3.85-3.24-4.87-5.62c-0.15-0.34-0.39-0.46-0.68-0.61c-1.19-0.59-1.97-1.53-2.37-2.8
				c-0.13-0.42-0.09-0.72,0.4-0.84c0.58-0.15,1.03-0.51,1.37-0.97c1.74-2.34,3.18-4.87,4.81-7.49c-0.94,0.26-1.71,0.48-2.49,0.69
				c-0.31,0.08-0.28,0.39-0.38,0.59c-0.44,0.95-1.1,1.67-2.04,2.14c-0.48,0.24-0.83,0.15-1.13-0.3c-0.29-0.44-0.6-0.88-0.67-1.39
				c-0.08-0.51-0.33-0.56-0.75-0.56c-4.32-0.07-8.32-1.28-12.03-3.46c-2.3-1.36-4.18-3.15-5.39-5.57c-0.11-0.22-0.21-0.36-0.47-0.39
				c-2.03-0.24-3.61-1.38-4.74-2.91c-1.49-2.02-3.54-2.7-5.8-3.13c-0.87-0.17-1.75-0.3-2.63-0.46c-0.14-0.03-0.28-0.09-0.42-0.13
				c-0.61-0.18-1.09-0.53-1.22-1.16c-0.14-0.65,0.27-1.12,0.73-1.52c0.38-0.34,0.8-0.63,1.39-0.91c-0.93-0.3-1.75-0.23-2.53-0.37
				c-0.88-0.16-1.64-0.46-2.17-1.22C173.91,176.12,173.91,175.82,173.91,175.52z M252.16,207.46L252.16,207.46
				c0.1,0.16,0.25,0.25,0.45,0.26c0.03,0.04,0.07,0.06,0.11,0.06c1.05,0.94,2.41,1.28,3.62,1.91c0.18,0.09,0.36,0.12,0.57,0.08
				c1.08-0.19,2.12-0.5,3.07-1.03c0.91-0.51,1.74-1.14,2.14-2.17c0.11-0.28,0.12-0.45-0.28-0.44c-1.09,0.02-2.17,0.01-3.26,0.01
				c-1.07-0.11-2.14-0.23-3.21-0.34c-0.44-0.27-0.98-0.07-1.42-0.3l-0.04-0.03l-0.04,0.02c-0.14-0.16-0.31-0.19-0.51-0.12
				c-0.04-0.01-0.09-0.02-0.14-0.02c-0.36-0.33-0.82-0.42-1.31-0.62c0.03,0.3,0.06,0.53,0.09,0.76c-0.09,0.02-0.17,0.04-0.26,0.06
				c-0.13-0.13-0.27-0.26-0.4-0.4l0.01-0.01c-0.92-1.82-2.14-3.4-3.75-4.54c0.02-0.41,0.7-0.04,0.45-0.64
				c-0.29-0.68-1.32-0.93-1.06-1.89c-0.59-0.25-0.31-0.54,0.03-0.8c-0.17-0.1-0.31-0.13-0.39-0.22c-0.28-0.29-1.24-0.01-0.77-0.93
				c0.06-0.12-0.18-0.12-0.28-0.15c-1.8-0.62-3.61-1.2-5.46-1.64c-0.21-0.06-0.42-0.13-0.63-0.19c-2.09-0.55-2.14-0.53-3.27,1.34
				c-0.52,0.85-0.52,0.85,0.39,1.3c0.05,0.03,0.12,0.11,0.18,0.01c-0.12-0.52-0.12-0.52,0.18-0.62c1.43,2.46,3.16,4.72,4.86,7
				c0.28,0.38,0.6,0.75,0.66,1.45c-0.42-0.47-0.75-0.8-1.04-1.16c-0.23-0.27-0.37-0.29-0.62,0.01c-0.81,0.95-1.23,2.06-1.56,3.23
				c-0.06,0.23,0.02,0.35,0.18,0.42c0.42,0.18,0.43,0.17,0.2,0.52c-0.12,0.19-0.26,0.36-0.39,0.54c-0.04,0-0.06,0.02-0.06,0.06
				c-0.39,0.24-0.78,0.48-1.17,0.71c-0.66,0.29-1.33,0.56-1.98,0.88c-0.43,0.21-0.9,0.43-0.86,1.04c0.01,0.88,0.49,1.34,1.63,1.48
				c2.11,0.26,4.13-0.17,6.08-0.92c0.44-0.17,0.88-0.32,1.36-0.3c-0.25,0.28-0.48,0.56,0.15,0.62c0.12,0.01,0.24,0.01,0.3,0.15
				c-0.79,0.01-1.57,0.06-2.4,0.33c1.53,1.16,2.61,2.71,4.1,3.82c2,1.49,4.28,2.12,6.75,2.04c0.54-0.02,1.29,0.02,1.46-0.63
				c0.16-0.59-0.4-1-0.83-1.37c-1.12-1.16-2.57-1.94-3.64-3.16c-1.08-1.73-1.45-2.61-1.34-3.2c0.22,0.29,0.43,0.58,0.65,0.87
				c0.13,0.35,0.35,0.64,0.59,0.91c0.61,1.07,1.39,2.06,2.56,2.43c2.3,0.72,4.64,0.67,6.93-0.12c1.02-0.35,1.98-0.83,2.64-1.87
				c-0.45-0.07-0.79-0.12-1.12-0.17c-2.08-0.38-4.09-0.96-6.02-1.83c-1.2-0.6-2.22-1.48-3.35-2.19c-0.21-0.13-0.11-0.29-0.13-0.45
				c0.05,0.01,0.1,0,0.14-0.03c0.04,0.03,0.08,0.04,0.12,0.04C251.91,207.45,252.02,207.47,252.16,207.46z M224.19,188.44
				L224.19,188.44c-0.01-0.31-0.01-0.62-0.02-0.93c0-0.33,0.1-0.67-0.05-1c-0.7,0.42-0.7,0.42-0.98,0.87
				c-0.4,0.4-0.54,0.93-0.67,1.45c-0.13,0.53-0.06,1.06,0.41,1.4c0.48,0.34,0.97,0.27,1.51,0c2.16-1.09,3.39-2.91,4.18-5.1
				c0.17-0.48,0.09-0.79-0.52-0.69c-1.22-0.11-2.5,0.85-3.12,2.36c-0.33,0.47-0.47,1.01-0.51,1.57
				C224.35,188.4,224.27,188.42,224.19,188.44z M237.75,228.38c-0.54,0.67,0.28,0.6,0.49,0.83c0.34,0.37,0.65,0.39,0.68-0.24
				c0.16-0.24,0.32-0.48,0.48-0.72c0.16-0.13,0.4-0.16,0.45-0.44c-0.51-0.1-0.99-0.64-1.53-0.05
				C238,227.86,237.85,228.1,237.75,228.38z M226.18,227.78c-0.03,0.38-0.07,0.75-0.1,1.15c0.43-0.02,0.78-0.11,0.81-0.58
				c0.03-0.5,0.1-1.02-0.15-1.5c-0.17-0.43-0.16-0.98-0.75-1.11c-0.18-0.04-0.33-0.21-0.56-0.11c0.08,0.31,0.25,0.57,0.44,0.81
				C225.97,226.89,226.08,227.34,226.18,227.78z M213.2,197.81c0.12-0.02,0.21-0.07,0.2-0.21c0.3-0.45,0.57-0.91,0.73-1.43
				c0.03-0.1,0.13-0.17,0.2-0.25c0.33,0.87,0.85,0.08,1.2,0.04c0.75-0.07,1.66-0.21,1.58-1.36c0-0.04,0.1-0.1,0.15-0.14
				c0.23,0.15-0.02,0.48,0.24,0.63c0.43-0.16,0.58-0.64,0.95-0.87c0.19,0.27-0.04,0.41-0.13,0.55c-1.05,1.59-1.88,3.31-2.9,4.92
				c-1.2,1.91-2.2,3.96-3.85,5.56c-0.21,0.3-0.96,0.17-0.71,0.82c0.24,0.62,0.6,1.19,1.08,1.67c0.17,0.17,0.4,0.29,0.59,0.1
				c0.16-0.16-0.07-0.35-0.14-0.52c-0.04-0.09-0.19-0.14-0.29-0.21c-0.39-0.28-0.22-0.58,0.11-0.62c0.52-0.07,1-0.24,1.5-0.35
				c3.08-0.65,6.14-0.22,9.16,0.34c2.05,0.38,4.08,0.88,6.14,1.19c3,0.45,5.99,0.62,8.98-0.05c0.55-0.12,0.71-0.42,0.38-0.87
				c-0.17-0.23-0.42-0.42-0.63-0.62c-0.01-0.05-0.01-0.12-0.04-0.14c-1.72-1.28-2.41-3.18-3.13-5.09c-0.39-1.04-0.61-2.13-1.14-3.12
				c-0.07-0.33-0.12-0.67-0.22-0.99c-0.2-0.62-0.81-0.71-1.32-0.2c-0.25,0-0.44,0.29-0.72,0.17l0,0.01
				c0.01-0.28,1.02-0.58-0.11-0.84c1.3-0.48,2.57-0.05,3.81-0.11c0.02,0.18,0.06,0.47,0.1,0.77c0.52-1.21,1.19-2.25,2.17-3.08
				c0.09-0.08,0.21-0.26,0.07-0.38c-0.07-0.07-0.29-0.09-0.34-0.04c-0.5,0.49-0.96,0.13-1.48,0.01c-1.28-0.3-2.56-0.59-3.75-1.16
				c-0.85-0.41-1.61-0.13-2.4,0.12c-0.22,0.07-0.29,0.22-0.29,0.45c-0.02,0.8-0.4,1.44-0.93,2.01c-1.14,1.21-2.54,1.98-4.14,2.36
				c-2.19,0.52-3.86-0.41-3.95-2.61c-0.06-1.41-0.7-1.52-1.68-1.74c-1.15-0.25-2.25-0.78-3.43-0.03c-0.33,0.21-0.68,0.27-0.63,0.84
				c-0.52-0.45-0.57-1.05-0.94-1.43c-0.37-0.38-0.77-0.73-1.54-0.52c0.57,0.25,0.81,0.59,0.95,1.05c0.55,1.78,0.67,3.56,0.08,5.35
				c-0.19,0.18-0.37,0.38-0.59,0.53c-0.22,0.15-0.48,0.21-0.47-0.21c0.21-0.1,0.45-0.32,0.08-0.39c-0.43-0.08-1.03-0.08-1.31,0.25
				c-0.26,0.31,0.16,0.69,0.36,1.02c0.28,0.46,0.65,0.32,1.03,0.29C212.51,198.97,212.97,198.5,213.2,197.81L213.2,197.81z
				 M214.11,165.43c0.61-0.66,1.16-1.39,1.9-1.93c0.11-0.08,0.4-0.13,0.2-0.36c-0.17-0.2-0.31,0.02-0.42,0.13
				c-0.7,0.68-1.44,1.33-2,2.14c-0.56,0.59-1.04,1.24-1.43,1.96c-0.76,1.08-1.16,2.31-1.56,3.55c-0.36,1.12-0.59,2.29-1.09,3.35
				c-0.35-0.06-0.12-0.42-0.38-0.54c-0.54,0.47-0.99,0.97-1.21,1.65c-0.9,1.43-0.94,3.03-0.68,4.58c0.9,5.45,3.97,9.21,9.13,11.23
				c0.65,0.25,1.33,0.54,2.14,0.47c-0.36-0.61-0.94-0.94-1.11-1.56c0.36-0.2,0.72,0,1.08-0.01c1.54-0.03,2.4-0.86,2.39-2.37
				c-0.01-1.36-0.59-2.51-1.31-3.62c-0.68-1.04-1.6-1.63-2.82-1.95c-2.15-0.57-3.51,0.08-4,2.22c-0.15,0.64-0.37,0.49-0.69,0.21
				c-0.86-0.73-1.23-1.7-1.3-2.79c-0.13-2.17,0.47-4.13,1.75-5.88c0.19-0.26,0.21-0.44,0.03-0.72c-0.65-1-0.87-2.13-0.89-3.3
				c-0.02-1.42,0.46-2.74,0.89-4.07C213.2,167.03,213.66,166.23,214.11,165.43z M217.92,228.97c-0.56-0.79-0.6-0.81-1.3-0.65
				c0.22,0.35,0.43,0.7,0.64,1.05c0.12,0.37,0.24,0.75,0.36,1.12c0.01,0.2-0.01,0.4,0.02,0.59c0.04,0.21-0.15,0.56,0.25,0.57
				c0.31,0.01,0.61-0.14,0.62-0.51c0-0.23,0.24-0.46,0.01-0.69c0.2-0.6-0.35-0.97-0.44-1.48c0.1-0.02,0.21-0.05,0.31-0.07
				c0,0.2,0.16,0.27,0.3,0.36c0.06,0.25,0.12,0.51,0.18,0.76c0.03,0.09,0.09,0.18,0.1,0.27c0.12,0.98,0.11,0.98,0.99,0.5
				c1.23-0.67,2.35-1.55,3.71-1.97c0.5-0.16,1.08-0.33,1.5-0.05c0.39,0.25,0.41,0.06,0.47-0.17c0.05-0.21,0.03-0.44,0.05-0.66
				c0.1-0.81-0.24-1.48-0.65-2.14c-0.15-0.24-0.22-0.67-0.55-0.59c-0.29,0.07-0.05,0.48-0.16,0.72c-0.01,0.03-0.07,0.04-0.13,0.07
				c-0.46-0.7-0.66-1.48-0.75-2.29c-0.06-0.48-0.32-0.51-0.71-0.52c-0.43-0.01-0.47,0.21-0.5,0.54c-0.07,0.71-0.19,1.41-0.62,2.02
				c-0.23-0.18,0.06-0.46-0.18-0.6c-0.52,0.29-1.04,0.57-1.56,0.86c-1.31,0.44-2.66,0.53-4.02,0.43c0,0.7,0.34,0.95,0.9,1
				c0.74,0.07,1.48,0.17,2.14-0.29c0.2-0.14,0.4-0.15,0.63-0.06c-0.15,0.35-0.48,0.55-0.7,0.83c-0.67,0.05-0.94,0.39-0.73,1.05
				C218.04,228.98,217.98,228.98,217.92,228.97z M222.95,220.37c-0.07-0.44-0.1-0.88-0.22-1.31c-0.04-0.16-0.25-0.34-0.42-0.39
				c-0.21-0.06-0.23,0.21-0.32,0.34c-0.4,0.58-0.07,1.13,0.07,1.69c0.11,0.43,0.43,0.23,0.66,0.19
				C223.03,220.84,223.04,220.61,222.95,220.37z M239.23,229.42c-0.41,0.46,0.05,0.64,0.29,0.89c0.18,0.37,0.42,0.73,0.54,1.12
				c0.15,0.47,0.4,0.4,0.73,0.25c1-0.45,1.72-2.31,0.23-3.25c-0.38-0.37-0.72-0.22-1.04,0.1
				C239.57,228.7,239.33,229.01,239.23,229.42z M233.73,230.17c-0.23,0.13-0.31,0.37-0.4,0.59c-0.26,0.65,0.27,0.98,0.66,1.21
				c0.48,0.28,0.3-0.37,0.49-0.54c0.19-0.17,0.29-0.44,0.43-0.67c0.59-0.59,1.28-1.06,2.07-1.41
				C235.89,228.79,234.67,229.1,233.73,230.17z M235.58,228.25c0.15,0.13,0.33,0.13,0.51,0.12c0.45-0.01,1.09,0.83,1.31-0.28
				c0.06-0.1,0.13-0.2,0.19-0.31c0.16-0.14,0.37-0.24,0.37-0.56c-1.31-0.27-2.63-0.53-3.94-0.8c-0.83-0.52-1.82-0.76-2.5-1.53
				c-0.63-0.52-0.63-1.3-0.76-2c-0.09-0.47-0.37-0.43-0.68-0.45c-0.43-0.03-0.29,0.28-0.31,0.5c-0.04,0.61-0.07,1.23-0.11,1.88
				c-0.42-0.15-0.27-0.48-0.46-0.6c-0.78,0.73-0.88,1.57-0.36,2.8c-0.13,0.67,0.13,1.09,0.72,1.45c0.84,0.52,1.61,1.12,2.41,1.7
				c0.3,0.21,0.61,0.66,0.86,0.62c0.35-0.05,0.34-0.64,0.59-0.93c0.46-0.48,1.03-0.83,1.7-1.13c-0.38-0.21-0.69-0.38-1.01-0.56
				c0.17-0.19,0.35-0.05,0.5-0.1c0.05,0,0.1,0.01,0.15,0.01l0.05,0.02l0.05-0.01C235.08,228.24,235.33,228.25,235.58,228.25z
				 M236.25,230.2c-0.38,0.19-0.67,0.48-0.89,0.84c-1.03,1.22-0.94,1.74,0.46,2.45c0.33,0.17,0.69,0.29,1.04,0.36
				c0.82,0.16,1.79-0.38,2.27-1.22c0.41-0.72,0.15-1.32-0.33-1.87c-0.38-0.53-0.66-1.24-1.55-0.94
				C236.88,229.84,236.54,229.96,236.25,230.2z M213.78,227.02c-0.16-0.33-0.31-0.67-0.63-0.88c-1.24-0.31-2.38,0.14-2.95,1.16
				c-0.55,1.36,0.23,2.69,1.77,2.99c0.06-0.54-0.04-1.09,0.16-1.61c0.36-0.63,0.8-1.16,1.54-1.36
				C213.79,227.28,213.94,227.21,213.78,227.02z M220.18,215.01c0.26-0.53,0.52-0.03,0.69,0.05c1.51,0.78,3.08,1.3,4.78,1.44
				c0.75,0.06,1.05-0.14,0.91-0.89c0.02-0.13,0.03-0.26,0.05-0.4c0.08-0.01,0.16-0.01,0.24-0.02c0,0.04,0.01,0.08,0.04,0.11
				c-0.01,0.61,0.23,1.15,0.51,1.67c0.06,0.1,0.4,1.52,0.37,1.61c-0.03,0.02-0.05,0.04-0.08,0.06c0.02,0,0.04,0.01,0.05,0
				c0.01-0.02,0.02-0.04,0.03-0.06c0.22,0.05,0.41-0.05,0.53-0.2c0.5-0.64,0.78-0.37,1.01,0.21c0.03,0.09,0.11,0.15,0.17,0.23
				c0.42-0.18,0.25-0.84,0.7-0.9c0.4-0.05,0.66,0.48,1.17,0.4c-0.07-0.44-0.75-1.25,0.52-0.91c-0.21-0.73,0.44-1.25,0.34-1.93
				c-0.09-0.64-0.5-1.17-0.7-1.93c0.21,0.14,0.29,0.18,0.35,0.25c0.06,0.07,0.1,0.17,0.16,0.25c0.11,0.15,0.28,0.27,0.43,0.08
				c0.81-0.99,2.2-1.6,2-3.23c-0.07-0.62,0.31-1.07,0.81-1.42c0.16-0.11,0.35-0.19,0.52-0.29c0.17-0.1,0.37-0.24,0.27-0.46
				c-0.08-0.2-0.31-0.09-0.47-0.08c-0.77,0.04-1.53,0.1-2.3,0.15c-0.54-0.03-1.08-0.04-1.62-0.08c-0.24-0.02-0.42,0.03-0.54,0.27
				c-0.84,1.58-2.15,2.71-3.64,3.65c-0.89,0.36-1.79,0.71-2.68,1.07c-0.3-0.01-0.59-0.03-0.89-0.02c-0.94,0.03-1.89,0.07-2.8-0.24
				c-3.11-1.06-5.19-3.08-5.91-6.35c-0.04-0.18,0.07-0.59-0.39-0.4c-1.83-0.01-2,0.23-1.24,1.73c0.01,0.02,0.04,0.03,0.06,0.04
				c0.04,0.46,0.26,0.85,0.48,1.23c1.22,2.15,2.93,3.84,4.99,5.19c0.17,0.27,0.52,0.38,0.62,0.71c-0.3,0.08-0.54-0.17-0.79-0.18
				c-0.27,1.21,1.35,1.41,1.23,2.53c1.16-0.79,0.79,0.75,1.36,0.87c0.38-0.19,0.26-0.83,0.69-0.87c0.37-0.03,0.46,0.61,0.9,0.63
				c0.17-0.25-0.11-0.88,0.49-0.69c0.74,0.23,0.14-0.46,0.46-0.6c0.24-0.11-0.13-0.27-0.28-0.31c-0.73-0.17-1.38-0.54-2.07-0.78
				C221.19,215.8,220.68,215.41,220.18,215.01z M217.06,230.62c0.06-0.49-0.02-0.94-0.32-1.35c-0.15-0.45-0.39-0.83-0.84-1.05
				c-0.39-0.33-0.87-0.28-1.32-0.24c-1.17,0.09-1.71,0.59-1.79,1.6c-0.13,0.52,0.12,0.92,0.46,1.26c0.69,0.69,1.56,1.04,2.52,1.1
				C217.13,232.03,217.14,232.02,217.06,230.62z M229.36,185.27c-0.56,1.43-1.3,2.75-2.33,3.9c-0.69,0.51-1.32,1.1-2.09,1.51
				c-1.08,0.56-2.23,0.67-3.42,0.57c-0.1-0.15-0.41-0.05-0.4-0.38c0.41-0.04,0.81-0.08,1.31-0.13c-0.78-1.02-0.78-2.1-0.19-3.03
				c0.68-1.06,0.35-2,0.03-2.99c-0.52-1.35-1.3-1.83-2.48-1.49c0.48,0.58,0.89,1.19,1.24,1.84c0.12,0.35,0.26,0.69,0.37,1.05
				c0.66,2.07,0.12,4.12-2.3,4.52c-0.17-0.03-0.34-0.05-0.55,0.11c1.52,1.49,3.37,1.97,5.38,1.64c3.96-0.64,8.04-4.04,7.76-9.13
				c-0.09-1.57-0.01-1.55-1.57-1.25c-0.48,0.09-0.49,0.3-0.39,0.65C229.77,183.55,229.57,184.41,229.36,185.27z M237.14,213.25
				c-0.66-0.19-1.36-0.26-1.93-0.71c-0.31-0.24-0.35,0.09-0.44,0.26c-1.18,1.31-1.05,0.94-0.13,2.11c0.9,1.14,2.03,2.02,3.36,2.62
				c1.32,0.6,2.69,0.85,4.25,0.41c-0.3-0.19-0.48-0.31-0.67-0.42c-0.1-0.06-0.22-0.1-0.33-0.14c-0.3-0.21-0.6-0.41-0.89-0.63
				c-0.83-0.63-1.75-1.15-2.33-2.06c0.17-0.01,0.33-0.03,0.48,0.1c1.86,1.62,4.06,1.47,6.27,1.27c0.04-0.07,0.09-0.13,0.13-0.2
				c-0.36-0.32-0.71-0.65-1.07-0.97c-0.58-0.74-1.24-1.41-2-1.96c-0.26-0.19-0.51-0.35-0.88-0.22c-1.08,0.38-2.22,0.49-3.36,0.55
				C237.44,213.25,237.29,213.25,237.14,213.25z M231.47,164.96c-0.05,0.05-0.1,0.09-0.15,0.14c-0.18,0.12-0.37,0.24-0.55,0.37
				c-0.73,0.53-0.71,0.51-0.12,1.14c1.98,2.09,2.95,4.48,1.99,7.36c-0.15,0.46,0.04,0.48,0.39,0.51c0.77,0.08,1.56,0.12,2.3,0.39
				c-1.49,0.07-2.98,0.03-4.46,0.08c-1.39,0.04-2.77,0.23-4.01,0.9c-0.9,0.49-1.84,0.98-2.22,2.05c-0.44,0.78-0.27,1.45,0.32,2.08
				c0.44,0.47,0.99,0.7,1.58,0.89c2.6,0.87,5.02,0.21,7.39-0.88c0.64-0.29,1.19-0.78,1.9-0.91c-0.18,0.64-0.81,0.82-1.26,1.18
				c-0.3,0.24-0.72,0.34-0.26,0.86c0.18,0.21,0.38,0.67,0.08,1.05c-0.18-0.18-0.17-0.42-0.28-0.6c-0.16-0.29-0.25-0.83-0.74-0.58
				c-0.43,0.21-1.15,0.11-1.06,1.02c0.21,2.11,0.04,4.19-1,6.12c-0.8,1.13-1.71,2.16-2.88,3.13c0.27,0.02,0.38,0.05,0.46,0.02
				c0.64-0.19,1.28-0.37,1.9-0.59c4.47-1.57,8.27-4.05,11-8c1.33-1.93,2.33-3.96,2.03-6.4c-0.11-0.87-0.43-1.64-1.26-2.14
				c-0.03,0.13-0.06,0.2-0.07,0.27c-0.01,0.12,0,0.25,0,0.37c-0.3,0.86-0.08,1.83-0.52,2.67c-0.16-1.98,0.08-3.97-0.25-5.94
				c0.01-0.59,0.06-1.21-0.32-1.7c-2.21-2.87-5.01-5.07-8.12-6.89c-0.2-0.12-0.34-0.14-0.46,0.12
				C232.49,163.77,231.95,164.35,231.47,164.96L231.47,164.96z M216.46,173.41c0.29,0,0.6-0.05,0.88,0.01
				c0.7,0.16,0.88-0.26,1.05-0.9c-0.42,0.43-0.78,0.76-1.33,0.64c-0.56-0.48-0.47-1.16-0.58-1.79c0.18-1.02,0.4-2.02,0.98-2.92
				c0.28-0.44,0.58-0.81,1.12-0.8c0.58,0.01,0.64,0.53,0.79,0.94c0.01,0.03,0.07,0.04,0.16,0.08c0.15-0.89,0.1-1.76,0.04-2.63
				c-0.04-0.61-0.27-1.06-0.86-1.33c-0.45-0.2-0.88-0.47-1.26-0.78c-0.43-0.36-0.73-0.23-1.08,0.08c-1.54,1.36-2.58,3.03-3.19,4.98
				c-0.02,0.05-0.05,0.1-0.07,0.15c-0.02,0.1-0.04,0.2-0.07,0.3c-0.6,1.71-0.67,3.4,0.11,5.09c0.18,0.38,0.33,0.48,0.68,0.16
				C214.58,174,215.49,173.62,216.46,173.41z M231.91,162.19c-0.33-0.32-0.51-0.11-0.77,0.15c-2.07,2.03-4.52,2.66-7.33,1.93
				c-2.38-0.62-4.39-1.93-6.37-3.32c-0.31-0.22-0.6-0.31-0.95-0.23c-0.82,0-1.65,0-2.65,0c1.57,1.01,2.97,1.9,4.36,2.8
				c2.01,1.29,4.07,2.42,6.52,2.61c2.94,0.22,5.52-0.46,7.43-2.86C232.52,162.81,232.66,162.39,231.91,162.19z M186.99,177.32
				c0.71-0.58,1.47-1.08,2.3-1.47c0.17-0.08,0.44-0.1,0.39-0.36c-0.04-0.2-0.26-0.28-0.45-0.35c-0.73-0.24-1.46-0.45-2.18-0.71
				c-3.38-1.18-6.81-1.27-10.27-0.4c-0.69,0.17-1.37,0.44-1.7,1.17c-0.56,0.83-0.41,1.37,0.53,1.57c0.98,0.22,2.01,0.23,2.99,0.47
				c0.83,0.2,1.61,0.25,2.46,0.13c1.31-0.2,2.6,0,3.84,0.52c0.42,0.18,0.76,0.76,1.15,0.61c0.37-0.14,0.59-0.69,0.87-1.06
				C186.95,177.41,186.97,177.36,186.99,177.32z M220.31,212.57c3.09,1.62,8.24,0.05,10.38-3.91c-1.77-0.26-3.53-0.52-5.3-0.78
				c-0.03-0.04-0.05-0.1-0.09-0.11c-2.97-0.75-5.94-1.45-9.04-1.25c-0.85,0.05-0.88,0.06-0.62,0.89
				C216.42,209.85,218.01,211.53,220.31,212.57z M238.61,165.57c1.51,1.6,2.99,3.22,4.13,5.12c0.18,0.3,0.42,0.5-0.05,0.72
				c-0.3,0.14-0.23,0.45-0.13,0.65c0.18,0.35,0.35-0.01,0.53-0.07c0.65-0.23,0.46-0.66,0.25-1.07c-0.09-0.17-0.27-0.27-0.22-0.51
				c0.28-1.43,0.21-2.84-0.17-4.24c-0.49-1.82-1.07-3.61-2.32-5.1c-0.02-0.07-0.02-0.16-0.05-0.21c-0.94-1.43-2.13-2.64-3.48-3.68
				c-0.99-0.76-2.05-1.44-3.4-1.83c0.54,0.84,0.77,1.63,0.54,2.5c-0.27,1.01-0.52,2.01-1.05,2.94c-0.26,0.45-0.34,0.96,0.36,1.23
				c0.49,0.2,0.94,0.53,1.38,0.81C236.21,163.65,237.51,164.48,238.61,165.57z M177.57,179.67c-0.4,0.63-0.34,0.94,0.3,1.19
				c0.41,0.16,0.84,0.25,1.28,0.33c2.77,0.53,5.69,0.69,7.5,3.41c0.54,0.81,1.4,1.38,2.22,1.93c1.32,0.89,2.75,1.29,4.35,0.92
				c0.92-0.21,1.73-0.7,2.64-0.91c0,0.03,0,0.06,0,0.09c-1.05,0.81-2.17,1.49-3.55,1.71c0.07,0.17,0.1,0.26,0.15,0.34
				c0.06,0.11,0.11,0.22,0.18,0.32c1.42,2.07,3.25,3.71,5.45,4.9c3.85,2.08,7.97,3.11,12.37,3c2.22-0.05,2.22-0.02,2.1-2.24
				c0-0.27,0.01-0.54,0.01-0.81c0.01-0.69-0.27-1.03-1.02-1.11c-1.81-0.17-3.43-0.92-4.89-1.99c-2.79-2.03-4.67-4.68-5.45-8.16
				c-0.64,0.42-1.04,1.13-1.85,1.17c0.07-0.09,0.13-0.21,0.22-0.28c1.52-1.31,2.12-2.96,1.85-4.93c-0.06-0.42-0.01-1.08-0.38-1.15
				c-0.33-0.06-0.63,0.52-0.81,0.92c-0.25,0.23-0.48,0.5-0.83,0.58c0.81-1.6,1.87-2.95,3.63-3.6c0.67-0.25,1.35-0.5,1.97-0.84
				c0.56-0.31,0.99-0.77,0.59-1.5c-0.13-0.54-0.6-0.7-1.03-0.86c-2.15-0.79-4.18-0.24-6.17,0.58c-1.61,0.66-2.89,1.63-3.14,3.58
				c-0.23-0.27-0.25-0.52-0.15-0.7c0.51-1.01-0.06-1.49-0.87-1.89c-0.22-0.11-0.41-0.27-0.61-0.42c-1.74-1.37-3.7-2.23-5.88-2.6
				c-2.12-0.35-4.22-0.34-6.27,0.39c-0.79,0.26-0.99,0.56-0.58,0.94c0.37,0.35,0.8,0.67,1.34,0.7c2.33,0.11,4.54,0.75,6.72,1.55
				c1.25,0.46,2.47,1.14,3.87,0.55c0.27,0.07,0.59-0.13,0.84,0.14c-0.15,0.33-0.48,0.31-0.74,0.4c-1.07,0.37-2.16,0.65-3.2,1.07
				c-1.5,0.6-2.74,1.53-3.38,3.09c-0.43,0.52-0.31,1.25-0.69,1.79c-0.04-0.64-0.09-1.28,0.12-1.9c0.11-0.33-0.03-0.5-0.34-0.59
				c-1.23-0.35-2.46-0.74-3.76-0.68C180.16,178.19,178.64,178.35,177.57,179.67z M228.37,166.66c-1.48,0.37-2.97,0.45-4.47,0.15
				c-1.73-0.34-1.79-0.31-2.48,1.37c-0.23,0.54-0.43,1.1-0.46,1.7c-0.28,0.82-0.23,1.67-0.15,2.5c0.17,1.77,0.92,3.26,2.44,4.28
				c0.52,0.35,0.99,0.62,1.43-0.14c0.17-0.3,0.54-0.5,0.84-0.71c1.68-1.17,3.6-1.45,5.57-1.43c0.63,0.01,0.87-0.21,1.02-0.77
				c0.68-2.48-0.09-4.56-1.71-6.42C229.57,166.23,229.56,166.23,228.37,166.66z M211.87,182.96c0.11,0.42,0.27,0.82,0.66,1.13
				c0.32-1.99,1.73-3.14,3.5-2.87c0.63,0.1,1.26,0.27,1.87,0.46c1.86,0.56,3.67,1.11,5.54-0.08c0.81-0.52,0.98-0.69,0.52-1.53
				c-0.07-0.13-0.14-0.26-0.21-0.38c-0.04-0.27-0.15-0.54-0.11-0.8c0.06-0.49-0.11-0.74-0.59-0.77c-0.97-0.07-1.45-0.81-2-1.45
				c-0.21-0.24-0.39-0.51-0.6-0.75c-1.63-1.95-3.8-2.34-5.84-0.91c-1.32,0.93-2.11,2.33-2.61,3.86
				C211.56,180.2,211.3,181.57,211.87,182.96z M219.87,158.15c-0.31,0.36-0.77,0.59-1.05,1.23c1.01-0.47,1.98-0.45,2.91-0.58
				c1.91-0.27,3.84-0.01,5.69,0.57c1.66,0.52,3.25,1.22,4.76,2.07c0.39,0.22,0.32-0.09,0.37-0.29c0.86-1.3,1.37-2.73,1.3-4.29
				c-0.04-0.98-0.66-1.77-1.57-2.06c-1.98-0.63-4.04-0.73-6.08-0.29C223.71,155.04,221.5,156.11,219.87,158.15z M211.92,165.91
				c-0.67,0.01-1.25-0.22-1.73-0.66c-1.03-0.96-0.94-2.17,0.03-3.16c0.47-0.47,1-0.63,1.55-0.86c0.15-0.06,0.36-0.09,0.36-0.32
				c0-0.15-0.12-0.18-0.24-0.23c-1.69-0.6-3.39-0.9-5.06,0.01c-1.16,0.63-2.22,1.5-1.71,3.17c0.38,1.24,1.24,1.95,2.38,2.38
				c1,0.37,2.07,0.39,3.12,0.56c0.73,0.12,1.39,0.33,1.59-0.7c0.03-0.14,0.21-0.27,0.34-0.38c0.95-0.75,1.45-1.89,2.36-2.69
				c0.42-0.37,0.2-0.64-0.16-0.92c-0.99-0.77-2.15-0.95-3.22-0.48c-1.42,0.62-2.19,1.71-1.25,3.22
				C210.66,165.47,211.35,165.59,211.92,165.91z M217.66,160.6c0.57,0.34,1.15,0.65,1.69,1.02c1.75,1.16,3.52,2.22,5.68,2.42
				c1.89,0.17,3.63-0.16,5.14-1.37c1.09-0.87,1.09-0.89-0.18-1.55c-2.81-1.46-5.8-2.03-8.95-1.75
				C219.84,159.47,218.55,159.43,217.66,160.6z M224.88,218.52c-0.36,0.13-0.67-0.1-0.99-0.16c-0.16-0.03-0.3-0.1-0.34,0.11
				c-0.09,0.45-0.29,0.92-0.23,1.35c0.2,1.41,0.5,2.81,0.77,4.21c0.06,0.29,0.16,0.63,0.44,0.72c0.5,0.16,1.05,0.11,1.48,0.49
				c0.15-0.19,0.47,0,0.59-0.33c0.4-1.1,1.21-1.57,2.37-1.4c0.24,0.03,0.35,0,0.34-0.29c-0.02-1.21,0.01-2.42-0.33-3.59
				c-0.25-0.87-0.25-0.86-1.11-0.55c-0.28,0.1-0.65,0.39-0.87,0.11c-0.21-0.27,0.17-0.56,0.33-0.81c0.16-0.26,0.24-0.38-0.02-0.71
				c-0.48-0.6-1.05-0.4-1.6-0.42C224.22,217.17,224.22,217.18,224.88,218.52z M238.78,206.26c0.4-1.16,0.95-2.31,1.9-3.22
				c0.33-0.31,0.02-0.49-0.13-0.66c-1.01-1.12-1.9-2.34-2.65-3.65c-0.27-0.47-0.48-0.69-1.12-0.43c-1.16,0.47-1.98-0.1-2.18-1.33
				c-0.02-0.1,0.01-0.21-0.03-0.29c-0.16-0.34-0.52-0.28-0.78-0.3c-0.15-0.01-0.08,0.28-0.02,0.44
				C234.95,200.21,235.8,203.76,238.78,206.26z M228.53,192.32c-2.55,0.66-5.08,0.88-7.63,0.71c-0.31-0.02-0.43,0.07-0.49,0.37
				c-0.24,1.14,0.64,2.52,1.78,2.78c2.12,0.48,5.61-1.47,6.31-3.53C228.52,192.59,228.52,192.51,228.53,192.32z M219.99,165.53
				c0.24,2.7-0.3,5.26-1.38,7.7c-0.15,0.35,0.03,0.4,0.27,0.53c1.25,0.66,2.2,1.62,2.95,2.83c0.38,0.61,1.05,0.94,1.69,1.25
				c0.12,0.06,0.26,0.06,0.33-0.07c0.08-0.14,0.04-0.29-0.11-0.38c-0.15-0.09-0.3-0.17-0.45-0.26c-1.84-1.08-2.68-2.75-2.84-4.81
				c-0.16-2,0.19-3.88,1.28-5.59c0.1-0.15,0.31-0.44,0.05-0.49C221.16,166.13,220.71,165.58,219.99,165.53z M222.68,221.23
				c-0.36-0.02-0.67,0-0.54,0.45c0.13,0.44-0.23,1.11,0.52,1.24c0.25,0.05,0.71-0.05,0.58-0.45
				C223.1,222.05,223.49,221.34,222.68,221.23z M233.94,154.49c0.7,0.36,1.33,0.67,1.95,0.99c0.2,0.1,0.44,0.38,0.63,0.15
				c0.21-0.26,0.01-0.57-0.23-0.76C235.61,154.32,234.85,154.18,233.94,154.49z M213.79,226.2c0.27,0.54,0.42,1.17,1.22,0.98
				c0.18-0.04,0.5,0.16,0.53-0.17c0.03-0.29-0.08-0.62-0.44-0.66C214.68,226.3,214.27,226.12,213.79,226.2z M238.07,192.72
				c0.2-0.01,0.42-0.08,0.58-0.01c0.2,0.08,0.97-0.35,0.5,0.46c-0.01,0.02,0.03,0.11,0.06,0.11c0.28,0.05,0.63,0.21,0.83-0.04
				c0.18-0.21,0.04-0.48-0.17-0.69C239.21,191.93,238.65,192.49,238.07,192.72z M230.45,218.67c-0.05-0.01-0.1-0.02-0.15-0.04
				c-0.21,0.33-0.41,0.67-0.63,0.99c-0.16,0.24-0.14,0.49,0.02,0.68c0.13,0.14,0.35,0.2,0.55,0.15c0.31-0.09,0.18-0.36,0.19-0.56
				C230.47,219.48,230.45,219.08,230.45,218.67z M227.11,226.24c0.06,0.51,0.13,1.01,0.19,1.52c0.02,0.18,0.03,0.38,0.22,0.4
				c0.11,0.01,0.25-0.13,0.35-0.23C228.34,227.4,228.03,226.72,227.11,226.24z M229.69,221.24c0.08,0.32-0.17,0.82,0.48,0.8
				c0.27-0.01,0.45-0.11,0.37-0.4c-0.1-0.33,0.11-0.83-0.53-0.87C229.51,220.74,229.76,221.06,229.69,221.24z M235.32,197.51
				c0.39,0.75,0.92,0.59,1.41,0.51c0.16-0.02,0.34-0.17,0.32-0.35c-0.03-0.22-0.26-0.19-0.42-0.19
				C236.22,197.49,235.85,197.74,235.32,197.51z M228.61,224.1c-0.73,0.21-1.01,0.95-0.62,1.67
				C228.11,225.16,228.33,224.64,228.61,224.1z M236.6,208.72c0.76-0.11,0.91-0.17,1.31-0.5
				C237.15,208.34,237.15,208.34,236.6,208.72z"/>
			<path class="st4" d="M231.18,196.74c0.28,0.13,0.47-0.16,0.72-0.17c0.76,0.08,0.99,0.84,1.54,1.19c0.53,0.99,0.75,2.08,1.14,3.12
				c0.72,1.9,1.41,3.8,3.13,5.09c0.03,0.02,0.02,0.09,0.04,0.14c-0.02,0.33,0.08,0.69-0.38,0.85c-0.98,0.35-1.96,0.59-3.01,0.65
				c-2.97,0.18-5.82-0.51-8.67-1.14c-2.65-0.58-5.31-1-8.03-0.97c-1.68,0.02-3.35,0.28-5.03,0.16c-0.39-0.03-0.86,0.09-1.06-0.42
				c1.65-1.6,2.65-3.65,3.85-5.56c1.01-1.61,1.85-3.33,2.9-4.92c0.09-0.14,0.32-0.28,0.13-0.55c-0.36,0.24-0.51,0.71-0.95,0.87
				c-0.25-0.15-0.01-0.48-0.24-0.63c-0.05,0.05-0.16,0.1-0.15,0.14c0.08,1.15-0.83,1.29-1.58,1.36c-0.36,0.03-0.87,0.83-1.2-0.04
				c-0.07,0.08-0.17,0.16-0.2,0.25c-0.16,0.52-0.43,0.98-0.73,1.43c-0.1,0.04-0.18,0.09-0.2,0.21c0,0,0,0,0,0
				c-0.15-0.01-0.3-0.02-0.46-0.03c0.59-1.79,0.46-3.57-0.08-5.35c-0.14-0.45-0.39-0.8-0.95-1.05c0.77-0.21,1.17,0.14,1.54,0.52
				c0.37,0.38,0.42,0.99,0.94,1.43c-0.05-0.56,0.3-0.63,0.63-0.84c1.18-0.75,2.28-0.22,3.43,0.03c0.98,0.22,1.62,0.33,1.68,1.74
				c0.1,2.19,1.76,3.13,3.95,2.61c1.6-0.38,3-1.15,4.14-2.36c0.54-0.57,0.91-1.21,0.93-2.01c0.01-0.23,0.08-0.38,0.29-0.45
				c0.79-0.25,1.55-0.54,2.4-0.12c1.18,0.57,2.46,0.87,3.75,1.16c0.52,0.12,0.98,0.47,1.48-0.01c0.06-0.05,0.27-0.03,0.34,0.04
				c0.14,0.13,0.02,0.3-0.07,0.38c-0.98,0.83-1.65,1.88-2.17,3.08c-0.04-0.3-0.07-0.6-0.1-0.77c-1.25,0.06-2.51-0.37-3.81,0.11
				C232.2,196.17,231.19,196.47,231.18,196.74c0,0.01-0.01,0.03-0.01,0.03L231.18,196.74z M221.62,197.79
				c1.38,0.38,2.21,0.35,2.87-0.08C223.5,197.89,222.56,197.78,221.62,197.79z"/>
			<path class="st5" d="M241.73,171.52c0.33,1.97,0.09,3.95,0.25,5.94c0.44-0.84,0.22-1.8,0.52-2.67c0.61,1.49,0.32,2.94-0.3,4.34
				c-0.95,2.14-2.64,3.71-4.39,5.14c-1.87,1.54-3.98,2.78-6.13,3.91c-0.16,0.08-0.27,0.1-0.37-0.05c1.03-1.92,1.2-4,1-6.12
				c-0.09-0.91,0.63-0.81,1.06-1.02c0.49-0.25,0.58,0.3,0.74,0.58c0.1,0.18,0.1,0.43,0.28,0.6c0.3-0.38,0.1-0.84-0.08-1.05
				c-0.46-0.52-0.05-0.62,0.26-0.86c0.45-0.36,1.08-0.53,1.26-1.18c0.11-0.09,0.26-0.17,0.33-0.29c0.15-0.24,0.4-0.53,0.16-0.8
				c-0.24-0.26-0.48,0-0.71,0.14c-0.47,0.29-0.98,0.52-1.47,0.75c-1.24,0.58-2.55,1.02-3.92,1.18c-1.61,0.19-3.21,0.11-4.56-0.95
				c-0.41-0.32-0.86-0.67-1.01-1.23c0.38-1.07,1.32-1.56,2.22-2.05c1.24-0.67,2.63-0.86,4.01-0.9c1.48-0.05,2.97-0.01,4.46-0.08
				c-0.74-0.27-1.53-0.31-2.3-0.39c-0.35-0.03-0.54-0.05-0.39-0.51c0.96-2.88-0.01-5.26-1.99-7.36c-0.59-0.63-0.61-0.61,0.12-1.14
				c0.18-0.13,0.37-0.25,0.55-0.37c0.09,0,0.14-0.05,0.15-0.14c0,0-0.01,0.01-0.01,0.01c0.92-0.03,1.82,0.09,2.68,0.4
				C237.4,166.51,239.98,168.51,241.73,171.52z M234.44,182.57c-0.11,0.4-0.25,0.81,0.09,1.29
				C234.62,183.35,234.68,182.96,234.44,182.57z"/>
			<path class="st6" d="M239.26,208.17c0.13-0.18,0.27-0.35,0.39-0.54c0.23-0.35,0.22-0.34-0.2-0.52c-0.16-0.07-0.24-0.19-0.18-0.42
				c0.32-1.17,0.75-2.29,1.56-3.23c0.25-0.3,0.4-0.28,0.62-0.01c0.3,0.36,0.62,0.69,1.04,1.16c-0.06-0.69-0.38-1.07-0.66-1.45
				c-1.7-2.28-3.43-4.54-4.86-7c0.25-1,0.93-1.48,1.91-1.68c0.41-0.08,0.82-0.09,1.23-0.16c1.85,0.44,3.66,1.02,5.46,1.64
				c0.1,0.04,0.34,0.03,0.28,0.15c-0.47,0.92,0.49,0.64,0.77,0.93c0.08,0.08,0.21,0.12,0.39,0.22c-0.35,0.27-0.63,0.56-0.03,0.8
				c-0.25,0.96,0.77,1.22,1.06,1.89c0.25,0.6-0.43,0.23-0.45,0.64c1.61,1.14,2.84,2.72,3.75,4.54c-0.07,0.01-0.15,0.03-0.22,0.02
				c-0.28-0.05-0.28-0.81-0.64-0.39c-0.19,0.22-0.15,0.82,0.09,1.23c0.08,0.13,0.38,0.06,0.29,0.39c-0.76,0-1.64-0.12-2.1,0.69
				c-0.5,0.88-1.1,1.26-2.09,0.83c-0.09-0.04-0.24,0.08-0.35,0.07c-0.74-0.07-1.2,0.66-1.92,0.66c-0.61,0-1.22-0.1-1.79,0.25
				c-0.21,0.13-0.56,0.12-0.79-0.03C241.03,208.36,240.17,208.19,239.26,208.17z"/>
			<path class="st5" d="M195.87,186.64c0-0.03,0-0.06,0-0.09c0.37-0.45,0.82-0.85,0.8-1.51c-0.01-0.45-0.19-0.53-0.55-0.32
				c-0.34,0.2-0.65,0.45-1,0.63c-1.93,0.97-3.9,0.83-5.83,0.05c-1.09-0.44-1.28-2.01-0.51-2.92c0.58-0.69,1.54-0.85,2.08-1.57
				c1.83-0.22,3.5,0.03,4.79,1.51c0.28,0.32,0.56,0.62,0.85,0.93c0.14,0.15,0.25,0.16,0.26-0.09c0.1,0.01,0.24-0.01,0.28,0.04
				c0.39,0.59,1.2,0.34,1.65,0.83c0.03,0.03,0.67,0.2,0.67-0.35c0.8-0.04,1.21-0.75,1.85-1.17c0.78,3.47,2.66,6.13,5.45,8.16
				c1.46,1.06,3.07,1.81,4.89,1.99c0.75,0.07,1.03,0.42,1.02,1.11c0,0.27-0.01,0.54-0.01,0.81c-1.38,0.71-2.91,0.55-4.36,0.56
				c-2.25,0.01-4.39-0.68-6.35-1.82c-2.04-1.18-3.73-2.71-4.91-4.78C196.58,187.97,196.37,187.22,195.87,186.64z"/>
			<path class="st5" d="M199.42,178.92c0.36-0.08,0.58-0.35,0.83-0.58c0.2,0.14,0.16,0.35,0.13,0.53c-0.17,1.24-1.37,2.22-2.65,2.32
				c-0.87,0.07-1.66-0.39-2.52-0.21c-0.03-0.19-0.2-0.27-0.29-0.4c-0.62-0.87-2.21-1.36-1.11-2.92c-0.17-0.02-0.27-0.06-0.36-0.05
				c-2.23,0.3-3.98,1.45-5.41,3.12c-0.32,0.37-0.64,0.69-1.11,0.55c-0.41-0.12-0.35-0.59-0.39-0.95c-0.03-0.28,0.13-0.6-0.19-0.82
				c0.64-1.56,1.88-2.49,3.38-3.09c1.04-0.42,2.14-0.7,3.2-1.07c0.26-0.09,0.59-0.07,0.74-0.4c-0.26-0.27-0.57-0.08-0.84-0.14
				c-1.27-0.23-2.48-0.74-3.54-1.36c-1.62-0.95-3.34-1.13-5.11-1.36c-0.96-0.12-2.03-0.09-2.71-1.03c2.05-0.73,4.15-0.74,6.27-0.39
				c2.18,0.36,4.14,1.23,5.88,2.6c0.19,0.15,0.39,0.32,0.61,0.42c0.81,0.4,1.38,0.88,0.87,1.89c-0.09,0.18-0.08,0.43,0.15,0.7
				c0.24-1.95,1.53-2.92,3.14-3.58c2-0.82,4.02-1.37,6.17-0.58c0.43,0.16,0.9,0.32,1.03,0.86c-0.8,0.7-1.78,1.07-2.74,1.5
				c-0.57,0.26-1.16,0.41-1.71,0.79c-0.81,0.58-1.23,1.39-1.68,2.19C199.28,177.84,198.9,178.42,199.42,178.92z"/>
			<path class="st5" d="M212.75,167.82c-0.43,1.33-0.91,2.65-0.89,4.07c0.01,1.17,0.24,2.3,0.89,3.3c0.18,0.28,0.16,0.45-0.03,0.72
				c-1.28,1.75-1.89,3.71-1.75,5.88c0.07,1.1,0.44,2.06,1.3,2.79c0.32,0.27,0.54,0.43,0.69-0.21c0.49-2.14,1.85-2.79,4-2.22
				c1.22,0.33,2.14,0.91,2.82,1.95c0.72,1.11,1.3,2.26,1.31,3.62c0.01,1.51-0.86,2.34-2.39,2.37c-0.36,0.01-0.72-0.19-1.08,0.01
				c-0.14,0.19-0.24,0.26-0.53,0.12c-1.18-0.6-2.25-1.35-3.32-2.13c-1.43-1.04-2.58-2.29-3.49-3.73c-1.46-2.3-2.12-4.86-2-7.6
				c0.02-0.47,0.01-0.94-0.15-1.39c0.22-0.68,0.67-1.19,1.21-1.65c0.26,0.12,0.03,0.48,0.38,0.54c0.5-1.06,0.73-2.22,1.09-3.35
				c0.39-1.24,0.8-2.47,1.56-3.55C212.7,167.33,212.76,167.55,212.75,167.82z"/>
			<path class="st7" d="M239.26,208.17c0.91,0.02,1.77,0.19,2.56,0.69c0.23,0.15,0.58,0.16,0.79,0.03c0.58-0.35,1.19-0.25,1.79-0.25
				c0.72,0,1.18-0.73,1.92-0.66c0.12,0.01,0.26-0.11,0.35-0.07c0.99,0.43,1.59,0.05,2.09-0.83c0.46-0.81,1.34-0.69,2.1-0.69
				c0.09-0.33-0.21-0.26-0.29-0.39c-0.24-0.4-0.28-1-0.09-1.23c0.36-0.41,0.36,0.34,0.64,0.39c0.07,0.01,0.15-0.01,0.22-0.02
				c0,0-0.01,0.01-0.01,0.01c-0.07,0.24-0.11,0.47,0.12,0.67c0.15,0.13,0.26,0.3,0.49,0.26c0.11-0.02,0.19-0.08,0.2-0.18
				c0.03-0.29-0.3-0.19-0.4-0.35c0.09-0.02,0.17-0.04,0.26-0.06c0.38-0.32,0.84,0.13,1.23-0.14c0.05,0,0.09,0.01,0.14,0.02
				c0.14,0.17,0.33,0.12,0.51,0.12l0.04-0.02c0,0,0.04,0.03,0.04,0.03c0.36,0.63,0.95,0.18,1.42,0.3c1.07,0.11,2.14,0.23,3.21,0.34
				c0.21,0.18,0.47,0.11,0.71,0.12c0.54,0.02,1.08,0.01,1.62,0.02c0.05,0,0.24-0.08,0.12,0.11c-0.02,0.04-0.14,0.03-0.21,0.04
				c-0.39,0.06-0.95-0.24-1.15,0.18c-0.21,0.45-0.49,0.38-0.82,0.4c-0.71,0.04-1.43-0.1-2.33,0.13c0.56,0.24,0.95,0.16,1.32,0.16
				c0.4,0.01,0.59,0.18,0.57,0.58c-0.89,0.14-1.77,0.29-2.68,0.35c-1.06,0.07-1.99-0.41-3.01-0.45c-0.05,0-0.09-0.02-0.11-0.06
				c-0.03-0.3-0.24-0.28-0.45-0.26c0,0,0,0,0,0c-0.05-0.16-0.17-0.17-0.31-0.15c-0.05,0-0.09-0.01-0.12-0.04
				c-0.01-0.13-0.06-0.23-0.2-0.25c-0.07-0.01-0.17,0.01-0.13,0.1c0.03,0.08,0.13,0.12,0.2,0.18c0.02,0.15-0.07,0.32,0.13,0.45
				c1.13,0.71,2.15,1.59,3.35,2.19c-0.28,0.08-0.56,0.06-0.85,0.17c-0.49,0.17-0.99,0.21-1.3,0.73c-0.18,0.31-0.67-0.12-0.86,0.22
				c-0.26,0.48-0.69,0.39-1.1,0.4c-0.12-0.01-0.23-0.04-0.29-0.16c-0.05-0.05-0.1-0.09-0.15-0.14l-0.01,0
				c-0.2-0.46-0.69-0.39-1.05-0.57c-0.22-0.29-0.43-0.58-0.65-0.87c-0.11,0.59,0.25,1.47,1.34,3.2c-0.52-0.3-1.04,0-1.56,0
				c-0.54,0-0.86,0.1-1.05,0.69c-0.21,0.64-0.85,0.67-1.17,0.09c-0.27-0.47-0.6-0.5-1.04-0.32c-0.09-0.38-0.38-0.61-0.62-0.89
				c-0.17-0.2-0.26-0.39-0.01-0.59c-0.06-0.13-0.18-0.13-0.3-0.15c-0.63-0.06-0.4-0.34-0.15-0.62c0.28-0.22,0.51-0.47,0.64-0.8
				c-0.63-0.21-1.11,0.27-1.67,0.23c0.03-0.25,0.15-0.45,0.34-0.62c0.13-0.11,0.12-0.26,0.02-0.39c-0.1-0.13-0.23-0.17-0.39-0.15
				c-0.17,0.02-0.25,0.13-0.25,0.3c0,0.34,0,0.68,0,1.02c-0.68,0.17-1.38,0.31-2.05,0.49c-1.96,0.52-3.86,0.83-5.71-0.32
				c-0.04-0.62,0.44-0.83,0.86-1.04c0.64-0.32,1.32-0.59,1.98-0.88c0.17,0.51,0.52,0.13,0.71,0.08c0.33-0.1,0.56-0.38,0.46-0.79
				C239.19,208.2,239.22,208.18,239.26,208.17z M245.32,209.53c-0.02-0.16,0.05-0.42-0.25-0.41c-0.24,0-0.43,0.17-0.44,0.41
				c-0.01,0.22,0.11,0.43,0.39,0.43C245.3,209.95,245.32,209.75,245.32,209.53z M246.7,213.48c0.02-0.04,0.06-0.09,0.05-0.12
				c-0.01-0.03-0.08-0.04-0.12-0.06c-0.02,0.04-0.06,0.09-0.05,0.12C246.59,213.45,246.66,213.46,246.7,213.48z"/>
			<path class="st8" d="M219.87,158.15c1.64-2.04,3.85-3.11,6.33-3.65c2.04-0.44,4.1-0.34,6.08,0.29c0.91,0.29,1.52,1.08,1.57,2.06
				c0.07,1.56-0.43,2.99-1.3,4.29c-1.2-0.5-2.41-0.98-3.59-1.52c-2.17-0.99-4.45-1.33-6.81-1.32c-0.6,0-1.2,0.08-1.79,0.13
				C220.13,158.46,219.9,158.47,219.87,158.15z"/>
			<path class="st9" d="M195.87,186.64c0.5,0.58,0.71,1.33,1.09,1.99c1.18,2.08,2.88,3.6,4.91,4.78c1.96,1.14,4.09,1.84,6.35,1.82
				c1.45-0.01,2.97,0.16,4.36-0.56c0.11,2.22,0.11,2.19-2.1,2.24c-4.4,0.11-8.52-0.92-12.37-3c-2.2-1.19-4.03-2.83-5.45-4.9
				c-0.07-0.1-0.12-0.21-0.18-0.32c-0.04-0.09-0.08-0.18-0.15-0.34C193.7,188.13,194.82,187.45,195.87,186.64z"/>
			<path class="st9" d="M211.87,182.96c-0.57-1.39-0.32-2.76,0.13-4.11c0.5-1.53,1.29-2.93,2.61-3.86c2.04-1.44,4.21-1.05,5.84,0.91
				c0.21,0.25,0.39,0.51,0.6,0.75c0.55,0.64,1.03,1.38,2,1.45c0.48,0.03,0.65,0.28,0.59,0.77c-0.03,0.26,0.07,0.53,0.11,0.8
				c-0.66,0.95-1.69,1.1-2.71,1.18c-1.55,0.13-2.96-0.55-4.45-0.82c-1.88-0.35-3.6,0.54-4.28,2.31
				C212.22,182.59,212.2,182.89,211.87,182.96z M219.42,176.71c-1.35-1.93-2.34-1.75-3.52-1.46c-1.18,0.29-2.63,2.15-2.71,3.38
				C214.79,176.61,216.8,175.86,219.42,176.71z"/>
			<path class="st10" d="M228.37,166.66c1.19-0.43,1.2-0.44,2.04,0.53c1.62,1.86,2.39,3.94,1.71,6.42
				c-0.15,0.55-0.39,0.77-1.02,0.77c-1.97-0.02-3.9,0.26-5.57,1.43c-0.3,0.21-0.67,0.41-0.84,0.71c-0.44,0.76-0.91,0.49-1.43,0.14
				c-1.53-1.02-2.27-2.51-2.44-4.28c-0.08-0.83-0.14-1.68,0.15-2.5c0.39,0.21,0.75,0.39,0.36,0.93c-0.16,0.22-0.17,0.54,0.16,0.96
				c-0.04-0.99,0.44-0.65,0.8-0.53c0.21,0.07,0.39,0.2,0.58,0.32c0.38,0.22,0.7,0.41,1.1-0.04c0.3-0.34,0.7-0.17,0.95,0.14
				c0.13,0.16,0.22,0.31,0.44,0.32c0.12,0.42,0.22,0.85,0.36,1.27c0.17,0.53,0.99,1.12,1.51,1.1c0.68-0.03,0.95-0.5,1.16-1.06
				c0.28-0.73,0.32-1.47,0.22-2.23c0.02-0.56,0.05-1.12,0.06-1.69c0.02-0.56-0.17-1.23,0.07-1.66
				C229.09,167.07,228.81,166.9,228.37,166.66z M223.2,175.06c-0.33-0.14-0.65-0.18-1.07-0.02
				C222.57,175.29,222.89,175.26,223.2,175.06z"/>
			<path class="st11" d="M211.92,165.91c-0.57-0.32-1.26-0.44-1.63-1.04c-0.94-1.51-0.17-2.6,1.25-3.22
				c1.07-0.47,2.23-0.29,3.22,0.48c0.36,0.28,0.58,0.55,0.16,0.92c-0.9,0.79-1.41,1.93-2.36,2.69c-0.13,0.11-0.31,0.23-0.34,0.38
				c-0.2,1.03-0.86,0.82-1.59,0.7c-1.04-0.17-2.12-0.19-3.12-0.56c-1.14-0.43-2-1.14-2.38-2.38c-0.51-1.67,0.55-2.54,1.71-3.17
				c1.66-0.91,3.37-0.6,5.06-0.01c0.12,0.04,0.24,0.08,0.24,0.23c0,0.23-0.21,0.26-0.36,0.32c-0.55,0.22-1.09,0.38-1.55,0.86
				c-0.97,0.99-1.06,2.2-0.03,3.16C210.67,165.69,211.25,165.92,211.92,165.91z"/>
			<path class="st9" d="M186.37,179.52c0.31,0.22,0.16,0.54,0.19,0.82c0.04,0.36-0.02,0.83,0.39,0.95c0.46,0.13,0.79-0.18,1.11-0.55
				c1.43-1.67,3.18-2.82,5.41-3.12c0.09-0.01,0.19,0.02,0.36,0.05c-1.1,1.56,0.49,2.05,1.11,2.92c0.1,0.13,0.26,0.22,0.29,0.4
				c-0.02,0.03-0.05,0.06-0.07,0.09c-1.86-1.26-4.57-0.91-6.19-0.02c0.7,0.11,1.3-0.25,1.92-0.14c-0.53,0.73-1.49,0.89-2.08,1.57
				c-0.77,0.91-0.58,2.48,0.51,2.92c1.93,0.78,3.9,0.91,5.83-0.05c0.35-0.18,0.66-0.43,1-0.63c0.36-0.21,0.54-0.13,0.55,0.32
				c0.01,0.66-0.43,1.06-0.8,1.51c-0.91,0.21-1.72,0.7-2.64,0.91c-1.6,0.37-3.03-0.03-4.35-0.92c-0.82-0.55-1.69-1.13-2.22-1.93
				c-1.81-2.72-4.73-2.89-7.5-3.41c-0.44-0.08-0.87-0.17-1.28-0.33c-0.64-0.25-0.71-0.55-0.3-1.19c0.33,0.1,0.65,0.23,0.99,0.29
				c1.57,0.27,3.12,0.54,4.6,1.18c0.77,0.33,1.65,0.51,2.51,0.16C186.06,180.77,185.94,180.03,186.37,179.52z"/>
			<path class="st8" d="M238.61,165.57c-1.1-1.08-2.4-1.92-3.7-2.74c-0.45-0.28-0.89-0.62-1.38-0.81c-0.7-0.28-0.62-0.78-0.36-1.23
				c0.53-0.92,0.78-1.93,1.05-2.94c0.23-0.86,0.01-1.65-0.54-2.5c1.34,0.39,2.41,1.07,3.4,1.83c1.35,1.03,2.53,2.25,3.48,3.68
				c0.04,0.06,0.04,0.14,0.05,0.21c-0.01,1.06-0.03,2.12-0.04,3.18c-0.01,0.65-0.32,1.22-0.7,1.66c-0.25,0.28-0.67-0.24-1.03-0.33
				C238.77,165.57,238.69,165.57,238.61,165.57z"/>
			<path class="st8" d="M217.66,160.6c0.9-1.17,2.18-1.13,3.38-1.24c3.15-0.29,6.14,0.29,8.95,1.75c1.28,0.66,1.27,0.68,0.18,1.55
				c-1.51,1.21-3.25,1.54-5.14,1.37c-2.16-0.2-3.94-1.26-5.68-2.42C218.8,161.26,218.22,160.94,217.66,160.6z"/>
			<path class="st9" d="M231.31,188.12c0.1,0.16,0.21,0.14,0.37,0.05c2.15-1.13,4.26-2.37,6.13-3.91c1.74-1.44,3.44-3,4.39-5.14
				c0.62-1.4,0.92-2.84,0.3-4.34c0-0.12,0-0.25,0-0.37c0-0.07,0.03-0.14,0.07-0.27c0.84,0.5,1.16,1.27,1.26,2.14
				c0.3,2.44-0.7,4.47-2.03,6.4c-2.73,3.95-6.54,6.43-11,8c-0.63,0.22-1.27,0.4-1.9,0.59c-0.09,0.03-0.19-0.01-0.46-0.02
				C229.6,190.28,230.51,189.25,231.31,188.12z"/>
			<path class="st10" d="M220.31,212.57c-2.3-1.04-3.89-2.72-4.65-5.15c-0.26-0.84-0.23-0.84,0.62-0.89c3.1-0.2,6.07,0.5,9.04,1.25
				c0.04,0.01,0.06,0.07,0.09,0.11c-0.58-0.04-1.32,0.05-1.44,0.57c-0.24,1.08-0.88,1.82-1.62,2.55c-0.38,0.38-1,0.58-0.9,1.43
				c-0.34-0.43-0.5-0.86-0.97-0.64C220.13,211.96,220.21,212.28,220.31,212.57z"/>
			<path class="st5" d="M175.08,175.21c0.33-0.73,1.01-0.99,1.7-1.17c3.46-0.87,6.89-0.78,10.27,0.4c0.72,0.25,1.45,0.47,2.18,0.71
				c0.19,0.06,0.41,0.15,0.45,0.35c0.05,0.26-0.21,0.27-0.39,0.36c-0.83,0.4-1.59,0.89-2.3,1.47c-1.1-0.1-2.14-0.41-3.19-0.73
				c-1.73-0.54-3.54-0.51-5.33-0.47C177.25,176.15,176.09,175.94,175.08,175.21z"/>
			<path class="st12" d="M220.31,212.57c-0.1-0.29-0.18-0.61,0.16-0.77c0.47-0.22,0.63,0.21,0.97,0.64
				c-0.11-0.85,0.51-1.05,0.9-1.43c0.73-0.73,1.37-1.47,1.62-2.55c0.12-0.51,0.86-0.61,1.44-0.57c1.76,0.26,3.52,0.52,5.3,0.78
				C228.55,212.62,223.4,214.2,220.31,212.57z"/>
			<path class="st13" d="M213.05,169.43c0.02-0.1,0.04-0.2,0.07-0.3c0.02-0.05,0.05-0.1,0.07-0.15c0.61-1.95,1.65-3.62,3.19-4.98
				c0.35-0.31,0.66-0.43,1.08-0.08c0.37,0.31,0.81,0.58,1.26,0.78c0.59,0.27,0.82,0.72,0.86,1.33c0.06,0.87,0.11,1.75-0.04,2.63
				c-0.08-0.04-0.15-0.05-0.16-0.08c-0.15-0.41-0.21-0.92-0.79-0.94c-0.55-0.01-0.84,0.36-1.12,0.8c-0.58,0.9-0.8,1.89-0.98,2.92
				c-1.09-0.22-1.96-0.71-2.29-2.06c-0.07,0.3-0.1,0.39-0.11,0.48c-0.02,0.11,0.02,0.25-0.14,0.3
				C213.63,169.55,213.63,169.55,213.05,169.43z"/>
			<path class="st5" d="M227.47,212.63c1.49-0.94,2.8-2.06,3.64-3.65c0.12-0.24,0.3-0.29,0.54-0.27c0.54,0.04,1.08,0.06,1.62,0.08
				c-0.09,1.02-0.35,2.01-0.95,2.84c-0.42,0.59-0.59,1.56-1.77,1.34c0.19,0.39,0.36,0.67,0.47,0.96c0.19,0.5,0.32,1.02,0.22,1.57
				c-0.17,0.96-1.02,1.1-1.72,1.25c-0.84,0.18-1.59-0.16-2.13-0.87c-0.15-0.21-0.15-0.55-0.5-0.58c-0.03-0.03-0.04-0.07-0.04-0.11
				c0.01-0.06,0.02-0.12,0.02-0.18l0,0c0.05-0.05,0.09-0.1,0.14-0.14c-0.2-0.74,0.08-1.37,0.48-1.97
				C227.53,212.85,227.48,212.73,227.47,212.63z"/>
			<path class="st13" d="M225.33,171.98c-0.22,0-0.31-0.15-0.44-0.32c-0.25-0.31-0.65-0.48-0.95-0.14c-0.4,0.45-0.73,0.27-1.1,0.04
				c-0.19-0.11-0.37-0.25-0.58-0.32c-0.36-0.12-0.84-0.46-0.8,0.53c-0.33-0.43-0.31-0.74-0.16-0.96c0.39-0.54,0.03-0.73-0.36-0.93
				c0.03-0.6,0.24-1.15,0.46-1.7c0.7-1.68,0.76-1.71,2.48-1.37c1.5,0.3,2.99,0.22,4.47-0.15c0.44,0.23,0.72,0.41,0.37,1.04
				c-0.24,0.43-0.06,1.1-0.07,1.66c-0.02,0.56-0.04,1.12-0.06,1.69c-0.16-0.59-0.33-1.18-0.71-1.69c-0.76-1.01-1.79-0.92-2.31,0.22
				C225.23,170.35,225.2,171.16,225.33,171.98z"/>
			<path class="st9" d="M208.12,175.37c0.16,0.45,0.17,0.92,0.15,1.39c-0.12,2.74,0.54,5.3,2,7.6c0.91,1.44,2.05,2.69,3.49,3.73
				c1.08,0.78,2.14,1.53,3.32,2.13c0.28,0.14,0.38,0.08,0.53-0.12c0.17,0.62,0.75,0.95,1.11,1.56c-0.81,0.07-1.49-0.22-2.14-0.47
				c-5.16-2.02-8.23-5.78-9.13-11.23C207.19,178.39,207.22,176.79,208.12,175.37z"/>
			<path class="st14" d="M218.88,230.02c-0.06-0.25-0.12-0.51-0.18-0.76c0.2-0.39,0.45-0.72,0.8-1.02c0.37-0.32,0.63-0.76,0.75-1.28
				c0.1-0.44-0.55-0.52-0.37-0.94c0.52-0.29,1.04-0.57,1.56-0.86c0.24,0.14-0.05,0.42,0.18,0.6c0.43-0.61,0.55-1.31,0.62-2.02
				c0.03-0.33,0.07-0.55,0.5-0.54c0.39,0.01,0.65,0.04,0.71,0.52c0.09,0.81,0.29,1.6,0.75,2.29c0.06-0.03,0.11-0.04,0.13-0.07
				c0.1-0.24-0.14-0.65,0.16-0.72c0.33-0.08,0.4,0.35,0.55,0.59c0.42,0.66,0.76,1.33,0.65,2.14c-1.81,0.09-3.49,0.66-5.11,1.43
				C220.03,229.62,219.54,230.05,218.88,230.02z"/>
			<path class="st15" d="M231.91,162.19c0.74,0.2,0.61,0.61,0.25,1.07c-1.92,2.4-4.5,3.08-7.43,2.86c-2.45-0.19-4.52-1.32-6.52-2.61
				c-1.39-0.89-2.79-1.79-4.36-2.8c1,0,1.83,0,2.65,0c-0.17,0.2-0.43,0.07-0.64,0.19c0.79,0.33,1.57,0.64,2.3,1.06
				c1.85,1.09,3.71,2.15,5.8,2.74c1.92,0.54,3.81,0.6,5.64-0.23C230.62,164.02,231.63,163.46,231.91,162.19z"/>
			<path class="st9" d="M226.89,215.31c0.35,0.04,0.35,0.38,0.5,0.58c0.53,0.72,1.29,1.05,2.13,0.87c0.7-0.15,1.55-0.29,1.72-1.25
				c0.1-0.55-0.03-1.07-0.22-1.57c-0.11-0.3-0.27-0.57-0.47-0.96c1.18,0.23,1.35-0.75,1.77-1.34c0.6-0.83,0.86-1.82,0.95-2.84
				c0.77-0.05,1.53-0.11,2.3-0.15c0.16-0.01,0.38-0.12,0.47,0.08c0.09,0.22-0.1,0.36-0.27,0.46c-0.17,0.1-0.36,0.18-0.52,0.29
				c-0.49,0.34-0.88,0.8-0.81,1.42c0.2,1.63-1.19,2.25-2,3.23c-0.15,0.18-0.31,0.07-0.43-0.08c-0.06-0.08-0.09-0.18-0.16-0.25
				c-0.06-0.07-0.15-0.11-0.35-0.25c0.19,0.76,0.6,1.29,0.7,1.93c0.1,0.68-0.55,1.2-0.34,1.93c-1.26-0.33-0.58,0.48-0.52,0.91
				c-0.5,0.08-0.77-0.45-1.17-0.4c-0.45,0.06-0.28,0.71-0.7,0.9c-0.06-0.07-0.13-0.14-0.17-0.23c-0.24-0.58-0.51-0.85-1.01-0.21
				c-0.12,0.15-0.31,0.25-0.53,0.2l0,0c0.03-0.09-0.31-1.51-0.37-1.61C227.12,216.45,226.88,215.92,226.89,215.31z"/>
			<path class="st12" d="M228.53,192.32c-0.02,0.19-0.01,0.27-0.03,0.34c-0.71,2.05-4.19,4-6.31,3.53
				c-1.14-0.26-2.01-1.64-1.78-2.78c0.06-0.3,0.18-0.39,0.49-0.37C223.46,193.2,225.98,192.98,228.53,192.32z"/>
			<path class="st16" d="M221.53,191.26c1.19,0.1,2.34-0.02,3.42-0.57c0.83,0.07,1.44-0.43,2.13-0.76c1.6-0.74,2.65-1.94,3.37-3.5
				c0.59-1.27,0.28-2.92-0.71-3.77c-0.11-0.36-0.09-0.56,0.39-0.65c1.56-0.3,1.49-0.33,1.57,1.25c0.28,5.08-3.79,8.48-7.76,9.13
				c-2.01,0.33-3.86-0.15-5.38-1.64c0.2-0.16,0.37-0.13,0.55-0.11c0.61,0.82,1.58,0.54,2.38,0.76
				C221.49,191.39,221.51,191.3,221.53,191.26z"/>
			<path class="st9" d="M244.71,211.9c-0.25,0.2-0.16,0.39,0.01,0.59c0.23,0.28,0.53,0.51,0.62,0.89c1.82,1.62,3.93,2.68,6.3,3.21
				c0.76,0.17,1.58,0.25,2.16-0.51c0.43,0.38,0.99,0.79,0.83,1.37c-0.17,0.65-0.92,0.61-1.46,0.63c-2.47,0.07-4.75-0.55-6.75-2.04
				c-1.49-1.11-2.57-2.66-4.1-3.82C243.14,211.95,243.93,211.91,244.71,211.9z"/>
			<path class="st11" d="M238.61,165.57c0.07,0,0.15,0,0.22,0.02c0.37,0.09,0.78,0.61,1.03,0.33c0.38-0.43,0.69-1.01,0.7-1.66
				c0.01-1.06,0.03-2.12,0.04-3.18c1.25,1.48,1.82,3.27,2.32,5.1c0.38,1.4,0.45,2.81,0.17,4.24c-0.05,0.24,0.14,0.34,0.22,0.51
				c0.21,0.41,0.4,0.84-0.25,1.07c-0.18,0.06-0.34,0.42-0.53,0.07c-0.1-0.19-0.16-0.5,0.13-0.65c0.47-0.22,0.24-0.42,0.05-0.72
				C241.61,168.78,240.13,167.16,238.61,165.57z M243.02,171.62l0.03-0.05l-0.05,0L243.02,171.62z"/>
			<path class="st5" d="M250.96,211.46c0.41-0.01,0.84,0.08,1.1-0.4c0.19-0.34,0.68,0.09,0.86-0.22c0.31-0.52,0.81-0.56,1.3-0.73
				c0.29-0.1,0.57-0.09,0.85-0.17c1.92,0.88,3.94,1.45,6.02,1.83c-0.71,0.29-1.39,0.67-2.12,0.84c-0.78,0.17-1.57,0.32-2.38,0.4
				C254.48,213.22,252.61,212.78,250.96,211.46z"/>
			<path class="st5" d="M185.68,181.3c-0.86,0.35-1.75,0.17-2.51-0.16c-1.48-0.64-3.03-0.91-4.6-1.18
				c-0.34-0.06-0.66-0.19-0.99-0.29c1.07-1.32,2.59-1.48,4.12-1.55c1.29-0.06,2.53,0.33,3.76,0.68c0.31,0.09,0.45,0.27,0.34,0.59
				C185.58,180.03,185.63,180.66,185.68,181.3z"/>
			<path class="st6" d="M219.09,214.89c-2.06-1.35-3.77-3.04-4.99-5.19c-0.22-0.38-0.44-0.78-0.48-1.23
				c0.39-0.59,0.79-1.18,1.18-1.77c0.46-0.2,0.35,0.21,0.39,0.4c0.73,3.27,2.8,5.3,5.91,6.35c0.91,0.31,1.85,0.27,2.8,0.24
				c0.29-0.01,0.59,0.01,0.89,0.02c-0.64,0.27-1.3,0.09-1.95,0.11c-0.77,0.02-1.55-0.06-2.21,0.48c-0.06-0.05-0.11-0.09-0.17-0.14
				c0.01-0.63-0.41-0.65-0.87-0.63c-0.04-0.24-0.21-0.41-0.37-0.17c-0.13,0.19-0.42,0.63-0.27,0.66
				C219.9,214.2,218.94,214.63,219.09,214.89z"/>
			<path class="st16" d="M211.87,182.96c0.33-0.08,0.35-0.37,0.44-0.62c0.67-1.77,2.4-2.66,4.28-2.31c1.48,0.28,2.9,0.96,4.45,0.82
				c1.02-0.09,2.05-0.24,2.71-1.18c0.07,0.13,0.14,0.26,0.21,0.38c0.46,0.84,0.29,1.01-0.52,1.53c-1.86,1.19-3.68,0.64-5.54,0.08
				c-0.61-0.19-1.24-0.36-1.87-0.46c-1.78-0.27-3.18,0.88-3.5,2.87C212.14,183.78,211.98,183.39,211.87,182.96z"/>
			<path class="st9" d="M195.22,180.98c0.86-0.18,1.66,0.28,2.52,0.21c1.28-0.1,2.47-1.08,2.65-2.32c0.03-0.19,0.07-0.4-0.13-0.53
				c0.19-0.4,0.48-0.99,0.81-0.92c0.37,0.07,0.32,0.73,0.38,1.15c0.27,1.97-0.33,3.62-1.85,4.93c-0.09,0.08-0.15,0.19-0.22,0.28
				c-0.01,0.55-0.64,0.38-0.67,0.35c-0.45-0.48-1.26-0.24-1.65-0.83c-0.04-0.05-0.18-0.03-0.28-0.04c-0.4-0.84-0.93-1.58-1.63-2.19
				C195.17,181.04,195.19,181.01,195.22,180.98z"/>
			<path class="st15" d="M211.57,205.24c0.21,0.51,0.67,0.39,1.06,0.42c1.68,0.12,3.35-0.14,5.03-0.16
				c2.72-0.03,5.38,0.39,8.03,0.97c2.85,0.63,5.7,1.32,8.67,1.14c1.05-0.06,2.03-0.3,3.01-0.65c0.46-0.16,0.36-0.52,0.38-0.85
				c0.21,0.21,0.45,0.39,0.63,0.62c0.33,0.45,0.17,0.74-0.38,0.87c-2.99,0.67-5.98,0.5-8.98,0.05c-2.07-0.31-4.09-0.81-6.14-1.19
				c-3.03-0.56-6.08-0.98-9.16-0.34c-0.5,0.11-0.98,0.28-1.5,0.35c-0.33,0.05-0.5,0.34-0.11,0.62c0.1,0.07,0.25,0.12,0.29,0.21
				c0.06,0.17,0.3,0.36,0.14,0.52c-0.18,0.18-0.41,0.07-0.59-0.1c-0.48-0.48-0.84-1.04-1.08-1.67
				C210.61,205.41,211.35,205.53,211.57,205.24z"/>
			<path class="st9" d="M250.96,211.46c1.65,1.31,3.52,1.76,5.62,1.55c0.81-0.08,1.6-0.23,2.38-0.4c0.73-0.16,1.42-0.55,2.12-0.84
				c0.34,0.05,0.68,0.1,1.12,0.17c-0.66,1.04-1.62,1.52-2.64,1.87c-2.29,0.79-4.63,0.83-6.93,0.12c-1.18-0.37-1.96-1.36-2.56-2.43
				c-0.01-0.33,0.2-0.36,0.45-0.34c0,0,0.01,0,0.01,0c0.05,0.05,0.1,0.09,0.15,0.14C250.74,211.42,250.84,211.45,250.96,211.46z"/>
			<path class="st5" d="M253.8,216.08c-0.58,0.75-1.4,0.67-2.16,0.51c-2.37-0.52-4.48-1.59-6.3-3.21c0.43-0.18,0.77-0.15,1.04,0.32
				c0.33,0.58,0.97,0.55,1.17-0.09c0.19-0.59,0.5-0.69,1.05-0.69c0.52,0,1.03-0.3,1.56,0C251.23,214.14,252.68,214.92,253.8,216.08z
				"/>
			<path class="st10" d="M213.05,169.43c0.58,0.11,0.58,0.11,0.9,0.66c0.16-0.05,0.11-0.19,0.14-0.3c0.02-0.09,0.04-0.18,0.11-0.48
				c0.33,1.35,1.21,1.84,2.29,2.06c0.1,0.62,0.02,1.31,0.58,1.79c-0.14,0.23-0.45,0.05-0.6,0.25c-0.98,0.22-1.88,0.59-2.63,1.27
				c-0.35,0.32-0.5,0.22-0.68-0.16C212.38,172.84,212.45,171.14,213.05,169.43z"/>
			<path class="st5" d="M219.99,165.53c0.72,0.04,1.17,0.59,1.8,0.72c0.26,0.05,0.05,0.33-0.05,0.49c-1.09,1.71-1.44,3.59-1.28,5.59
				c0.16,2.06,1,3.73,2.84,4.81c0.15,0.09,0.3,0.17,0.45,0.26c0.15,0.09,0.19,0.24,0.11,0.38c-0.07,0.13-0.2,0.13-0.33,0.07
				c-0.64-0.31-1.32-0.64-1.69-1.25c-0.75-1.21-1.7-2.17-2.95-2.83c-0.24-0.13-0.42-0.18-0.27-0.53
				C219.7,170.79,220.23,168.24,219.99,165.53z"/>
			<path class="st9" d="M241.73,171.52c-1.75-3.01-4.33-5.01-7.58-6.16c-0.86-0.31-1.76-0.43-2.68-0.4
				c0.49-0.61,1.03-1.19,1.36-1.92c0.12-0.26,0.26-0.24,0.46-0.12c3.11,1.82,5.91,4.02,8.12,6.89
				C241.79,170.31,241.74,170.93,241.73,171.52z"/>
			<path class="st9" d="M224.63,177.9c0.16,0.56,0.6,0.91,1.01,1.23c1.35,1.05,2.95,1.13,4.56,0.95c1.37-0.16,2.68-0.6,3.92-1.18
				c0.49-0.23,1-0.46,1.47-0.75c0.23-0.14,0.47-0.4,0.71-0.14c0.24,0.27-0.01,0.56-0.16,0.8c-0.07,0.12-0.22,0.19-0.33,0.29
				c-0.71,0.13-1.26,0.62-1.9,0.91c-2.37,1.09-4.79,1.75-7.39,0.88c-0.59-0.19-1.14-0.42-1.58-0.89
				C224.35,179.35,224.19,178.68,224.63,177.9z"/>
			<path class="st9" d="M175.08,175.21c1.02,0.73,2.17,0.94,3.4,0.91c1.8-0.04,3.61-0.07,5.33,0.47c1.05,0.33,2.09,0.63,3.19,0.73
				c-0.02,0.04-0.04,0.09-0.07,0.13c-0.28,0.37-0.5,0.92-0.87,1.06c-0.39,0.15-0.73-0.43-1.15-0.61c-1.24-0.52-2.53-0.72-3.84-0.52
				c-0.85,0.13-1.63,0.07-2.46-0.13c-0.98-0.23-2.01-0.25-2.99-0.47C174.66,176.58,174.52,176.04,175.08,175.21z"/>
			<path class="st9" d="M252.72,207.78c1.02,0.04,1.95,0.52,3.01,0.45c0.91-0.06,1.79-0.21,2.68-0.35c0.27-0.1,0.58-0.15,0.81-0.3
				c0.55-0.35,1.32-0.42,1.6-1.16c0.07-0.01,0.18,0,0.21-0.04c0.11-0.19-0.08-0.11-0.12-0.11c-0.54-0.01-1.08,0-1.62-0.02
				c-0.24-0.01-0.49,0.06-0.71-0.12c1.09,0,2.17,0.01,3.26-0.01c0.4-0.01,0.39,0.16,0.28,0.44c-0.4,1.03-1.22,1.65-2.14,2.17
				c-0.95,0.54-2,0.84-3.07,1.03c-0.21,0.04-0.4,0.01-0.57-0.08C255.13,209.06,253.77,208.71,252.72,207.78z"/>
			<path class="st14" d="M228.83,227.03c-0.52-1.23-0.42-2.07,0.36-2.8c0.2,0.13,0.05,0.45,0.46,0.6c0.04-0.65,0.07-1.27,0.11-1.88
				c0.01-0.22-0.13-0.53,0.31-0.5c0.31,0.02,0.59-0.02,0.68,0.45c0.14,0.7,0.13,1.48,0.76,2c-0.1,0.25-0.79,0.39-0.38,0.67
				c0.62,0.42,0.88,1.19,1.64,1.44c-0.22,0.26-0.45,0.17-0.65,0.16c-0.2-0.01-0.32-0.42-0.55-0.17c-0.21,0.22,0.04,0.46,0.1,0.68
				c0.12,0.4,0.34,0.78,0.73,0.97c0.29,0.14,0.39,0.35,0.41,0.64c-0.44-0.13-0.74-0.47-1.08-0.73
				C230.86,227.87,230.06,227.04,228.83,227.03z"/>
			<path class="st15" d="M228.07,184.45c0.61-0.1,0.69,0.21,0.52,0.69c-0.79,2.19-2.02,4.01-4.18,5.1c-0.54,0.27-1.04,0.34-1.51,0
				c-0.47-0.34-0.55-0.87-0.41-1.4c0.13-0.52,0.26-1.05,0.67-1.45c0.07,0.15,0.1,0.3,0.11,0.48c0.03,0.53,0.88,1.25,1.25,1.08
				c0.87-0.4,1.59-0.95,1.79-1.97c0.29-0.18,0.35-0.51,0.5-0.78C227.15,185.55,227.45,184.89,228.07,184.45z"/>
			<path class="st9" d="M241.23,217.39c0.11,0.05,0.23,0.08,0.33,0.14c0.19,0.11,0.37,0.23,0.67,0.42
				c-1.56,0.44-2.93,0.19-4.25-0.41c-1.33-0.6-2.46-1.48-3.36-2.62c-0.92-1.17-1.04-0.8,0.13-2.11c0.21,0.17,0.44,0.3,0.59,0.55
				c0.57,0.98,1.32,1.83,2.23,2.51C238.65,216.69,239.81,217.38,241.23,217.39z"/>
			<path class="st9" d="M181.49,171.07c0.67,0.94,1.75,0.9,2.71,1.03c1.77,0.23,3.49,0.41,5.11,1.36c1.07,0.63,2.28,1.13,3.54,1.36
				c-1.4,0.59-2.63-0.1-3.87-0.55c-2.18-0.8-4.39-1.44-6.72-1.55c-0.54-0.03-0.97-0.35-1.34-0.7
				C180.5,171.62,180.7,171.33,181.49,171.07z"/>
			<path class="st7" d="M220.62,214.3c0.65-0.54,1.44-0.46,2.21-0.48c0.65-0.02,1.32,0.16,1.95-0.11c0.89-0.36,1.79-0.71,2.68-1.07
				c0.01,0.09,0.07,0.21,0.03,0.27c-0.4,0.6-0.68,1.23-0.48,1.97c-0.05,0.05-0.09,0.1-0.14,0.14c0,0,0,0,0,0
				c-0.13,0.02-0.26,0.03-0.27,0.2c-0.02,0.13-0.03,0.26-0.05,0.4c-0.52,0-1.04,0.04-1.56-0.02
				C223.46,215.43,221.93,215.24,220.62,214.3z"/>
			<path class="st9" d="M232.82,229.29c-0.02-0.28-0.12-0.49-0.41-0.64c-0.39-0.2-0.61-0.57-0.73-0.97
				c-0.06-0.22-0.31-0.46-0.1-0.68c0.24-0.25,0.35,0.16,0.55,0.17c0.21,0.01,0.43,0.11,0.65-0.16c-0.76-0.25-1.02-1.01-1.64-1.44
				c-0.42-0.28,0.28-0.42,0.38-0.67c0.68,0.76,1.67,1.01,2.5,1.53c0.37,0.73,1.14,0.33,1.68,0.54c0,0.32-0.38,0.13-0.4,0.41
				c0.33,0.17,0.67,0.35,1.02,0.53c-0.01,0.06-0.02,0.12-0.02,0.18c-0.48,0-0.95,0-1.43,0l-0.05,0.01c0,0-0.05-0.02-0.05-0.02
				c-0.04-0.09-0.09-0.12-0.15-0.01c-0.15,0.05-0.33-0.09-0.5,0.1c0.32,0.18,0.63,0.35,1.01,0.56c-0.67,0.3-1.24,0.65-1.7,1.13
				C233.2,229.69,232.89,229.61,232.82,229.29z"/>
			<path class="st4" d="M231.91,162.19c-0.28,1.26-1.29,1.82-2.32,2.29c-1.83,0.83-3.72,0.78-5.64,0.23
				c-2.09-0.59-3.95-1.65-5.8-2.74c-0.73-0.43-1.51-0.73-2.3-1.06c0.21-0.12,0.48,0,0.64-0.19c0.36-0.08,0.64,0.01,0.95,0.23
				c1.97,1.39,3.98,2.7,6.37,3.32c2.81,0.73,5.26,0.1,7.33-1.93C231.4,162.09,231.58,161.87,231.91,162.19z"/>
			<path class="st16" d="M238.8,230.75c0.48,0.56,0.75,1.16,0.33,1.87c-0.49,0.84-1.45,1.38-2.27,1.22
				c-0.36-0.07-0.72-0.19-1.04-0.36c-1.4-0.71-1.49-1.23-0.46-2.45C236.67,231.92,237.6,231.84,238.8,230.75z"/>
			<path class="st5" d="M237.59,213.25c1.14-0.06,2.27-0.17,3.36-0.55c0.37-0.13,0.62,0.03,0.88,0.22c0.77,0.55,1.42,1.22,2,1.96
				c-0.87,0.29-1.74,0.11-2.6-0.03C239.88,214.65,238.65,214.12,237.59,213.25z"/>
			<path class="st9" d="M237.59,213.25c1.07,0.86,2.29,1.39,3.64,1.61c0.86,0.14,1.73,0.32,2.6,0.03c0.36,0.32,0.71,0.65,1.07,0.97
				c-0.04,0.07-0.09,0.13-0.13,0.2c-2.21,0.2-4.41,0.35-6.27-1.27c-0.16-0.13-0.31-0.11-0.48-0.1c-0.35-0.44-1.02-0.69-0.88-1.44
				C237.29,213.25,237.44,213.25,237.59,213.25z"/>
			<path class="st9" d="M221.7,216.2c0.7,0.25,1.35,0.61,2.07,0.78c0.15,0.04,0.53,0.2,0.28,0.31c-0.32,0.14,0.28,0.83-0.46,0.6
				c-0.6-0.19-0.31,0.44-0.49,0.69c-0.44-0.01-0.53-0.65-0.9-0.63c-0.44,0.03-0.32,0.68-0.69,0.87c-0.57-0.12-0.21-1.66-1.36-0.87
				c0.12-1.12-1.49-1.32-1.23-2.53c0.25,0.01,0.5,0.27,0.79,0.18C220.24,216.25,220.98,216.21,221.7,216.2z"/>
			<path class="st14" d="M221.53,191.26c-0.01,0.05-0.04,0.13-0.04,0.13c-0.8-0.22-1.77,0.06-2.38-0.76
				c2.41-0.4,2.95-2.45,2.29-4.52c-0.11-0.35-0.25-0.7-0.37-1.05c0.32-0.44,0.8-0.32,1.24-0.35c0.31,1,0.65,1.93-0.03,2.99
				c-0.59,0.93-0.59,2.01,0.19,3.03c-0.5,0.05-0.9,0.09-1.31,0.13C221.12,191.21,221.43,191.11,221.53,191.26z"/>
			<path class="st9" d="M243.23,210.56c0.56,0.04,1.04-0.44,1.67-0.23c-0.13,0.33-0.36,0.58-0.64,0.8c-0.48-0.02-0.91,0.12-1.36,0.3
				c-1.96,0.76-3.97,1.18-6.08,0.92c-1.15-0.14-1.63-0.6-1.63-1.48c1.85,1.16,3.74,0.84,5.71,0.32c0.67-0.18,1.37-0.31,2.05-0.49
				C243.04,210.66,243.14,210.61,243.23,210.56z"/>
			<path class="st14" d="M229.74,182.66c0.99,0.85,1.3,2.5,0.71,3.77c-0.72,1.55-1.77,2.76-3.37,3.5c-0.7,0.32-1.31,0.82-2.13,0.76
				c0.76-0.41,1.4-0.99,2.09-1.51c1.57-0.15,2.9-2.38,2.33-3.9C229.57,184.41,229.77,183.55,229.74,182.66z"/>
			<path class="st5" d="M237.14,213.25c-0.14,0.74,0.53,0.99,0.88,1.44c0.58,0.91,1.5,1.43,2.33,2.06c0.29,0.22,0.59,0.42,0.89,0.63
				c-1.43,0-2.58-0.69-3.66-1.51c-0.9-0.68-1.65-1.53-2.23-2.51c-0.14-0.25-0.38-0.38-0.59-0.55c0.1-0.17,0.13-0.51,0.44-0.26
				C235.77,212.99,236.48,213.06,237.14,213.25z"/>
			<path class="st9" d="M199.42,178.92c-0.52-0.5-0.14-1.08,0.07-1.45c0.44-0.79,0.86-1.61,1.68-2.19c0.54-0.39,1.14-0.54,1.71-0.79
				c0.95-0.43,1.93-0.8,2.74-1.5c0.4,0.73-0.03,1.19-0.59,1.5c-0.62,0.34-1.3,0.59-1.97,0.84
				C201.29,175.97,200.23,177.32,199.42,178.92z"/>
			<path class="st17" d="M212.78,229.58c0.09-1.01,0.63-1.51,1.79-1.6c0.45-0.04,0.93-0.09,1.32,0.24
				c-0.46,0.05-0.93,0.08-1.39,0.17c-0.27,0.05-0.52,0.23-0.49,0.54c0.03,0.3,0.3,0.34,0.57,0.34c0.72-0.01,1.44,0,2.16,0
				c0.3,0.4,0.38,0.86,0.32,1.35c-0.32,0.01-0.64,0-0.95,0.04C214.83,230.81,213.69,230.56,212.78,229.58z"/>
			<path class="st16" d="M232.82,229.29c0.07,0.33,0.39,0.4,0.6,0.58c-0.25,0.3-0.24,0.88-0.59,0.93c-0.25,0.04-0.56-0.41-0.86-0.62
				c-0.8-0.58-1.58-1.18-2.41-1.7c-0.58-0.36-0.85-0.79-0.72-1.45c1.23,0.01,2.02,0.84,2.9,1.52
				C232.08,228.82,232.38,229.16,232.82,229.29z"/>
			<path class="st16" d="M218.88,230.02c0.66,0.03,1.15-0.4,1.7-0.65c1.62-0.77,3.3-1.34,5.11-1.43c-0.01,0.22,0.01,0.45-0.05,0.66
				c-0.06,0.23-0.08,0.43-0.47,0.17c-0.42-0.27-1-0.1-1.5,0.05c-1.36,0.42-2.48,1.3-3.71,1.97c-0.88,0.48-0.87,0.49-0.99-0.5
				C218.97,230.2,218.92,230.11,218.88,230.02z"/>
			<path class="st11" d="M219.87,158.15c0.03,0.32,0.26,0.3,0.49,0.29c0.6-0.04,1.2-0.13,1.79-0.13c2.35-0.01,4.64,0.33,6.81,1.32
				c1.18,0.54,2.39,1.01,3.59,1.52c-0.05,0.19,0.02,0.51-0.37,0.29c-1.52-0.85-3.11-1.55-4.76-2.07c-1.85-0.58-3.78-0.84-5.69-0.57
				c-0.93,0.13-1.9,0.11-2.91,0.58C219.1,158.74,219.56,158.51,219.87,158.15z"/>
			<path class="st17" d="M219.88,226.01c-0.19,0.43,0.47,0.5,0.37,0.94c-0.12,0.52-0.38,0.97-0.75,1.28c-0.35,0.3-0.6,0.63-0.8,1.02
				c-0.13-0.09-0.29-0.16-0.3-0.36c-0.05-0.41,0.86-0.4,0.43-0.97c0.22-0.29,0.55-0.48,0.7-0.83c-0.23-0.09-0.43-0.08-0.63,0.06
				c-0.66,0.46-1.4,0.37-2.14,0.29c-0.57-0.05-0.91-0.3-0.9-1C217.22,226.54,218.57,226.45,219.88,226.01z"/>
			<path class="st9" d="M220.62,214.3c1.31,0.94,2.84,1.13,4.37,1.3c0.51,0.06,1.04,0.02,1.56,0.02c0.15,0.75-0.16,0.96-0.91,0.89
				c-1.7-0.14-3.27-0.66-4.78-1.44c-0.17-0.09-0.43-0.58-0.69-0.05c-0.48-0.25-0.66-0.65-0.59-1.18c0.29,0.11,0.58,0.22,0.87,0.33
				C220.51,214.2,220.57,214.25,220.62,214.3z"/>
			<path class="st16" d="M212.78,229.58c0.91,0.98,2.05,1.23,3.32,1.07c0.31-0.04,0.63-0.03,0.95-0.04c0.08,1.4,0.07,1.42-1.3,1.32
				c-0.96-0.07-1.83-0.42-2.52-1.1C212.91,230.5,212.66,230.1,212.78,229.58z"/>
			<path class="st16" d="M241.01,228.43c1.49,0.94,0.78,2.8-0.23,3.25c-0.33,0.15-0.58,0.22-0.73-0.25
				c-0.12-0.39-0.36-0.75-0.54-1.12C240.18,229.82,240.84,229.32,241.01,228.43z"/>
			<path class="st17" d="M210.19,227.3c0.57-1.02,1.72-1.47,2.95-1.16c-0.56-0.02-1.08,0.07-1.46,0.54
				c-0.12,0.15-0.34,0.26-0.18,0.49c0.13,0.19,0.34,0.18,0.54,0.13c0.57-0.16,1.15-0.27,1.74-0.28c0.17,0.19,0.01,0.26-0.12,0.3
				c-0.74,0.21-1.18,0.74-1.54,1.36c-0.23-0.09-0.45-0.23-0.68-0.27C210.77,228.3,210.41,227.89,210.19,227.3z"/>
			<path class="st4" d="M226.31,186.97c-0.2,1.02-0.92,1.57-1.79,1.97c-0.37,0.17-1.22-0.55-1.25-1.08
				c-0.01-0.18-0.04-0.33-0.11-0.48c0.28-0.45,0.28-0.45,0.98-0.87c0.15,0.34,0.05,0.68,0.05,1.01c-0.18,0.31-0.27,0.62,0.02,0.92
				c0,0,0,0,0,0c0.04,0.04,0.08,0.12,0.12,0.12c0.11,0,0.13-0.09,0.11-0.18c0.04-0.57,0.18-1.1,0.51-1.57
				c0.29,0.1,0.56,0.46,0.91,0.04C225.95,186.73,226.15,186.92,226.31,186.97z"/>
			<path class="st9" d="M240.11,194.33c-0.41,0.06-0.82,0.07-1.23,0.16c-0.98,0.2-1.66,0.68-1.91,1.68c-0.3,0.1-0.3,0.1-0.18,0.62
				c-0.06,0.1-0.13,0.02-0.18-0.01c-0.91-0.45-0.91-0.45-0.39-1.3c1.13-1.86,1.18-1.88,3.27-1.34
				C239.69,194.2,239.9,194.27,240.11,194.33z"/>
			<path class="st8" d="M226.31,186.97c-0.15-0.05-0.35-0.24-0.45-0.12c-0.35,0.42-0.61,0.06-0.91-0.04
				c0.63-1.51,1.9-2.47,3.12-2.36c-0.61,0.44-0.92,1.1-1.26,1.74C226.66,186.46,226.59,186.79,226.31,186.97z"/>
			<path class="st16" d="M210.19,227.3c0.22,0.59,0.58,1,1.24,1.11c0.24,0.04,0.46,0.17,0.68,0.27c-0.2,0.52-0.1,1.07-0.16,1.61
				C210.42,229.99,209.64,228.66,210.19,227.3z"/>
			<path class="st17" d="M238.8,230.75c-1.2,1.09-2.13,1.17-3.44,0.29c0.22-0.36,0.51-0.65,0.89-0.84c0.32,0.39,0.81,0.49,1.24,0.67
				c0.23,0.09,0.53,0,0.62-0.26c0.07-0.23-0.13-0.4-0.34-0.51c-0.17-0.09-0.34-0.2-0.51-0.3
				C238.14,229.51,238.42,230.22,238.8,230.75z"/>
			<path class="st17" d="M234.87,228.09c0.48,0,0.95,0,1.43,0c0.01-0.06,0.02-0.12,0.02-0.18c-0.34-0.18-0.69-0.36-1.02-0.53
				c0.01-0.28,0.4-0.09,0.4-0.41c-0.54-0.21-1.31,0.19-1.68-0.54c1.31,0.27,2.63,0.53,3.94,0.8c0,0.32-0.21,0.42-0.37,0.56
				c-0.25-0.2-0.53-0.22-0.89-0.21c0.16,0.37,0.44,0.44,0.71,0.52c-0.23,1.1-0.86,0.26-1.31,0.28c-0.14-0.18-0.33-0.13-0.51-0.12
				C235.33,228.25,235.08,228.24,234.87,228.09z"/>
			<path class="st17" d="M233.73,230.17c0.95-1.07,2.16-1.38,3.25-0.82c-0.79,0.35-1.47,0.81-2.07,1.41
				C234.41,230.76,234.19,230.22,233.73,230.17z"/>
			<path class="st7" d="M229.36,185.27c0.57,1.52-0.76,3.75-2.33,3.9C228.06,188.03,228.8,186.7,229.36,185.27z"/>
			<path class="st16" d="M222.28,184.73c-0.44,0.03-0.92-0.09-1.24,0.35c-0.35-0.65-0.76-1.26-1.24-1.84
				C220.97,182.9,221.75,183.38,222.28,184.73z"/>
			<path class="st7" d="M216.74,229.27c-0.72,0-1.44-0.01-2.16,0c-0.27,0-0.54-0.04-0.57-0.34c-0.03-0.31,0.22-0.49,0.49-0.54
				c0.46-0.08,0.93-0.12,1.39-0.17C216.35,228.44,216.59,228.81,216.74,229.27z"/>
			<path class="st7" d="M219.58,213.83c-0.07,0.53,0.11,0.93,0.59,1.18c0.51,0.39,1.02,0.79,1.52,1.18
				c-0.72,0.01-1.46,0.05-1.99-0.59c-0.1-0.33-0.45-0.44-0.62-0.71c-0.15-0.26,0.81-0.69-0.15-0.88c-0.14-0.03,0.15-0.47,0.27-0.66
				c0.16-0.24,0.32-0.07,0.37,0.17c0,0-0.03,0.03-0.03,0.03c-0.1,0-0.22,0.01-0.2,0.14C219.37,213.81,219.49,213.82,219.58,213.83
				L219.58,213.83z"/>
			<path class="st15" d="M211.85,199.26c-0.38,0.03-0.76,0.17-1.03-0.29c-0.2-0.33-0.63-0.7-0.36-1.02
				c0.28-0.33,0.88-0.33,1.31-0.25c0.38,0.07,0.14,0.29-0.08,0.39c-0.26,0.11-0.48,0.27-0.06,0.43
				C212.07,198.69,212.02,198.94,211.85,199.26z"/>
			<path class="st7" d="M213.78,227.02c-0.59,0.01-1.17,0.12-1.74,0.28c-0.2,0.06-0.4,0.06-0.54-0.13
				c-0.16-0.23,0.06-0.35,0.18-0.49c0.38-0.48,0.9-0.56,1.46-0.54C213.47,226.35,213.62,226.69,213.78,227.02z"/>
			<path class="st16" d="M233.73,230.17c0.47,0.05,0.69,0.59,1.18,0.59c-0.14,0.23-0.24,0.49-0.43,0.67
				c-0.19,0.18-0.01,0.83-0.49,0.54c-0.39-0.23-0.92-0.56-0.66-1.21C233.42,230.54,233.5,230.3,233.73,230.17z"/>
			<path class="st17" d="M241.01,228.43c-0.17,0.89-0.82,1.39-1.49,1.88c-0.24-0.25-0.7-0.43-0.29-0.89c0.72-0.1,0.89-0.31,0.74-0.9
				C240.29,228.21,240.62,228.06,241.01,228.43z"/>
			<path class="st14" d="M222.68,221.23c0.81,0.11,0.41,0.82,0.55,1.25c0.13,0.4-0.33,0.5-0.58,0.45c-0.75-0.14-0.39-0.81-0.52-1.24
				C222.01,221.23,222.33,221.21,222.68,221.23z"/>
			<path class="st4" d="M233.94,154.49c0.91-0.31,1.67-0.17,2.34,0.38c0.24,0.19,0.44,0.5,0.23,0.76c-0.18,0.23-0.42-0.04-0.63-0.15
				C235.27,155.16,234.65,154.85,233.94,154.49z"/>
			<path class="st9" d="M214.8,206.7c-0.39,0.59-0.79,1.18-1.18,1.77c-0.02-0.01-0.05-0.02-0.06-0.04
				C212.8,206.93,212.97,206.69,214.8,206.7z"/>
			<path class="st16" d="M222.07,220.7c-0.14-0.56-0.47-1.11-0.07-1.69c0.09-0.13,0.11-0.4,0.32-0.34c0.17,0.05,0.37,0.23,0.42,0.39
				c0.11,0.42,0.15,0.87,0.22,1.31C222.59,220.29,222.14,220,222.07,220.7z"/>
			<path class="st17" d="M218.09,228.97c0.09,0.51,0.64,0.89,0.44,1.48c-0.3,0.01-0.6,0.02-0.9,0.04c-0.12-0.37-0.24-0.75-0.36-1.12
				c0.14-0.27,0.33-0.44,0.66-0.39c0.06,0,0.12,0,0.18,0.01C218.1,228.98,218.09,228.97,218.09,228.97z"/>
			<path class="st7" d="M213.79,226.2c0.47-0.08,0.89,0.11,1.31,0.15c0.36,0.04,0.46,0.37,0.44,0.66c-0.03,0.33-0.34,0.13-0.53,0.17
				C214.21,227.37,214.07,226.73,213.79,226.2z"/>
			<path class="st7" d="M237.26,229.81c0.17,0.1,0.34,0.2,0.51,0.3c0.21,0.11,0.41,0.28,0.34,0.51c-0.08,0.26-0.39,0.35-0.62,0.26
				c-0.43-0.18-0.91-0.29-1.24-0.67C236.54,229.96,236.88,229.84,237.26,229.81z"/>
			<path class="st11" d="M238.07,192.72c0.58-0.23,1.14-0.8,1.79-0.17c0.22,0.21,0.35,0.48,0.17,0.69c-0.2,0.24-0.55,0.09-0.83,0.04
				c-0.03-0.01-0.07-0.09-0.06-0.11c0.47-0.81-0.3-0.38-0.5-0.46C238.48,192.65,238.26,192.72,238.07,192.72z"/>
			<path class="st7" d="M212.75,167.82c0.01-0.28-0.05-0.49-0.39-0.47c0.39-0.72,0.87-1.36,1.43-1.96c0.11,0.01,0.22,0.02,0.33,0.03
				C213.66,166.23,213.2,167.03,212.75,167.82z"/>
			<path class="st16" d="M230.45,218.67c0,0.41,0.01,0.82-0.01,1.22c-0.01,0.2,0.12,0.47-0.19,0.56c-0.2,0.06-0.43,0-0.55-0.15
				c-0.17-0.19-0.18-0.44-0.02-0.68c0.21-0.33,0.42-0.66,0.63-0.99C230.35,218.64,230.4,218.66,230.45,218.67z"/>
			<path class="st16" d="M227.11,226.24c0.93,0.48,1.23,1.16,0.76,1.69c-0.09,0.1-0.24,0.24-0.35,0.23c-0.2-0.02-0.21-0.23-0.22-0.4
				C227.24,227.25,227.17,226.75,227.11,226.24z"/>
			<path class="st17" d="M214.11,165.43c-0.11-0.01-0.22-0.02-0.33-0.03c0.57-0.81,1.3-1.46,2-2.14c0.11-0.11,0.25-0.32,0.42-0.13
				c0.2,0.23-0.09,0.28-0.2,0.36C215.27,164.04,214.73,164.77,214.11,165.43z"/>
			<path class="st11" d="M211.85,199.26c0.17-0.32,0.22-0.57-0.22-0.74c-0.42-0.16-0.2-0.32,0.06-0.43c0,0.42,0.25,0.36,0.47,0.21
				c0.22-0.14,0.39-0.35,0.59-0.53c0.15,0.01,0.3,0.02,0.46,0.03C212.97,198.5,212.51,198.97,211.85,199.26z"/>
			<path class="st14" d="M225.99,225.74c0.6,0.14,0.59,0.69,0.75,1.11c-0.1,0.36-0.16,0.74-0.56,0.93
				c-0.11-0.45-0.21-0.89-0.32-1.34C226.11,226.25,226.06,226,225.99,225.74z"/>
			<path class="st16" d="M226.18,227.78c0.4-0.18,0.46-0.56,0.56-0.93c0.24,0.48,0.17,1,0.15,1.5c-0.02,0.47-0.38,0.56-0.81,0.58
				C226.11,228.54,226.15,228.16,226.18,227.78z"/>
			<path class="st16" d="M217.63,230.49c0.3-0.01,0.6-0.02,0.9-0.04c0.23,0.23-0.01,0.46-0.01,0.69c0,0.36-0.3,0.51-0.62,0.51
				c-0.4-0.01-0.21-0.36-0.25-0.57C217.61,230.89,217.63,230.69,217.63,230.49z"/>
			<path class="st7" d="M239.39,228.25c-0.16,0.24-0.32,0.48-0.48,0.72c-0.39-0.19-0.69-0.56-1.17-0.59
				c0.11-0.28,0.26-0.53,0.57-0.63C238.55,228.19,239.1,227.93,239.39,228.25z"/>
			<path class="st14" d="M229.69,221.24c0.07-0.17-0.18-0.5,0.31-0.47c0.65,0.04,0.43,0.54,0.53,0.87c0.09,0.29-0.1,0.39-0.37,0.4
				C229.53,222.06,229.78,221.56,229.69,221.24z"/>
			<path class="st15" d="M233.44,197.76c-0.55-0.35-0.78-1.11-1.54-1.19c0.51-0.5,1.11-0.42,1.32,0.2
				C233.32,197.1,233.37,197.44,233.44,197.76z"/>
			<path class="st11" d="M235.32,197.51c0.53,0.23,0.9-0.03,1.31-0.02c0.16,0,0.39-0.03,0.42,0.19c0.02,0.18-0.16,0.33-0.32,0.35
				C236.24,198.1,235.71,198.26,235.32,197.51z"/>
			<path class="st17" d="M237.75,228.38c0.47,0.03,0.77,0.4,1.17,0.59c-0.03,0.63-0.34,0.61-0.68,0.24
				C238.02,228.98,237.21,229.05,237.75,228.38z"/>
			<path class="st7" d="M217.92,228.97c-0.32-0.04-0.52,0.12-0.66,0.39c-0.21-0.35-0.43-0.69-0.64-1.05
				C217.32,228.17,217.36,228.19,217.92,228.97z"/>
			<path class="st17" d="M239.39,228.25c-0.29-0.31-0.84-0.06-1.08-0.49c0.53-0.59,1.01-0.05,1.53,0.05
				C239.79,228.08,239.55,228.12,239.39,228.25z"/>
			<path class="st7" d="M218.84,227.93c0.42,0.58-0.49,0.56-0.43,0.97c-0.1,0.02-0.21,0.05-0.31,0.07c0,0,0.01,0.01,0.01,0.01
				C217.89,228.31,218.16,227.98,218.84,227.93z"/>
			<path class="st9" d="M228.61,224.1c-0.28,0.53-0.51,1.05-0.62,1.67C227.61,225.06,227.89,224.31,228.61,224.1z"/>
			<path class="st12" d="M216.46,173.41c0.15-0.21,0.46-0.03,0.6-0.25c0.55,0.12,0.91-0.21,1.33-0.64c-0.17,0.65-0.35,1.06-1.05,0.9
				C217.06,173.35,216.76,173.41,216.46,173.41z"/>
			<path class="st14" d="M222.07,220.7c0.07-0.7,0.52-0.41,0.88-0.33c0.08,0.24,0.07,0.47-0.22,0.52
				C222.51,220.93,222.19,221.14,222.07,220.7z"/>
			<path class="st6" d="M253.22,205.36c-0.38,0.27-0.85-0.17-1.23,0.14c-0.03-0.23-0.05-0.46-0.09-0.76
				C252.4,204.94,252.86,205.03,253.22,205.36z"/>
			<path class="st6" d="M239.19,208.24c0.1,0.41-0.13,0.69-0.46,0.79c-0.19,0.06-0.54,0.44-0.71-0.08
				C238.42,208.71,238.8,208.47,239.19,208.24z"/>
			<path class="st7" d="M239.97,228.53c0.15,0.59-0.02,0.79-0.74,0.9C239.33,229.01,239.57,228.7,239.97,228.53z"/>
			<path class="st6" d="M251.73,205.56c0.1,0.16,0.42,0.06,0.4,0.35c-0.01,0.1-0.09,0.16-0.2,0.18c-0.23,0.04-0.34-0.13-0.49-0.26
				c-0.23-0.2-0.18-0.43-0.12-0.67C251.47,205.3,251.6,205.43,251.73,205.56z"/>
			<path class="st9" d="M236.6,208.72c0.54-0.38,0.54-0.38,1.31-0.5C237.51,208.55,237.36,208.62,236.6,208.72z"/>
			<path class="st5" d="M250.52,211.16c-0.25-0.01-0.46,0.02-0.45,0.34c-0.25-0.27-0.46-0.56-0.59-0.91
				C249.83,210.77,250.32,210.7,250.52,211.16z"/>
			<path class="st17" d="M225.99,225.74c0.07,0.25,0.12,0.5-0.12,0.7c-0.19-0.24-0.36-0.5-0.44-0.81
				C225.65,225.53,225.81,225.7,225.99,225.74z"/>
			<path class="st7" d="M237.41,228.09c-0.27-0.08-0.55-0.15-0.71-0.52c0.36-0.01,0.64,0.01,0.89,0.21
				C237.53,227.89,237.47,227.99,237.41,228.09z"/>
			<path class="st6" d="M255.37,205.8c-0.47-0.12-1.06,0.33-1.42-0.3C254.39,205.73,254.93,205.53,255.37,205.8z"/>
			<path class="st15" d="M224.19,188.44c-0.28-0.3-0.2-0.61-0.02-0.92C224.18,187.83,224.19,188.13,224.19,188.44z"/>
			<path class="st9" d="M251.58,207.3c-0.07-0.06-0.17-0.11-0.2-0.18c-0.03-0.09,0.07-0.1,0.13-0.1c0.14,0.02,0.19,0.12,0.2,0.25
				C251.68,207.3,251.64,207.31,251.58,207.3z"/>
			<path class="st9" d="M252.16,207.46c0.21-0.02,0.42-0.04,0.45,0.26C252.41,207.71,252.26,207.62,252.16,207.46z"/>
			<path class="st9" d="M235.58,228.25c0.18-0.01,0.37-0.06,0.51,0.12C235.91,228.38,235.73,228.38,235.58,228.25z"/>
			<path class="st6" d="M253.87,205.5c-0.18,0-0.37,0.06-0.51-0.12C253.55,205.31,253.73,205.34,253.87,205.5z"/>
			<path class="st9" d="M251.85,207.31c0.14-0.02,0.26-0.01,0.31,0.15C252.02,207.47,251.91,207.45,251.85,207.31z"/>
			<path class="st11" d="M213.2,197.81c0.01-0.12,0.1-0.17,0.2-0.21C213.41,197.74,213.32,197.79,213.2,197.81z"/>
			<path class="st15" d="M224.43,188.38c0.02,0.1-0.01,0.18-0.11,0.18c-0.04,0-0.08-0.08-0.12-0.12
				C224.27,188.42,224.35,188.4,224.43,188.38z"/>
			<path class="st9" d="M226.6,215.22c0.01-0.17,0.14-0.18,0.27-0.2c-0.01,0.06-0.02,0.12-0.02,0.18
				C226.77,215.21,226.69,215.21,226.6,215.22z"/>
			<path class="st17" d="M234.61,228.07c0.06-0.1,0.11-0.08,0.15,0.01C234.71,228.08,234.66,228.07,234.61,228.07z"/>
			<path class="st9" d="M231.47,164.96c-0.01,0.09-0.06,0.14-0.15,0.14C231.37,165.05,231.42,165,231.47,164.96z"/>
			<path class="st10" d="M213.18,168.98c-0.02,0.05-0.05,0.1-0.07,0.15C213.14,169.08,213.16,169.03,213.18,168.98z"/>
			<path class="st9" d="M227.77,218.58c-0.01,0.02-0.01,0.05-0.03,0.06c-0.01,0.01-0.03,0-0.05,0
				C227.72,218.62,227.74,218.6,227.77,218.58C227.77,218.58,227.77,218.58,227.77,218.58z"/>
			<path class="st3" d="M221.62,197.79c0.94-0.01,1.88,0.1,2.87-0.08C223.83,198.13,223,198.17,221.62,197.79z"/>
			<polygon class="st3" points="231.18,196.74 231.17,196.77 231.18,196.75 			"/>
			<path class="st9" d="M234.44,182.57c0.24,0.38,0.17,0.78,0.09,1.29C234.19,183.38,234.33,182.97,234.44,182.57z"/>
			<path class="st3" d="M195.14,181.07c0.7,0.61,1.23,1.35,1.63,2.19c-0.01,0.25-0.11,0.24-0.26,0.09
				c-0.29-0.31-0.58-0.61-0.85-0.93c-1.29-1.48-2.97-1.73-4.79-1.51c-0.62-0.11-1.22,0.24-1.92,0.14
				C190.57,180.16,193.29,179.8,195.14,181.07z"/>
			<path class="st5" d="M260.82,206.42c-0.27,0.74-1.04,0.81-1.6,1.16c-0.24,0.15-0.54,0.2-0.81,0.3c0.03-0.4-0.16-0.58-0.57-0.58
				c-0.37-0.01-0.76,0.08-1.32-0.16c0.9-0.23,1.62-0.09,2.33-0.13c0.33-0.02,0.61,0.05,0.82-0.4
				C259.87,206.18,260.43,206.48,260.82,206.42z"/>
			<path class="st6" d="M243.23,210.56c-0.1,0.05-0.19,0.1-0.29,0.15c0-0.34,0-0.68,0-1.02c0-0.16,0.08-0.27,0.25-0.3
				c0.15-0.02,0.29,0.02,0.39,0.15c0.1,0.13,0.11,0.28-0.02,0.39C243.38,210.1,243.26,210.3,243.23,210.56z"/>
			<path class="st6" d="M245.32,209.53c0,0.22-0.02,0.43-0.29,0.43c-0.28,0-0.4-0.21-0.39-0.43c0.01-0.23,0.2-0.4,0.44-0.41
				C245.37,209.11,245.3,209.36,245.32,209.53z"/>
			<path class="st5" d="M246.7,213.48c-0.04-0.02-0.11-0.03-0.12-0.06c-0.01-0.03,0.03-0.08,0.05-0.12
				c0.04,0.02,0.11,0.03,0.12,0.06C246.76,213.39,246.72,213.44,246.7,213.48z"/>
			<path class="st5" d="M250.68,211.3c-0.05-0.05-0.1-0.09-0.15-0.14C250.58,211.21,250.63,211.26,250.68,211.3z"/>
			<path class="st5" d="M219.42,176.71c-2.62-0.85-4.63-0.1-6.23,1.92c0.08-1.23,1.52-3.09,2.71-3.38
				C217.08,174.96,218.08,174.79,219.42,176.71z"/>
			<path class="st3" d="M225.33,171.98c-0.14-0.82-0.1-1.63,0.24-2.39c0.52-1.14,1.55-1.23,2.31-0.22c0.38,0.5,0.55,1.09,0.71,1.69
				c0.09,0.76,0.06,1.5-0.22,2.23c-0.22,0.57-0.49,1.03-1.16,1.06c-0.53,0.02-1.34-0.56-1.51-1.1
				C225.56,172.83,225.45,172.41,225.33,171.98z"/>
			<path class="st13" d="M223.2,175.06c-0.31,0.2-0.63,0.23-1.07-0.02C222.56,174.88,222.88,174.92,223.2,175.06z"/>
			<path class="st9" d="M226.87,215.02c0.05-0.05,0.09-0.1,0.14-0.14C226.97,214.92,226.92,214.97,226.87,215.02z"/>
			<polygon class="st3" points="243.02,171.62 243,171.57 243.05,171.57 			"/>
			<path class="st7" d="M220.46,214.16c-0.29-0.11-0.58-0.22-0.87-0.33c0,0,0,0,0,0c-0.01-0.09-0.02-0.18-0.02-0.27
				c0,0,0.03-0.03,0.03-0.03C220.05,213.51,220.47,213.53,220.46,214.16z"/>
			<path class="st9" d="M219.56,213.56c0.01,0.09,0.02,0.18,0.02,0.27c-0.1-0.01-0.22-0.02-0.23-0.13
				C219.34,213.56,219.46,213.56,219.56,213.56z"/>
		</g>
		<path class="st0" d="M340.65,215.78c5.41-4.38,4.17-10.94,4.96-16.64c0.53-3.83-2.5-7-6.41-6.83c-8.55,0.35-17.25-0.77-25.62,1.74
			c-2.18,0.65-3.41,0.89-4.63-1.55c-1.72-3.41-4.95-4.6-8.76-4.65c-3.58-0.05-6.69,1.39-9.93,2.76c-2.86,2.12-5.64,4.69-6.38,7.7
			c-0.59,4.97-2.52,4.92-6.82,2.93c-6.83-3.15-14.04-1.47-20.86,1.07c-6,2.23-7.28,3.51-11.79,8.08c-3.07,3.11-4.19,6.96-7.44,10.22
			c-1.19,1.26-0.59-3.67-3.21-4.63c-4.27-2.22-24.83,6.78-33.7,9.22c-8.9,2.44-17.53,5.79-26.94,8.86
			c2.66-7.54,4.11-15.05,5.3-22.61c0.31-1.96,0.53-3.94,0.76-5.91c0.56-4.73-0.03-9.05-4.71-11.61c-4.9-2.68-9.25-1.34-13.23,2.09
			c-3.76,2.53-9.01,2.54-11.18,1.93c-5.47-1.54-11.06-2.17-16.77-1.32c-16,2.37-28.24,10.9-36.95,24.02
			c-14.05,21.16-15.9,44.42-9.27,68.44c5.73,20.79,19.66,32.34,41.17,35.12c17.24,2.23,33.38-1.81,49.26-7.63
			c22.74-8.33,43.16-21.4,64.81-31.97c27.49-13.41,55.83-22.35,87.01-16.12c4.66,0.93,9.41-2.34,10.98-6.81
			c1.42-4.04-0.44-8.31-4.85-10.85c-1.57-0.9-3.31-1.53-5.17-2.38c0.42-0.48,0.76-1.05,1.25-1.42c11.83-8.83,13.69-14.75,8.86-28.65
			C340.01,217.35,339.62,216.62,340.65,215.78z M155.12,238.61c-11.29,3.37-14.64,10.88-10.76,22.13c1.62,4.69-0.16,9.91-1.63,14.54
			c-0.83,2.59-3.81,4.38-4,7.69c-0.17,2.94-0.82,5.86-1.34,9.36c-3.9-2.5-5.8-6.01-7.34-9.82c-4.04-9.98-2.79-20.3-1.7-30.51
			c0.83-7.73,2.2-15.45,5.73-22.56c1.37-2.75,3.13-5.09,5.85-6.6c5.57-3.09,8.73-1.8,10.01,4.33c0.94,4.5,2.37,8.54,7.39,10.47
			C156.33,238.08,155.75,238.42,155.12,238.61z M298.62,227.53c-4.76,3.22-3.83,8.99-4.32,13.71c-0.46,4.36-2.23,5.76-6.12,5.74
			c-3.55-0.02-6.99,1.81-10.95,0.8c4.76-5.03,8.16-10.59,10.39-16.85c0.43-1.22,0.53-2.55,2.22-2.94c3.53-0.82,5.93-3.48,8.69-5.74
			C300.05,224.03,302,225.25,298.62,227.53z"/>
		<path class="st18" d="M90.94,264.12c0.52-18.53,5.15-35.45,19.11-48.77c13.91-13.27,30.83-16.27,48.25-8.02
			c3.9,1.85,5.8,1.27,6.97-2.74c0.41-1.42,1.03-2.83,1.8-4.09c0.99-1.63,2.66-1.9,4.4-1.53c1.68,0.36,2.66,1.53,2.63,3.2
			c-0.17,9.05-1.97,17.86-4.81,26.37c-1.09,3.27-5.03,2.56-7.98,2.66c-2.61,0.09-3.29-1.82-3.87-3.8c-0.19-0.64-0.28-1.3-0.44-1.94
			c-2.77-10.88-12.06-13.9-21.1-6.86c-3.22,2.51-5.76,5.6-7.16,9.43c-5.76,15.7-8.42,31.9-5.7,48.5
			c3.43,20.9,17.16,29.37,37.67,23.93c12.95-3.43,24.92-9.3,36.98-14.92c24.14-11.26,48.19-22.75,74.28-28.93
			c18.24-4.32,36.64-6.93,55.3-2.47c1.93,0.46,3.81,1.19,5.65,1.95c1.51,0.62,2.46,1.81,2.07,3.55c-0.39,1.73-1.77,2.49-3.37,2.36
			c-2.31-0.19-4.59-0.69-6.88-1.07c-16.83-2.83-33.13,0.44-49.34,4.4c-20.79,5.07-39.15,15.67-57.8,25.59
			c-19.26,10.25-38.48,20.54-60.03,25.39c-10.17,2.29-20.43,3.1-30.69,1.22c-19.65-3.61-31.83-17.11-34.72-37.96
			C91.44,274.45,90.7,269.34,90.94,264.12z"/>
		<path class="st18" d="M202.03,235.35c-0.46,2.51,0.09,5.74-3.32,7.41c-1.3,0.64-1.38,2.18-1.56,3.51
			c-0.68,4.77-1.62,9.52-1.94,14.31c-0.18,2.69-2.28,5.55,1.63,8.26c2.28,1.58-1.32,8.85-4.53,9.89c-5.06,1.64-10.18,3.1-15.23,4.76
			c-3.3,1.09-4.33,0.23-3.42-3.21c0.69-2.64,0.34-5.39,3.19-7.41c1.89-1.34,1.94-4.63,1-6.52c-0.91-1.86-3.24-0.15-4.85,0.3
			c-6.72,1.89-7.28,3.29-4.32,10.02c1.44,3.28-1.52,9.68-5,10.59c-5.14,1.35-10.3,2.62-15.47,3.85c-1.1,0.26-3.24,1.36-2.93-0.89
			c0.44-3.19-0.88-7.28,3.21-9.19c1.57-0.74,1.43-2.04,1.63-3.33c0.89-5.91,1.84-11.82,2.66-17.74c0.18-1.32,0.76-2.57-0.97-3.88
			c-2.84-2.15-1.27-9.31,2.18-10.36c5.72-1.74,11.55-3.12,17.3-4.74c2.33-0.66,3.25,0.21,2.65,2.39c-0.75,2.73,0.24,6.06-3.04,7.98
			c-1.52,0.89-1.16,3.01-1.56,4.58c-0.66,2.57,0.22,3.15,2.87,2.46c6.42-1.68,11.09-6.57,8.37-8.78c-3.41-2.77-1.12-5.13-1.41-7.6
			c-0.3-2.58,1.3-3.79,3.68-4.51c5.25-1.58,10.43-3.41,15.66-5.05C202.13,231.3,202.18,231.38,202.03,235.35z"/>
		<path class="st18" d="M233.76,241.99c0.28-16.3,16.49-34.06,32.79-35.92c12.52-1.43,19.78,6.84,17.04,19.38
			c-3.39,15.49-18.53,29.06-34.24,30.69C238.89,257.23,233.58,252.4,233.76,241.99z"/>
		<path class="st19" d="M319.71,244.14c-4.75-0.42-9.16-1.63-13.77,1.34c-2.95,1.9-5.96,0.71-4.4-4.06c0.4-1.24,0.23-2.66,0.53-3.95
			c0.49-2.12-0.13-5.07,3.18-5.4c2.99-0.3,6.39-2.72,8.54,1.97c1.12,2.44,3.87,2.37,6.22,1.62c1.68-0.53,2.88-1.75,2.87-3.67
			c-0.01-2.57-2.2-3.11-3.96-3.92c-1.81-0.84-3.72-1.46-5.55-2.24c-8.67-3.69-10.81-10.55-5.81-18.55
			c4.43-7.08,12.47-10.01,20.34-7.19c1.62,0.58,2.35,0.06,3.76-0.6c2.52-1.17,5.67-2.43,8.36-0.14c1.01,0.86-0.9,10.64-2.09,10.82
			c-3.2,0.5-6.83,2.57-9.41-1.31c-1.59-2.4-3.65-3.36-6.39-2.46c-1.52,0.49-2.57,1.63-2.79,3.24c-0.21,1.58,0.94,2.43,2.16,3.03
			c2.08,1.04,4.23,1.95,6.33,2.96c7.9,3.83,10.91,8.23,9.89,14.36c-1.16,6.94-7.77,13.05-15.15,13.98
			C321.56,244.09,320.56,244.09,319.71,244.14z"/>
		<path class="st19" d="M232.99,222.68c-0.66,2.85-0.02,6.42-4.16,7.57c-1.05,0.29-1.09,1.62-1.23,2.57
			c-0.96,6.58-1.87,13.16-2.77,19.75c-0.08,0.62-0.18,1.43,0.13,1.89c4.56,6.71,3.55,9.84-4.11,12.42
			c-5.2,1.75-10.44,3.41-15.61,5.25c-2.42,0.86-3.7,0.49-2.89-2.26c0.91-3.08-0.38-7.27,4.38-8.55c1.41-0.38,1.12-2.23,1.31-3.53
			c0.76-5.43,1.59-10.85,2.28-16.29c0.25-2,2.57-4.85-2.31-4.97c-1.72-0.04,0.2-9.39,2.61-10.28c6.55-2.41,13.18-4.62,19.82-6.81
			C233.85,218.31,232.82,220.97,232.99,222.68z"/>
		<path class="st20" d="M288.71,221.52c1.21-2.41,2.2-4.42,3.23-6.41c1.27-2.45,2.44-4.68-0.88-6.75c-1.93-1.2-1.47-3.58-1.06-5.52
			c0.88-4.18,5.63-8.29,9.9-8.71c3.52-0.35,5.3,1.17,5.29,4.8C305.18,205.86,296.07,218.76,288.71,221.52z"/>
		<path class="st21" d="M265.26,225.13c-0.02,4.37-1.01,8.55-2.29,12.69c-0.82,2.65-2.38,4.75-4.79,6.13c-3.23,1.85-5.8,0.78-6-2.88
			c-0.37-6.7,0.84-13.2,3.55-19.38c0.62-1.42,1.77-2.38,3.02-3.24c1.4-0.96,2.9-1.84,4.62-1.07c1.82,0.81,1.85,2.59,1.88,4.27
			C265.28,222.8,265.26,223.96,265.26,225.13z"/>
		<path class="st22" d="M134.97,276.87c-2.13-11.96-0.59-23.09,1.57-34.17c0.82-4.23,1.9-8.44,4.27-12.11
			c0.95-1.47,2.68-4.22,4.15-2.42c1.4,1.72,3.59,5.41,1.17,7.51c-8.65,7.48-8.65,16.5-6.46,26.61
			C140.72,267.24,139.92,272.51,134.97,276.87z"/>
		<g>
			<path class="st23" d="M247.16,302.18l4.28,0.38c-0.2,2.77-0.89,4.89-2.07,6.36s-2.63,2.21-4.35,2.21c-2.07,0-3.74-1.01-5.02-3.04
				c-1.27-2.03-1.91-4.83-1.91-8.4c0-3.54,0.6-6.39,1.81-8.56s2.89-3.26,5.05-3.26c2.02,0,3.57,0.83,4.66,2.48
				c1.08,1.65,1.7,3.85,1.84,6.58l-4.37,0.35c0-1.51-0.2-2.6-0.59-3.27c-0.39-0.67-0.85-1.01-1.38-1.01c-1.48,0-2.21,2.19-2.21,6.58
				c0,2.46,0.19,4.13,0.58,5.01c0.38,0.88,0.92,1.32,1.61,1.32C246.32,305.91,247.01,304.67,247.16,302.18z"/>
			<path class="st23" d="M266.1,288.23v22.56h-4.68v-8.78h-3.58v8.78h-4.68v-22.56h4.68v8.3h3.58v-8.3H266.1z"/>
			<path class="st23" d="M273.43,288.23v22.56h-4.68v-22.56H273.43z"/>
			<path class="st23" d="M284.48,302.18l4.28,0.38c-0.2,2.77-0.89,4.89-2.07,6.36s-2.63,2.21-4.35,2.21c-2.07,0-3.74-1.01-5.02-3.04
				c-1.27-2.03-1.91-4.83-1.91-8.4c0-3.54,0.6-6.39,1.81-8.56s2.89-3.26,5.05-3.26c2.02,0,3.57,0.83,4.66,2.48
				c1.08,1.65,1.7,3.85,1.84,6.58l-4.37,0.35c0-1.51-0.2-2.6-0.59-3.27c-0.39-0.67-0.85-1.01-1.38-1.01c-1.48,0-2.21,2.19-2.21,6.58
				c0,2.46,0.19,4.13,0.58,5.01c0.38,0.88,0.92,1.32,1.61,1.32C283.64,305.91,284.33,304.67,284.48,302.18z"/>
			<path class="st23" d="M304.23,310.79h-5.12l-2.64-8.53l-1.58,3.32v5.21h-4.42v-22.56h4.42v9.33l4.21-9.33h4.21l-3.85,8.26
				L304.23,310.79z"/>
			<path class="st23" d="M316.96,305.4v5.39h-11.48v-22.56h11.48v5.21h-6.89v3.27h5.57v5.01h-5.57v3.69H316.96z"/>
			<path class="st23" d="M331.86,310.79h-3.81l-4.18-9.97c-0.54-1.28-1.08-2.83-1.62-4.66c0.25,1.45,0.37,2.69,0.37,3.7v10.93h-3.8
				v-22.56h4.43l3.55,8.26c0.71,1.64,1.25,3.09,1.61,4.33c-0.24-1.93-0.36-3.9-0.36-5.92v-6.68h3.81V310.79z"/>
		</g>
	</g>
</g>
<g id="Capa_2">
</g>
</svg>
