<svg xmlns="http://www.w3.org/2000/svg" xmlns:xlink="http://www.w3.org/1999/xlink" viewBox="0 0 132.01 38"><defs><style>.cls-1{isolation:isolate;}.cls-2{fill:url(#Degradado_sin_nombre_219);}.cls-3{mix-blend-mode:screen;}.cls-4{fill:url(#linear-gradient);}.cls-5{opacity:0.8;mix-blend-mode:multiply;}.cls-6{fill:url(#linear-gradient-2);}.cls-10,.cls-7{font-size:20.43px;font-family:MyriadPro-Bold, Myriad Pro;font-weight:700;}.cls-7{fill:#878787;}.cls-8{letter-spacing:0em;}.cls-9{letter-spacing:-0.01em;}.cls-10{fill:#fff;}</style><linearGradient id="Degradado_sin_nombre_219" x1="-8187.17" y1="-8438.29" x2="-8187.17" y2="-8392.83" gradientTransform="translate(-8113.07 -8384.06) rotate(180)" gradientUnits="userSpaceOnUse"><stop offset="0" stop-color="#d1edfb"/><stop offset="1" stop-color="#2042ff"/></linearGradient><linearGradient id="linear-gradient" x1="-8187.17" y1="-8432.49" x2="-8187.17" y2="-8420.49" gradientTransform="translate(-8113.07 -8384.06) rotate(180)" gradientUnits="userSpaceOnUse"><stop offset="0" stop-color="#fff"/><stop offset="1"/></linearGradient><linearGradient id="linear-gradient-2" x1="-8187.17" y1="-8392.75" x2="-8187.17" y2="-8430.89" gradientTransform="translate(-8113.07 -8384.06) rotate(180)" gradientUnits="userSpaceOnUse"><stop offset="0" stop-color="#fff"/><stop offset="1" stop-color="#0094cd"/></linearGradient></defs><g class="cls-1"><g id="Capa_1" data-name="Capa 1"><path class="cls-2" d="M8.11,8.7l0,30.16a8,8,0,0,0,8,7.84h116a8,8,0,0,0,8-7.84l0-30.16Z" transform="translate(-8.09 -8.7)"/><g class="cls-3"><path class="cls-4" d="M132.11,43.7h-116a6.92,6.92,0,0,1-7-6.82v2a6.93,6.93,0,0,0,7,6.84h116a6.93,6.93,0,0,0,7-6.84v-2A6.94,6.94,0,0,1,132.11,43.7Z" transform="translate(-8.09 -8.7)"/></g><g class="cls-5"><path class="cls-6" d="M139.09,8.7l0,30.16a6.94,6.94,0,0,1-7,6.86h-116a6.94,6.94,0,0,1-7-6.86l0-30.16h-1l0,30.16a8,8,0,0,0,8,7.84h116a8,8,0,0,0,8-7.84l0-30.16Z" transform="translate(-8.09 -8.7)"/></g><text class="cls-7" transform="translate(26.36 23.73)"><tspan class="cls-8">N</tspan><tspan x="14.04" y="0">osot</tspan><tspan class="cls-9" x="53.98" y="0">r</tspan><tspan x="61.58" y="0">os</tspan></text><text class="cls-10" transform="translate(27.71 21.28)"><tspan class="cls-8">N</tspan><tspan x="14.04" y="0">osot</tspan><tspan class="cls-9" x="53.98" y="0">r</tspan><tspan x="61.58" y="0">os</tspan></text></g></g></svg>