<svg xmlns="http://www.w3.org/2000/svg" xmlns:xlink="http://www.w3.org/1999/xlink" viewBox="0 0 132.01 38"><defs><style>.cls-1{isolation:isolate;}.cls-2{fill:url(#Degradado_sin_nombre_219);}.cls-3{mix-blend-mode:screen;}.cls-4{fill:url(#linear-gradient);}.cls-5{opacity:0.8;mix-blend-mode:multiply;}.cls-6{fill:url(#linear-gradient-2);}.cls-10,.cls-7{font-size:20.43px;font-family:MyriadPro-Bold, Myriad Pro;font-weight:700;}.cls-7{fill:#878787;}.cls-8{letter-spacing:0.01em;}.cls-9{letter-spacing:0.02em;}.cls-10{fill:#fff;}</style><linearGradient id="Degradado_sin_nombre_219" x1="-8186.45" y1="-8437.57" x2="-8186.45" y2="-8392.11" gradientTransform="translate(-8113.07 -8384.06) rotate(180)" gradientUnits="userSpaceOnUse"><stop offset="0" stop-color="#d1edfb"/><stop offset="1" stop-color="#2042ff"/></linearGradient><linearGradient id="linear-gradient" x1="-8186.45" y1="-8431.77" x2="-8186.45" y2="-8419.77" gradientTransform="translate(-8113.07 -8384.06) rotate(180)" gradientUnits="userSpaceOnUse"><stop offset="0" stop-color="#fff"/><stop offset="1"/></linearGradient><linearGradient id="linear-gradient-2" x1="-8186.45" y1="-8392.03" x2="-8186.45" y2="-8430.17" gradientTransform="translate(-8113.07 -8384.06) rotate(180)" gradientUnits="userSpaceOnUse"><stop offset="0" stop-color="#fff"/><stop offset="1" stop-color="#0094cd"/></linearGradient></defs><g class="cls-1"><g id="Capa_1" data-name="Capa 1"><path class="cls-2" d="M7.39,8l0,30.16a8,8,0,0,0,8,7.84h116a8,8,0,0,0,8-7.84l0-30.16Z" transform="translate(-7.37 -7.98)"/><g class="cls-3"><path class="cls-4" d="M131.39,43h-116a6.92,6.92,0,0,1-7-6.82v2a6.93,6.93,0,0,0,7,6.84h116a6.93,6.93,0,0,0,7-6.84v-2A6.94,6.94,0,0,1,131.39,43Z" transform="translate(-7.37 -7.98)"/></g><g class="cls-5"><path class="cls-6" d="M138.37,8l0,30.16a6.94,6.94,0,0,1-7,6.86h-116a6.94,6.94,0,0,1-7-6.86L8.39,8h-1l0,30.16a8,8,0,0,0,8,7.84h116a8,8,0,0,0,8-7.84l0-30.16Z" transform="translate(-7.37 -7.98)"/></g><text class="cls-7" transform="translate(21.18 23.73)"><tspan class="cls-8">S</tspan><tspan x="11.18" y="0">e</tspan><tspan class="cls-9" x="21.97" y="0">r</tspan><tspan x="30.1" y="0">vicios</tspan></text><text class="cls-10" transform="translate(22.65 21.63)"><tspan class="cls-8">S</tspan><tspan x="11.18" y="0">e</tspan><tspan class="cls-9" x="21.97" y="0">r</tspan><tspan x="30.1" y="0">vicios</tspan></text></g></g></svg>