<svg id="Capa_1" data-name="Capa 1" xmlns="http://www.w3.org/2000/svg" viewBox="0 0 137.97 110.6"><path d="M17.35,78.54,48.89,48.75c1.62-1.54,3.07-1.22,4.49.31C56.12,52,58.84,55,61.65,57.88c1.83,1.89,1.57,3.43-.33,5.09C56.13,67.47,51,72,45.85,76.58l-3.29,2.91,14.67,13c1.44,1.28,2.87,2.57,4.33,3.82,1.75,1.5,1.79,3,.22,4.7-2.7,2.86-5.37,5.77-8.08,8.62-2,2.15-3.13,2.2-5.3.18Q37.47,99.56,26.58,89.28c-3.06-2.87-6.15-5.7-9.23-8.54Z" transform="translate(-17.35 -24.2)"/><path d="M155.32,80.74l-30.24,28.33c-3.25,3-3.83,3-6.87-.26-2.37-2.55-4.72-5.12-7.15-7.61-1.79-1.84-1.72-3.38.24-5.09,6.2-5.41,12.34-10.9,18.78-16.59-2.26-2-4.4-4-6.55-5.86-4-3.58-8.07-7.19-12.17-10.71-1.93-1.65-2.16-3.2-.35-5.08,2.8-2.9,5.53-5.87,8.26-8.83,1.56-1.7,3-1.7,4.72-.13q15.64,14.84,31.33,29.63Z" transform="translate(-17.35 -24.2)"/><path d="M77.49,134.76c-4.46-1.32-9-2.55-13.37-4-2.06-.69-1.7-2.45-1.21-4.16Q69.54,103.8,76.1,81,83.8,54.4,91.5,27.8c1.1-3.8,1.69-4.14,5.44-3.08,3.16.91,6.31,1.85,9.47,2.78,3.89,1.15,4.26,1.81,3.15,5.67q-10.75,37.14-21.5,74.29-3.51,12.12-7,24.23C80.54,133.51,79.87,135,77.49,134.76Z" transform="translate(-17.35 -24.2)"/></svg>